<svg xmlns="http://www.w3.org/2000/svg" width="15.569" height="16.159" viewBox="0 0 15.569 16.159"><defs><style>.a{fill:#9b9b9a;}.b{fill:#d0cfce;}.c{fill:#fff;}.d{fill:#3f3f3f;}.e{fill:#fcea2b;}.f,.g,.h{fill:none;stroke:#000;stroke-linejoin:round;}.f,.g{stroke-linecap:round;}.f{stroke-miterlimit:10;}</style></defs><g transform="translate(0.512 0.5)"><g transform="translate(0.14 8.586)"><path class="a" d="M17.21,48.279s-.59-4.071,2.95-4.071a4.849,4.849,0,0,0,2.655,1.06h-.037c.907,0,1.566-.786,2.508-1.414,3.928,0,3.216,4.425,3.216,4.425" transform="translate(-17.173 -42.328)"/><path class="b" d="M36.613,47.107l.713,1.341,1.88-4.312,1.905,2.886-3.292,1.219" transform="translate(-30.878 -42.528)"/><path class="c" d="M30.951,49.883a1.546,1.546,0,0,1-1.619,0l-.543-.711-1-2.578,2.352.8,2.234-.8-.97,2.578Z" transform="translate(-24.657 -44.26)"/><path class="b" d="M54.813,44.526H50.244V38.684H54.75a.063.063,0,0,1,.063.063Z" transform="translate(-40.487 -38.684)"/><path class="c" d="M52.32,47.6H48.01V42.01h3.172a1.137,1.137,0,0,1,1.137,1.137Z" transform="translate(-38.913 -41.029)"/><path class="d" d="M33.314,48.535s-.356,1.776.681,1.776.681-1.776.681-1.776" transform="translate(-28.511 -45.629)"/><path class="d" d="M32.859,54.582a.249.249,0,0,1,.431,0l.344.6.559.585H31.956l.559-.585Z" transform="translate(-27.595 -49.804)"/><path class="b" d="M26.421,47.739l-.713.957-1.673-3.81-1.168,2.5,2.79,1.307" transform="translate(-21.188 -43.056)"/></g><g transform="translate(1.564 0)"><path class="d" d="M23.18,17.546c-1.18,0-1.18-1.77-1.18-3.835a3.858,3.858,0,0,1,4.13-4.13,3.858,3.858,0,0,1,4.13,4.13c0,2.065,0,3.835-1.18,3.835" transform="translate(-22 -9.581)"/></g><g transform="translate(2.43 1.77)"><path class="e" d="M24.937,19.416c0,2.655,1.456,4.13,3.245,4.13,1.751,0,3.264-1.475,3.264-4.13a3.581,3.581,0,0,0-.3-1.475c-.885-.885-2.065-2.36-2.065-2.36a8.052,8.052,0,0,1-3.835,2.065S24.937,17.941,24.937,19.416Z" transform="translate(-24.937 -15.581)"/></g><g transform="translate(0 0)"><path class="f" d="M52.32,47.824H48.01v-5.5H51.5v.623h.821Z" transform="translate(-38.773 -32.665)"/><path class="f" d="M51.214,38.863h4.374v5.5" transform="translate(-41.032 -30.224)"/><line class="f" x2="0.821" y2="0.623" transform="translate(12.726 9.661)"/><line class="f" x2="2.488" transform="translate(10.106 11.492)"/><path class="f" d="M59.388,50.583" transform="translate(-46.794 -38.486)"/><path class="f" d="M50.955,50.583" transform="translate(-40.849 -38.486)"/><line class="f" x2="2.488" transform="translate(10.106 12.701)"/><line class="f" x2="2.488" transform="translate(10.106 13.758)"/><path class="f" d="M33.314,48.535s-.356,1.776.681,1.776.681-1.776.681-1.776" transform="translate(-28.371 -37.042)"/><path class="f" d="M32.565,57.8" transform="translate(-27.884 -43.575)"/><path class="f" d="M38.96,57.8" transform="translate(-32.393 -43.575)"/><line class="f" x1="1.693" y2="0.643" transform="translate(6.567 13.585)"/><path class="f" d="M16.737,48.721s-.59-3.835,2.95-3.835a4.849,4.849,0,0,0,2.655,1.06h-.037a4.849,4.849,0,0,0,2.655-1.06" transform="translate(-16.7 -34.47)"/><path class="f" d="M26.421,47.739l-.713.957-1.673-3.81-1.168,2.5,2.79,1.307" transform="translate(-21.048 -34.47)"/><path class="f" d="M39,44.886,37.325,48.7l-.713-.957" transform="translate(-30.738 -34.47)"/><path class="f" d="M27.441,25.171" transform="translate(-24.272 -20.572)"/><path d="M39.133,25.637a.59.59,0,1,1-.59-.59.59.59,0,0,1,.59.59" transform="translate(-31.683 -20.484)"/><path d="M31.133,25.637a.59.59,0,1,1-.59-.59.59.59,0,0,1,.59.59" transform="translate(-26.043 -20.484)"/><path d="M33.133,35.109a2.258,2.258,0,0,1-1.017-.253.3.3,0,0,1,.264-.528,1.587,1.587,0,0,0,1.506,0,.3.3,0,0,1,.264.528A2.258,2.258,0,0,1,33.133,35.109Z" transform="translate(-27.453 -27.005)"/><path class="g" d="M23.18,17.546c-1.18,0-1.18-1.77-1.18-3.835a3.858,3.858,0,0,1,4.13-4.13,3.858,3.858,0,0,1,4.13,4.13c0,2.065,0,3.835-1.18,3.835" transform="translate(-20.436 -9.581)"/><path class="h" d="M24.937,19.416c0,2.655,1.456,4.13,3.245,4.13,1.751,0,3.264-1.475,3.264-4.13a3.581,3.581,0,0,0-.3-1.475c-.885-.885-2.065-2.36-2.065-2.36a8.052,8.052,0,0,1-3.835,2.065S24.937,17.941,24.937,19.416Z" transform="translate(-22.507 -13.811)"/></g></g></svg>