<svg xmlns="http://www.w3.org/2000/svg" width="22.204" height="15.645" viewBox="0 0 22.204 15.645"><defs><style>.a{fill:#ea5a47;}.b{fill:#9b9b9a;}.c{fill:#92d3f5;}.d{fill:#fcea2b;}.e{fill:none;stroke:#000;stroke-linecap:round;stroke-linejoin:round;}</style></defs><g transform="translate(0.43 0.525)"><g transform="translate(0 5.992)"><path class="a" d="M27.058,35.43l-.386-.21a.307.307,0,0,1-.175-.351c.105-.666.175-2.981-3.4-4.034a.445.445,0,0,0-.21-.035l-6.875.035a.707.707,0,0,0-.386.105l-3.613,2.42a.5.5,0,0,1-.21.07,9.262,9.262,0,0,0-1.964.14A4.042,4.042,0,0,0,6.891,35.5a.632.632,0,0,0-.07.351c.035.842-.526,1.789.316,2.56l6.8-.035L21.1,38.2l5.647-.07a1.782,1.782,0,0,0,.982-.772C28.321,36.412,27.128,35.465,27.058,35.43Z" transform="translate(-6.365 -30.8)"/><path class="b" d="M14.7,46.4a1.4,1.4,0,1,0,1.4,1.4A1.407,1.407,0,0,0,14.7,46.4Z" transform="translate(-10.669 -40.928)"/><path class="b" d="M54.5,46.4a1.4,1.4,0,1,0,1.4,1.4A1.407,1.407,0,0,0,54.5,46.4Z" transform="translate(-36.51 -40.928)"/><path class="c" d="M35.8,35.4V33.9a.615.615,0,0,0-.6-.6H27.769c-.035,0-.07,0-.07.035l-2.806,2c-.07.035-.07.14-.035.21.035.035.07.07.105.07,1.964,0,9.54-.07,10.663-.035A.166.166,0,0,0,35.8,35.4Z" transform="translate(-18.158 -32.423)"/><path class="d" d="M6.887,40.5l1.4.561-.737,1.017L5.8,42.113Z" transform="translate(-5.8 -37.098)"/></g><g transform="translate(0.07 0)"><path class="e" d="M8.1,51.4" transform="translate(-7.363 -38.183)"/><line class="e" x1="7.225" y2="0.14" transform="translate(7.366 13.077)"/><path class="e" d="M6.737,37.441c-.316-.07-.6-.175-.631-.351C6.07,36.739,6,35.757,6,35.3a.913.913,0,0,1,.14-.526c.386-.7,1.684-2.385,5.226-2.245l3.613-2.42a1.164,1.164,0,0,1,.561-.175l6.875-.035a.971.971,0,0,1,.316.035c.772.21,4.1,1.4,3.648,4.419l.386.21a.6.6,0,0,1,.351.421,2.469,2.469,0,0,1-.07,1.508" transform="translate(-6 -24.224)"/><path class="e" d="M24.9,36.848l10.592-.07V35.2" transform="translate(-18.271 -27.665)"/><circle class="e" cx="1.754" cy="1.754" r="1.754" transform="translate(2.21 11.113)"/><circle class="e" cx="1.754" cy="1.754" r="1.754" transform="translate(16.169 11.113)"/><path class="e" d="M8.729,42.9l-.631.772-1.3-.035" transform="translate(-6.519 -32.664)"/><path class="e" d="M18.267,21.186a5.437,5.437,0,0,1,8.344-2.546" transform="translate(-13.965 -16.225)"/><path class="e" d="M14.182,18.324a6.665,6.665,0,0,1,10.463-3.177" transform="translate(-11.312 -13.716)"/><path class="e" d="M22.217,24.09a4.034,4.034,0,0,1,6.127-1.722" transform="translate(-16.529 -18.822)"/></g></g></svg>