<svg xmlns="http://www.w3.org/2000/svg" width="20.301" height="16.571" viewBox="0 0 20.301 16.571"><defs><style>.a{fill:#fff;}.b{fill:#fcea2b;}.c{fill:#3f3f3f;}.d{fill:none;stroke:#000;}.d,.e{stroke-linecap:round;stroke-linejoin:round;stroke-miterlimit:10;}.e{fill:#f4aa41;stroke:#e27022;}</style></defs><g transform="translate(0.327 0.5)"><g transform="translate(0 2.855)"><path class="a" d="M13.371,34.54h-.612a.435.435,0,0,1-.426-.444V22.112a.435.435,0,0,1,.426-.444h.612a.435.435,0,0,1,.426.444V34.1A.435.435,0,0,1,13.371,34.54Z" transform="translate(-10.652 -21.668)"/><path class="a" d="M56.481,35.364h-.612a.5.5,0,0,1-.426-.548V23.472a.5.5,0,0,1,.426-.548h.612a.5.5,0,0,1,.426.548V34.816A.5.5,0,0,1,56.481,35.364Z" transform="translate(-38.93 -22.492)"/><path class="b" d="M7.45,43.47h2.664L7.45,46.134Z" transform="translate(-7.449 -35.969)"/><path class="c" d="M10.111,43.47h4.246l-2.664,2.664-4.246-.02Z" transform="translate(-7.447 -35.969)"/><path class="b" d="M22.434,43.47h4.246l-2.664,2.664H19.787Z" transform="translate(-15.541 -35.969)"/><path class="c" d="M34.741,43.47h4.246l-2.664,2.664H32.077Z" transform="translate(-23.603 -35.969)"/><path class="b" d="M47.292,43.349l4.091-.063-2.619,2.619H44.738Z" transform="translate(-31.908 -35.848)"/><path class="c" d="M59.057,43.29v2.619H56.438Z" transform="translate(-39.582 -35.851)"/><path class="b" d="M7.95,28.308l2.631-.012L7.95,30.927Z" transform="translate(-7.777 -26.016)"/><path class="c" d="M10.585,28.3h4.108l-2.647,2.631H7.955Z" transform="translate(-7.78 -26.018)"/><path class="b" d="M22.434,28.3h4.246l-2.664,2.664H19.787Z" transform="translate(-15.541 -26.018)"/><path class="c" d="M34.741,28.3h4.246l-2.664,2.664H32.077Z" transform="translate(-23.603 -26.018)"/><path class="b" d="M47.082,28.3h4.246l-2.774,2.631-4.136.034Z" transform="translate(-31.698 -26.018)"/><path class="c" d="M59.057,28.33v2.619H56.438Z" transform="translate(-39.582 -26.038)"/></g><g transform="translate(0.173 0.001)"><path class="d" d="M12.74,38.556V36.372" transform="translate(-11.092 -28.459)"/><path class="d" d="M14.177,50.9v2.239a.419.419,0,0,1-.419.419h-.6a.419.419,0,0,1-.419-.419V51.051" transform="translate(-11.091 -37.989)"/><path class="d" d="M16.92,36.37v2.184" transform="translate(-13.834 -28.458)"/><path class="d" d="M12.74,24.365V22.333m1.438,0v2" transform="translate(-11.092 -19.251)"/><path class="d" d="M55.1,38.75V36.369" transform="translate(-38.878 -28.457)"/><path class="d" d="M56.537,51.34v2.089a.419.419,0,0,1-.419.419h-.6a.419.419,0,0,1-.419-.419V51.34" transform="translate(-38.877 -38.278)"/><path class="d" d="M59.28,36.37v2.054" transform="translate(-41.62 -28.458)"/><path class="d" d="M55.1,24.166V22.139m1.438,0v1.994" transform="translate(-38.878 -19.123)"/><path class="d" d="M7.95,28.33h19.3v2.619H7.95Z" transform="translate(-7.95 -23.184)"/><path class="d" d="M7.95,43.29h19.3v2.619H7.95Z" transform="translate(-7.95 -32.997)"/><ellipse class="d" cx="1.581" cy="1.581" rx="1.581" ry="1.581" transform="translate(0.787 0)"/><ellipse class="d" cx="1.581" cy="1.581" rx="1.581" ry="1.581" transform="translate(15.361 0)"/></g><g transform="translate(0.961 0)"><ellipse class="e" cx="1.581" cy="1.581" rx="1.581" ry="1.581" transform="translate(0 0)"/><ellipse class="e" cx="1.581" cy="1.581" rx="1.581" ry="1.581" transform="translate(14.571 0)"/></g></g></svg>