<svg xmlns="http://www.w3.org/2000/svg" width="17" height="11.433" viewBox="0 0 17 11.433"><defs><style>.a{fill:#d0cfce;}.b{fill:#a57939;}.c{fill:#fff;}.d,.e,.f{fill:none;stroke-linecap:round;stroke-linejoin:round;}.d{stroke:#92d3f5;stroke-width:2px;}.d,.e{stroke-miterlimit:10;}.e,.f{stroke:#000;}</style></defs><g transform="translate(0.5 0.864)"><g transform="translate(0 0)"><rect class="a" width="16" height="10" transform="translate(0 -0.364)"/><rect class="b" width="5" height="4" transform="translate(5 5.636)"/><circle class="c" cx="2" cy="2" r="2" transform="translate(6 0.636)"/><rect class="d" width="0.568" height="1.42" transform="translate(3.349 7.229)"/><rect class="d" width="0.568" height="1.42" transform="translate(1.36 7.229)"/><rect class="d" width="0.568" height="1.42" transform="translate(3.349 4.388)"/><rect class="d" width="0.568" height="1.42" transform="translate(1.36 4.388)"/><rect class="d" width="0.568" height="1.42" transform="translate(3.349 1.547)"/><rect class="d" width="0.568" height="1.42" transform="translate(1.36 1.547)"/><rect class="d" width="0.568" height="1.42" transform="translate(13.859 7.229)"/><rect class="d" width="0.568" height="1.42" transform="translate(11.871 7.229)"/><rect class="d" width="0.568" height="1.42" transform="translate(13.859 4.388)"/><rect class="d" width="0.568" height="1.42" transform="translate(11.871 4.388)"/><rect class="d" width="0.568" height="1.42" transform="translate(13.859 1.547)"/><rect class="d" width="0.568" height="1.42" transform="translate(11.871 1.547)"/></g><g transform="translate(0 0)"><rect class="e" width="16" height="10" transform="translate(0 -0.364)"/><rect class="e" width="5" height="4" transform="translate(5 5.636)"/><line class="e" y1="3.693" transform="translate(7.894 6.376)"/><circle class="f" cx="2" cy="2" r="2" transform="translate(6 0.636)"/><line class="f" y1="1.136" transform="translate(7.894 2.115)"/><line class="f" y1="0.284" x2="0.568" transform="translate(7.894 2.968)"/><path class="e" d="M20.568,44.42H20V43" transform="translate(-16.651 -35.771)"/><path class="e" d="M13.568,44.42H13V43" transform="translate(-11.64 -35.771)"/><path class="e" d="M20.568,34.42H20V33" transform="translate(-16.651 -28.612)"/><path class="e" d="M13.568,34.42H13V33" transform="translate(-11.64 -28.612)"/><path class="e" d="M20.568,24.42H20V23" transform="translate(-16.651 -21.453)"/><path class="e" d="M13.568,24.42H13V23" transform="translate(-11.64 -21.453)"/><path class="e" d="M57.568,44.42H57V43" transform="translate(-43.141 -35.771)"/><path class="e" d="M50.568,44.42H50V43" transform="translate(-38.129 -35.771)"/><path class="e" d="M57.568,34.42H57V33" transform="translate(-43.141 -28.612)"/><path class="e" d="M50.568,34.42H50V33" transform="translate(-38.129 -28.612)"/><path class="e" d="M57.568,24.42H57V23" transform="translate(-43.141 -21.453)"/><path class="e" d="M50.568,24.42H50V23" transform="translate(-38.129 -21.453)"/></g></g></svg>