<svg xmlns="http://www.w3.org/2000/svg" width="17.09" height="15.489" viewBox="0 0 17.09 15.489"><defs><style>.a{fill:#b1cc33;}.b{fill:#5c9e31;}.c{fill:#9b9b9a;}.d{fill:#a57939;}.e{fill:#61b2e4;}.f{fill:#f4aa41;}.g{fill:#e27022;}.h{fill:#6a462f;}.i{fill:#fcea2b;}.j,.k{fill:none;stroke:#000;stroke-miterlimit:10;}.j{stroke-linecap:round;stroke-linejoin:round;}</style></defs><g transform="translate(0 0.5)"><g transform="translate(1.884 0)"><path class="a" d="M27.933,49.086s.577-4.037-2.885-4.037a4.742,4.742,0,0,1-2.6,1.036h.036a4.742,4.742,0,0,1-2.6-1.036c-3.462,0-2.885,4.037-2.885,4.037" transform="translate(-16.97 -34.381)"/><path class="b" d="M27.033,45.049l1.674,2.564.922-1.527" transform="translate(-24.13 -34.381)"/><path class="b" d="M38.629,45.049l-1.674,2.564-.922-1.527" transform="translate(-30.533 -34.381)"/><rect class="c" width="1.581" height="1.225" transform="translate(11.811 9.054)"/><path class="d" d="M59.806,46.941v-3.2H58.652v4.415h1.212V46.941Z" transform="translate(-46.627 -33.449)"/><rect class="e" width="1.237" height="4.03" transform="translate(1.498 10.68)"/><path class="e" d="M30.093,58.084l-7.931-.049v.282h7.931Z" transform="translate(-20.664 -43.62)"/><path class="e" d="M45.868,45.09H44.631v4.022h1.237Z" transform="translate(-36.651 -34.41)"/><path class="f" d="M27.185,10.435V8.068l2.534.409,2.534-.409v2.366" transform="translate(-24.238 -8.068)"/><rect class="g" width="5.033" height="0.767" transform="translate(2.947 1.38)"/></g><g transform="translate(3.509 2.366)"><path class="h" d="M23.216,18.787a5.138,5.138,0,0,0-.049,1.642l-.137-.151a3.114,3.114,0,0,1,.737-4.007h5.254a3.114,3.114,0,0,1,.737,4.007l-1.633-3.642a1.648,1.648,0,0,1-1.631,1.008s.307-1.373-.082-1.373a10.287,10.287,0,0,1-3.194,2.517" transform="translate(-22.604 -16.27)"/></g><g transform="translate(4.028 2.366)"><path class="i" d="M29.405,16.635a1.648,1.648,0,0,1-1.631,1.008s.307-1.373-.082-1.373A10.291,10.291,0,0,1,24.5,18.786c0,.021-.009.042-.013.064-.018.1-.032.2-.044.3-.006.048-.013.1-.018.144-.014.151-.022.3-.022.46,0,.13.006.257.016.384,0,.04.008.08.012.119.2,2.02,1.574,3.585,3.244,3.585,1.729,0,3.141-1.678,3.259-3.8Z" transform="translate(-24.403 -16.27)"/></g><g transform="translate(0 0)"><path d="M39.124,25.572A.577.577,0,1,1,38.547,25a.577.577,0,0,1,.577.577" transform="translate(-30.028 -20.112)"/><path d="M31.124,25.572A.577.577,0,1,1,30.547,25a.577.577,0,0,1,.577.577" transform="translate(-24.336 -20.112)"/><path d="M33.124,35.039a2.208,2.208,0,0,1-.994-.247.289.289,0,1,1,.258-.516,1.551,1.551,0,0,0,1.473,0,.289.289,0,0,1,.258.516A2.208,2.208,0,0,1,33.124,35.039Z" transform="translate(-25.759 -26.693)"/><path class="j" d="M27.033,45.049l1.674,2.564.922-1.527" transform="translate(-22.246 -34.381)"/><path class="j" d="M38.629,45.049l-1.674,2.564-.922-1.527" transform="translate(-28.65 -34.381)"/><path class="j" d="M53.291,23.8s-.686,4.447,2.044,4.517V23.8" transform="translate(-40.875 -19.258)"/><path class="j" d="M62.609,23.8s.686,4.447-2.044,4.517V23.8" transform="translate(-46.105 -19.258)"/><rect class="j" width="1.581" height="1.225" transform="translate(13.695 9.054)"/><path class="j" d="M59.806,47.873V43.739H58.652V47.87" transform="translate(-44.744 -33.449)"/><path class="j" d="M27.933,48.8s.577-3.75-2.885-3.75a4.742,4.742,0,0,1-2.6,1.036h.036a4.742,4.742,0,0,1-2.6-1.036c-3.462,0-2.885,3.75-2.885,3.75" transform="translate(-15.087 -34.381)"/><line class="j" y2="3.472" transform="translate(3.381 10.943)"/><line class="j" y2="3.48" transform="translate(11.312 10.943)"/><path class="j" d="M27.3,45.29v3.673l5.034,0V45.284" transform="translate(-22.437 -34.548)"/><path class="j" d="M10.441,24.768" transform="translate(-10.441 -19.951)"/><path class="k" d="M23.216,18.787a5.138,5.138,0,0,0-.049,1.642l-.137-.151a3.114,3.114,0,0,1,.737-4.007h5.254a3.114,3.114,0,0,1,.737,4.007l-1.633-3.642a1.648,1.648,0,0,1-1.631,1.008s.307-1.373-.082-1.373a10.287,10.287,0,0,1-3.194,2.517" transform="translate(-19.095 -13.904)"/><path class="k" d="M24.724,24.994a5.08,5.08,0,0,0-.093.97c0,2.258,1.464,4.089,3.271,4.089,1.722,0,3.134-1.664,3.262-3.776" transform="translate(-20.538 -20.111)"/><path class="j" d="M30.763,16.27a3.114,3.114,0,0,1,.737,4.007l-1.633-3.642a1.648,1.648,0,0,1-1.631,1.008s.307-1.373-.082-1.373a10.288,10.288,0,0,1-3.194,2.517" transform="translate(-20.771 -13.904)"/><path class="j" d="M23.259,20.277A3.114,3.114,0,0,1,24,16.27" transform="translate(-19.258 -13.904)"/><path class="j" d="M27.185,10.435V8.068l2.534.409,2.534-.409v2.366" transform="translate(-22.355 -8.068)"/><line class="j" x2="5.069" transform="translate(4.83 1.355)"/><line class="j" x2="9.396" transform="translate(2.617 2.366)"/></g></g></svg>