<svg xmlns="http://www.w3.org/2000/svg" width="15" height="17.307" viewBox="0 0 15 17.307"><defs><style>.a{fill:#9b9b9a;}.b{fill:#d0cfce;}.c{fill:#fff;}.d{fill:#92d3f5;}.e{fill:#fcea2b;}.f,.g,.h{fill:none;stroke-miterlimit:10;}.f{stroke:#f4aa41;}.f,.g{stroke-linecap:round;stroke-linejoin:round;}.g,.h{stroke:#000;}</style></defs><g transform="translate(0.5 0.5)"><g transform="translate(0 0)"><rect class="a" width="13" height="12" transform="translate(1 4.188)"/><rect class="b" width="14" height="1" transform="translate(0 3.188)"/><path class="c" d="M19.5,26h.7V37.551h-.7" transform="translate(-17.858 -21.244)"/><path class="c" d="M24.933,26h.692V37.551h-.692" transform="translate(-21.445 -21.244)"/><path class="c" d="M45.714,37.551h-.7V26h.7" transform="translate(-34.706 -21.244)"/><path class="c" d="M51.167,37.551h-.686V26h.686" transform="translate(-38.314 -21.244)"/><path class="b" d="M24.775,12,19,15.4H30.551Z" transform="translate(-17.528 -12)"/><rect class="d" width="3.058" height="3.397" transform="translate(5.719 12.91)"/><ellipse class="e" cx="2" cy="1.5" rx="2" ry="1.5" transform="translate(5 6.188)"/><path class="f" d="M35.578,33.822a.346.346,0,0,0-.349-.226h0a.291.291,0,1,0,0,.567h-.007a.291.291,0,1,1,0,.567h0a.346.346,0,0,1-.349-.226" transform="translate(-28.008 -26.259)"/><line class="f" y1="0.27" transform="translate(7.218 7.066)"/><line class="f" y1="0.27" transform="translate(7.218 8.472)"/></g><g transform="translate(0 0)"><rect class="g" width="13" height="12" transform="translate(1 4.188)"/><rect class="g" width="14" height="1" transform="translate(0 3.188)"/><path class="g" d="M19.5,26h1.019V37.551H19.5" transform="translate(-17.858 -21.244)"/><path class="g" d="M24.933,26h1.019V37.551H24.933" transform="translate(-21.445 -21.244)"/><path class="g" d="M45.086,37.551H44.067V26h1.019" transform="translate(-34.078 -21.244)"/><path class="g" d="M50.519,37.551H49.5V26h1.019" transform="translate(-37.666 -21.244)"/><path class="g" d="M24.775,12,19,15.312H30.551Z" transform="translate(-17.528 -12)"/><rect class="g" width="3.058" height="3.397" transform="translate(5.719 12.91)"/><line class="g" y1="4" transform="translate(7 12.188)"/><ellipse class="h" cx="2" cy="1.5" rx="2" ry="1.5" transform="translate(5 6.188)"/><path class="g" d="M35.578,33.822a.346.346,0,0,0-.349-.226h0a.291.291,0,1,0,0,.567h-.007a.291.291,0,1,1,0,.567h0a.346.346,0,0,1-.349-.226" transform="translate(-28.008 -26.259)"/><line class="g" y1="0.27" transform="translate(7.218 7.066)"/><line class="g" y1="0.27" transform="translate(7.218 8.472)"/></g></g></svg>