<svg xmlns="http://www.w3.org/2000/svg" width="16.729" height="18.173" viewBox="0 0 16.729 18.173"><defs><style>.a{fill:#92d3f5;}.b{fill:#61b2e4;}.c{fill:#a57939;}.d{fill:#6a462f;}.e{fill:none;stroke:#000;stroke-linecap:round;stroke-linejoin:round;stroke-miterlimit:10;}</style></defs><g transform="translate(0.5 0.583)"><g transform="translate(0 7.775)"><path class="a" d="M44.356,42.059l-.43.214A.231.231,0,0,1,43.595,42a2.756,2.756,0,0,1,1.355-1.234A5.8,5.8,0,0,1,43.5,36.954C43.413,33.774,45.432,33,45.432,33A3.937,3.937,0,0,1,47.9,37.011a5.958,5.958,0,0,1-1.934,3.757,2.59,2.59,0,0,1,1.312,1.247.232.232,0,0,1-.333.265l-.441-.22A2.423,2.423,0,0,0,44.356,42.059Z" transform="translate(-33.722 -33)"/><path class="a" d="M39.692,46.08c-.136,0-1.229.024-1.4.049V45.11a1.72,1.72,0,0,1,1.4-1.236" transform="translate(-29.84 -41.102)"/><path class="a" d="M58.592,43.03a1.9,1.9,0,0,1,1.714,1.3l-.746,2.736a.813.813,0,0,0-.51-.316,3.155,3.155,0,0,0-.983-.131,6.45,6.45,0,0,0,.525-3.592" transform="translate(-44.577 -40.473)"/><path class="b" d="M58.592,43.03a1.9,1.9,0,0,1,1.714,1.3l-.746,2.736a.813.813,0,0,0-.51-.316,3.155,3.155,0,0,0-.983-.131,6.45,6.45,0,0,0,.525-3.592" transform="translate(-44.577 -40.473)"/><path class="b" d="M50.905,41.808s1.711.457,1.888.457a2.116,2.116,0,0,0-1.187-1.49s1.83-2.342,1.819-4.041A4.067,4.067,0,0,0,50.951,33c1.005,1.213,1.928,1.692,1.609,3.925A13.693,13.693,0,0,1,50.905,41.808Z" transform="translate(-39.241 -33)"/><path class="c" d="M7.705,48.094,6.612,52.551a3.159,3.159,0,0,1-1.462-.359l1.093-4.457A3.443,3.443,0,0,0,7.705,48.094Z" transform="translate(-5.15 -43.979)"/><path class="d" d="M9.857,48.916a2.888,2.888,0,0,0,.575.058L9.339,53.431a4,4,0,0,1-.529-.061Z" transform="translate(-7.877 -44.858)"/></g><g transform="translate(0 0)"><circle cx="0.45" cy="0.45" r="0.45" transform="translate(11.98 9.583)"/><path class="e" d="M60.695,46.521a.923.923,0,0,1,.513.377l.633-2.563a1.9,1.9,0,0,0-1.714-1.3" transform="translate(-46.111 -32.698)"/><path class="e" d="M44.356,42.059l-.43.214A.231.231,0,0,1,43.595,42a2.756,2.756,0,0,1,1.355-1.234A5.8,5.8,0,0,1,43.5,36.954C43.413,33.774,45.432,33,45.432,33A3.937,3.937,0,0,1,47.9,37.011a5.958,5.958,0,0,1-1.934,3.757,2.59,2.59,0,0,1,1.312,1.247.232.232,0,0,1-.333.265l-.441-.22A2.423,2.423,0,0,0,44.356,42.059Z" transform="translate(-33.722 -25.225)"/><path class="e" d="M38.753,45.846c-.136.007-.29.021-.465.044v-.911a1.635,1.635,0,0,1,1.4-1.1" transform="translate(-29.84 -33.327)"/><path class="e" d="M23.026,10.275l.028-6.41s-.946-2.251-4.219-.972c-3.029,1.183-4.644,7.1-5.41,10.326" transform="translate(-11.317 -2.5)"/><path class="e" d="M7.705,48.094,6.612,52.551a3.159,3.159,0,0,1-1.462-.359l1.093-4.457A3.443,3.443,0,0,0,7.705,48.094Z" transform="translate(-5.15 -36.203)"/><path class="e" d="M6.053,61.529a3.443,3.443,0,0,0,1.462.359" transform="translate(-5.823 -46.481)"/></g></g></svg>