<svg xmlns="http://www.w3.org/2000/svg" width="13.177" height="16.725" viewBox="0 0 13.177 16.725"><defs><style>.a{fill:#92d3f5;}.b{fill:#61b2e4;}.c{fill:#3f3f3f;}.d{fill:#fcea2b;}.e{fill:#f4aa41;}.f{fill:none;stroke:#000;stroke-linecap:round;stroke-linejoin:round;stroke-miterlimit:10;}</style></defs><g transform="translate(0.39)"><g transform="translate(0 0.318)"><path class="a" d="M16.475,49.105s-.574-4.429,3.25-4.429a5.238,5.238,0,0,0,2.868,1.145h-.04a5.762,5.762,0,0,0,3.027-1.177c3.685-.011,3.062,4.429,3.136,4.461" transform="translate(-16.445 -33.083)"/><path class="b" d="M39.025,43.644a6.08,6.08,0,0,1-2.912,1.239c4.162.131,4.162,2.266,4.405,3.541h1.629S42.849,43.644,39.025,43.644Z" transform="translate(-29.846 -32.402)"/><path class="c" d="M33.546,53.214l.586,1.015.5.613a.063.063,0,0,1-.049.1H32.506a.063.063,0,0,1-.049-.1l.5-.613Z" transform="translate(-27.345 -38.922)"/><path class="a" d="M38.648,44.795l-1.176,2.791-.822-.848v0l-.813-.835h.038A5.241,5.241,0,0,0,38.648,44.795Z" transform="translate(-29.658 -33.186)"/><path class="c" d="M34.9,49.1v0c-.035.5-.21,1.013-.793,1.013-.558,0-.742-.481-.787-.959l-.051-.048.819-.844Z" transform="translate(-27.907 -35.55)"/><path class="a" d="M29.788,45.819l-.819.844-.816.841-1.195-2.83A5.358,5.358,0,0,0,29.788,45.819Z" transform="translate(-23.608 -33.104)"/><path class="a" d="M30.4,10.87c.4.105.134.8-.127,1.118l-.714.867-.022.013a2.636,2.636,0,0,0-.609-.631l-.21-.172a2.425,2.425,0,0,0,.417-.389H22.418a2.931,2.931,0,0,0,.468.379l-.242.182a2.62,2.62,0,0,0-.558.561l-.041-.032-.644-.778c-.258-.315-.523-1.013-.124-1.118,1.829-.488,1.9-2.5,4.56-2.5S28.569,10.382,30.4,10.87Zm-4.55.105c.676,0,.784-1.233.784-1.233a1.326,1.326,0,0,0-1.593-.019S25.172,10.975,25.847,10.975Z" transform="translate(-19.599 -8.365)"/><path class="c" d="M28.056,19.893a5.286,5.286,0,0,1-2.294-.758,2.931,2.931,0,0,1-.468-.379h6.714a2.425,2.425,0,0,1-.417.389,3.705,3.705,0,0,1-1.182.57A6.093,6.093,0,0,1,28.056,19.893Z" transform="translate(-22.474 -15.444)"/><path class="b" d="M41.1,10.539s.3,2.619-.826,2.619l1.7.107.554.949a2.125,2.125,0,0,0,1.15-1.668S41.37,11.2,41.1,10.539Z" transform="translate(-32.681 -9.846)"/><path class="d" d="M34.367,13.33c-.676,0-.808-1.254-.808-1.254a1.33,1.33,0,0,1,1.593.018S35.043,13.329,34.367,13.33Z" transform="translate(-28.106 -10.72)"/></g><g transform="translate(2.076 4.008)"><path class="e" d="M23.518,23.055c-.029.064-.041.1-.041.1a1.871,1.871,0,0,1-.105-2.466,2.62,2.62,0,0,1,.558-.561l.242-.182a5.286,5.286,0,0,0,2.294.758A3.945,3.945,0,0,0,23.518,23.055Z" transform="translate(-22.959 -19.945)"/><path class="e" d="M43.22,23.13a.387.387,0,0,1-.032.045s-.86-2.537-1.842-2.616l0-.013a3.705,3.705,0,0,0,1.182-.57l.21.172a2.636,2.636,0,0,1,.609.631A1.848,1.848,0,0,1,43.22,23.13Z" transform="translate(-35.485 -19.965)"/></g><g transform="translate(2.635 4.588)"><path class="d" d="M31.858,24.394a.387.387,0,0,0,.032-.045c-.214,2.24-1.74,3.977-3.588,3.977-1.864,0-3.394-1.765-3.588-4.031a3.945,3.945,0,0,1,2.948-2.352,6.093,6.093,0,0,0,2.352-.178l0,.013C31,21.857,31.858,24.394,31.858,24.394Zm-1.644-1.02a.637.637,0,1,0-.637.637A.637.637,0,0,0,30.213,23.374Zm-2.549,0a.637.637,0,1,0-.637.637A.637.637,0,0,0,27.664,23.374Z" transform="translate(-24.713 -21.765)"/></g><g transform="translate(0.124 0)"><path d="M46.636,53.633A.637.637,0,1,1,46,53a.638.638,0,0,1,.637.637" transform="translate(-36.27 -38.456)"/><path class="f" d="M51.335,53.552" transform="translate(-40.341 -38.835)"/><path class="f" d="M45.838,48.237" transform="translate(-36.595 -35.214)"/><path class="f" d="M16.873,48.818s-.637-4.143,3.187-4.143a5.358,5.358,0,0,0,2.83,1.144h.038A5.241,5.241,0,0,0,25.7,44.713l.057-.038c3.824,0,3.187,4.143,3.187,4.143" transform="translate(-16.833 -32.787)"/><path class="f" d="M26.958,44.675l1.195,2.83.816-.841.819-.844" transform="translate(-23.731 -32.787)"/><line class="f" x1="0.813" y1="0.835" transform="translate(6.056 13.032)"/><path class="f" d="M40.4,44.675l-.016.038L39.21,47.5l-.822-.848" transform="translate(-31.519 -32.787)"/><path class="f" d="M33.428,50.942c.045.478.229.959.787.959.583,0,.758-.516.793-1.013v0" transform="translate(-28.14 -37.018)"/><line class="f" x1="0.768" y2="1.147" transform="translate(5.036 14.884)"/><line class="f" x2="0.771" y2="1.147" transform="translate(6.346 14.884)"/><path d="M22.3,55.766H20.437a.319.319,0,1,1,0-.637H22.3a.319.319,0,1,1,0,.637Z" transform="translate(-19.071 -39.909)"/><path d="M38.611,24.815a.637.637,0,1,1-.637.637A.637.637,0,0,1,38.611,24.815Z" transform="translate(-31.237 -19.255)"/><path d="M30.611,24.815a.637.637,0,1,1-.637.637A.637.637,0,0,1,30.611,24.815Z" transform="translate(-25.786 -19.255)"/><path d="M33.3,34.945a2.438,2.438,0,0,1-1.1-.273.319.319,0,1,1,.285-.57,1.714,1.714,0,0,0,1.627,0,.319.319,0,1,1,.285.57A2.439,2.439,0,0,1,33.3,34.945Z" transform="translate(-27.182 -25.56)"/><path d="M27.651,33.014c-2.045,0-3.728-1.885-3.915-4.385l.635-.048c.16,2.129,1.6,3.8,3.28,3.8s3.082-1.6,3.273-3.717c.014-.159.021-.321.021-.481h.637c0,.179-.008.36-.024.538C31.339,31.167,29.659,33.014,27.651,33.014Z" transform="translate(-21.536 -21.548)"/><path class="f" d="M42.263,17.078" transform="translate(-34.159 -13.984)"/><path class="f" d="M29.639,17.078" transform="translate(-25.558 -13.984)"/><path class="f" d="M46.4,16.264" transform="translate(-36.981 -13.429)"/><path d="M33.686,12.963c-.935,0-1.108-1.381-1.124-1.539a.319.319,0,0,1,.121-.285,1.635,1.635,0,0,1,2.013.043.319.319,0,0,1,.093.255c-.014.156-.162,1.524-1.1,1.526Zm0-.637v0c.24,0,.386-.465.443-.771a1.086,1.086,0,0,0-.9-.006c.07.341.233.778.46.778Z" transform="translate(-27.548 -9.716)"/><path d="M22.839,22.79a.318.318,0,0,1-.25-.121,2.321,2.321,0,0,1-.566-1.814,2.749,2.749,0,0,1,1.085-1.673l.231-.175a.319.319,0,0,1,.385.508l-.242.184a2.132,2.132,0,0,0-.829,1.255,1.482,1.482,0,0,0,.149.868,4.145,4.145,0,0,1,3.034-2.1.319.319,0,0,1,.089.631,3.605,3.605,0,0,0-2.785,2.223.318.318,0,0,1-.3.21Z" transform="translate(-20.354 -15.254)"/><path d="M28.149,19.574A5.436,5.436,0,0,1,24.43,18.3a.319.319,0,0,1,.226-.544h6.714a.319.319,0,0,1,.243.525,4.383,4.383,0,0,1-3.188,1.286Q28.286,19.574,28.149,19.574Zm-2.493-1.18a5.733,5.733,0,0,0,2.743.537,4.57,4.57,0,0,0,2.083-.537Z" transform="translate(-21.946 -14.447)"/><path d="M28.917,12.5a.319.319,0,0,1-.245-.522l.716-.867a1.157,1.157,0,0,0,.258-.619,3.9,3.9,0,0,1-1.8-1.224,3.416,3.416,0,0,0-5.3,0,3.9,3.9,0,0,1-1.8,1.224,1.162,1.162,0,0,0,.258.619l.641.776a.319.319,0,0,1-.491.406l-.641-.776a1.553,1.553,0,0,1-.368-1.248.566.566,0,0,1,.405-.385A3.31,3.31,0,0,0,22.095,8.82a4.047,4.047,0,0,1,6.21,0,3.311,3.311,0,0,0,1.538,1.062.565.565,0,0,1,.405.385,1.551,1.551,0,0,1-.368,1.247l-.716.867A.318.318,0,0,1,28.917,12.5Z" transform="translate(-19.071 -7.368)"/><path d="M42.557,22.814a.319.319,0,0,1-.3-.216c-.32-.943-1.039-2.359-1.566-2.4a.318.318,0,0,1-.291-.344.314.314,0,0,1,.344-.291c.852.071,1.532,1.38,1.883,2.219a1.454,1.454,0,0,0,.118-.8,2.125,2.125,0,0,0-.818-1.248l-.231-.188a.319.319,0,0,1,.4-.493l.21.173a2.732,2.732,0,0,1,1.064,1.657,2.322,2.322,0,0,1-.566,1.814A.319.319,0,0,1,42.557,22.814Z" transform="translate(-32.889 -15.277)"/></g></g></svg>