<svg xmlns="http://www.w3.org/2000/svg" width="14.685" height="18.562" viewBox="0 0 14.685 18.562"><defs><style>.a{fill:#fff;}.b{fill:#9b9b9a;}.c{fill:#d0cfce;}.d{fill:#a57939;}.e{fill:#fcea2b;}.f,.g{fill:none;stroke:#000;stroke-linejoin:round;}.f{stroke-linecap:round;}</style></defs><g transform="translate(0.453 0.5)"><g transform="translate(0 12.218)"><path class="a" d="M16.557,49.206s-.749-5.313,3.53-5.313a6.1,6.1,0,0,0,3.245,1.352l.1.036a6.251,6.251,0,0,0,3.245-1.424c4.124-.012,3.391,5.313,3.473,5.349" transform="translate(-16.507 -43.853)"/><circle class="b" cx="1.07" cy="1.07" r="1.07" transform="translate(1.821 2.83)"/><path class="c" d="M39.069,43.845A7.154,7.154,0,0,1,35.74,45.3c4.658.147,4.622,2.465,4.894,3.891h1.823S43.389,43.844,39.069,43.845Z" transform="translate(-28.882 -43.845)"/></g><g transform="translate(1.959 0)"><path class="d" d="M23.426,19.209C22,19.209,22,17.069,22,14.573a4.663,4.663,0,0,1,4.992-4.992,4.663,4.663,0,0,1,4.992,4.992c0,2.5,0,4.636-1.426,4.636" transform="translate(-22 -9.581)"/></g><g transform="translate(3.006 2.14)"><path class="e" d="M24.937,20.216c0,3.209,1.76,4.992,3.922,4.992,2.117,0,3.945-1.783,3.945-4.992a4.328,4.328,0,0,0-.357-1.783c-1.07-1.07-2.5-2.853-2.5-2.853-1.426,1.07-2.5,2.14-4.636,2.5C25.316,18.077,24.937,18.433,24.937,20.216Z" transform="translate(-24.937 -15.581)"/></g><g transform="translate(0.093 0)"><path d="M39.379,25.76a.713.713,0,1,1-.713-.713.713.713,0,0,1,.713.713" transform="translate(-30.399 -19.532)"/><path d="M31.379,25.76a.713.713,0,1,1-.713-.713.713.713,0,0,1,.713.713" transform="translate(-25.251 -19.532)"/><path d="M33.379,35.278a2.729,2.729,0,0,1-1.229-.306.357.357,0,1,1,.319-.638,1.918,1.918,0,0,0,1.821,0,.357.357,0,0,1,.319.638A2.729,2.729,0,0,1,33.379,35.278Z" transform="translate(-26.538 -25.483)"/><circle class="f" cx="1.07" cy="1.07" r="1.07" transform="translate(1.728 15.048)"/><path class="f" d="M24.461,45.861a3.808,3.808,0,0,1,.813-3.281" transform="translate(-21.663 -30.813)"/><path class="f" d="M46.885,47.9" transform="translate(-36.146 -34.235)"/><path class="f" d="M49.916,45.979c2.213,1.112,1.73,4.251,1.73,4.251" transform="translate(-38.095 -33)"/><path class="f" d="M28.594,45.99a4.962,4.962,0,0,0,2.6.892h-.045a4.766,4.766,0,0,0,2.446-.8" transform="translate(-24.377 -33.007)"/><path class="f" d="M16.812,50.063s-.512-3.325,1.931-4.343" transform="translate(-16.768 -32.833)"/><path class="f" d="M43.814,42.58a5,5,0,0,1,.866,1.9c-1.221.04-1.18,1.385-1.18,1.385s-.278,1.984.59,1.937l-.059.576.1-1.057" transform="translate(-33.94 -30.813)"/><path class="f" d="M47.291,47.9c1.221.04,1.18,1.385,1.18,1.385s.278,1.984-.59,1.937l.059.576-.1-1.057" transform="translate(-36.407 -34.235)"/><line class="f" x2="2.017" y2="3.97" transform="translate(4.702 13.26)"/><line class="f" x1="2.017" y2="3.888" transform="translate(6.719 13.342)"/><path class="f" d="M23.426,19.209C22,19.209,22,17.069,22,14.573a4.663,4.663,0,0,1,4.992-4.992,4.663,4.663,0,0,1,4.992,4.992c0,2.5,0,4.636-1.426,4.636" transform="translate(-20.134 -9.581)"/><path class="g" d="M24.937,20.216c0,3.209,1.76,4.992,3.922,4.992,2.117,0,3.945-1.783,3.945-4.992a4.328,4.328,0,0,0-.357-1.783c-1.07-1.07-2.5-2.853-2.5-2.853-1.426,1.07-2.5,2.14-4.636,2.5C25.316,18.077,24.937,18.433,24.937,20.216Z" transform="translate(-22.024 -13.441)"/></g></g></svg>