<svg xmlns="http://www.w3.org/2000/svg" width="17.983" height="15.784" viewBox="0 0 17.983 15.784"><defs><style>.a,.b{fill:#f1b31c;}.a,.f{stroke:#f1b31c;}.a,.d,.e,.f,.i{stroke-miterlimit:10;}.c{fill:#fff;}.d,.e,.f,.g,.h,.i,.j{fill:none;}.d,.e{stroke:#6a462f;}.d{stroke-width:3px;}.e,.f{stroke-width:2.356px;}.g,.h,.i,.j{stroke:#000;}.g{stroke-linecap:round;}.g,.h,.j{stroke-linejoin:round;}.i,.j{stroke-linecap:square;}</style></defs><g transform="translate(0.303 0.303)"><g transform="translate(0 0)"><path class="a" d="M25.691,16.8A6.978,6.978,0,0,0,18.7,23.791H32.642A6.945,6.945,0,0,0,25.691,16.8Z" transform="translate(-17.041 -14.944)"/><path class="b" d="M36.471,13.482a.7.7,0,0,0,.671-.711.692.692,0,0,0-.671-.671.7.7,0,0,0-.671.711.666.666,0,0,0,.671.671Z" transform="translate(-27.387 -12.1)"/><path class="b" d="M35.67,39.482a.7.7,0,0,0,.671-.711.692.692,0,0,0-.671-.671.7.7,0,0,0-.671.711.643.643,0,0,0,.671.671Z" transform="translate(-26.902 -27.831)"/><path class="c" d="M39.892,21.185c.276-.039.513.2.75.316a1.585,1.585,0,0,1,.632.513c.395.632,1.422.039,1.027-.592a3.084,3.084,0,0,0-1.066-.948A2.409,2.409,0,0,0,39.892,20a.592.592,0,1,0,0,1.185Z" transform="translate(-29.505 -16.88)"/><line class="d" x2="16.588" transform="translate(0 13.981)"/><line class="e" x2="14.455" transform="translate(1.343 12.48)"/><line class="f" x2="16.272" transform="translate(0.671 9.439)"/></g><g transform="translate(0.197 0.197)"><path class="g" d="M19.1,22.591a6.971,6.971,0,1,1,13.942-.039v.039" transform="translate(-17.481 -14.415)"/><path class="h" d="M16.27,34.3h15.4a.692.692,0,0,1,.671.671v.039a.692.692,0,0,1-.671.671H16.27a.692.692,0,0,1-.671-.671V34.97a.643.643,0,0,1,.671-.671Z" transform="translate(-15.362 -25.728)"/><rect class="i" width="1.382" height="0.948" transform="translate(7.899 10.19)"/><rect class="j" width="14.89" height="1.382" transform="translate(0.948 11.572)"/><rect class="j" width="16.746" height="1.382" transform="translate(0 12.994)"/><path class="g" d="M35,13.548a.928.928,0,0,1,1.856-.039h0" transform="translate(-27.101 -12.599)"/></g></g></svg>