<svg xmlns="http://www.w3.org/2000/svg" width="18.381" height="18.979" viewBox="0 0 18.381 18.979"><defs><style>.a{fill:#3f3f3f;}.b{fill:#fff;}.c{fill:#a57939;}.d{fill:#f1b31c;}.e{fill:#6a462f;}.f{fill:#fcea2b;}.g{fill:none;stroke:#000;stroke-linecap:round;stroke-linejoin:round;stroke-miterlimit:10;}</style></defs><g transform="translate(0 0.459)"><g transform="translate(0.366 9.295)"><path class="a" d="M16.865,49.187s-.772-5.286,3.5-5.286A5.724,5.724,0,0,0,23.5,45.216h-.045A6.631,6.631,0,0,0,26.8,43.759c4.394,0,3.6,5.392,3.683,5.428" transform="translate(-16.81 -41.128)"/><path class="b" d="M33.213,44.608l-1.384,2.127-.924,1.6a1.118,1.118,0,0,1-1.937,0l-.926-1.6-1.231-2.13Q30.092,47.435,33.213,44.608Z" transform="translate(-23.249 -41.674)"/><path class="c" d="M60.145,41.061a1.088,1.088,0,0,1,.509,1.457l-.581,1.207a1.1,1.1,0,0,1-1.46.509l-.73-.62.128-.153,1.215-2.511.014-.071Z" transform="translate(-43.255 -39.274)"/><path class="d" d="M55.905,39.2l-.014.071-1.215,2.511-.128.153-.189-.157-.007-.007-1.3-.627h-.007l-.342-.075.046-.217,1.215-2.511.061-.071.3.246,1.3.627Z" transform="translate(-39.919 -37.594)"/><path class="c" d="M51.258,46.967l.007.007L51.244,47l-1.959,4.053a.752.752,0,0,1-.865.417.72.72,0,0,1-.449-1.008l1.973-4.089.007-.032h.007Z" transform="translate(-36.826 -42.79)"/><path class="c" d="M50.6,36.482l.687.566-.061.071L50.008,39.63l-.046.217-.9-.192a1.092,1.092,0,0,1-.509-1.46l.584-1.2A1.088,1.088,0,0,1,50.6,36.482Z" transform="translate(-37.178 -36.372)"/></g><g transform="translate(2.32 0)"><path class="e" d="M29.631,11.181c-1.952-1.407-4.89-1-5.7.033a1.237,1.237,0,0,0-.144,1.169l.015.041-.263-.486c-2.314,2.454-.743,5.6-.483,4.956.953-.892,1.25-3.036,1.293-3.39.658.767,2.2,1.432,6.426.983l.542,2.407S34.6,14.459,29.631,11.181Z" transform="translate(-22.296 -10.276)"/></g><g transform="translate(3.115 3.228)"><path class="f" d="M32.347,20.91a5.74,5.74,0,0,0-.206-.582c-4.173.434-5.7-.227-6.353-.99a6.722,6.722,0,0,1-1.259,3.355c.009,2.778,1.813,5.027,4.038,5.027s4.038-2.26,4.038-5.048a6.294,6.294,0,0,0-.072-.936Z" transform="translate(-24.529 -19.339)"/></g><g transform="translate(0 0.042)"><path d="M39.37,25.844a.712.712,0,1,1-.712-.712.713.713,0,0,1,.712.712" transform="translate(-30.051 -19.883)"/><path d="M31.37,25.844a.712.712,0,1,1-.712-.712.713.713,0,0,1,.712.712" transform="translate(-24.901 -19.883)"/><path d="M33.369,35.362a2.725,2.725,0,0,1-1.228-.306.356.356,0,1,1,.319-.637,1.915,1.915,0,0,0,1.818,0,.356.356,0,1,1,.319.637A2.725,2.725,0,0,1,33.369,35.362Z" transform="translate(-26.188 -25.838)"/><path d="M16.183,49.3a.356.356,0,0,1-.351-.3,5.283,5.283,0,0,1,.919-3.838,3.71,3.71,0,0,1,2.908-1.2.355.355,0,0,1,.362.111,5.428,5.428,0,0,0,2.907,1.168,5.561,5.561,0,0,0,2.986-1.219.356.356,0,0,1,.5.479c-.589.987-2.576,4.226-3.433,4.474-.7.2-1.852-1.245-3.441-4.3a2.975,2.975,0,0,0-2.249.948,4.639,4.639,0,0,0-.758,3.269.355.355,0,0,1-.353.409ZM20.7,45.32a10.367,10.367,0,0,0,2.111,2.96,13.085,13.085,0,0,0,2.219-2.9,4.587,4.587,0,0,1-2.067.572h-.076A4.7,4.7,0,0,1,20.7,45.32Z" transform="translate(-15.782 -31.999)"/><path class="g" d="M51.244,47.057,49.285,51.11a.752.752,0,0,1-.865.417.72.72,0,0,1-.449-1.008l1.973-4.089" transform="translate(-36.459 -33.595)"/><path class="g" d="M51.283,37.048l-.687-.566a1.088,1.088,0,0,0-1.457.509l-.584,1.2a1.092,1.092,0,0,0,.509,1.46l.9.192.342.075h.007l1.3.627.007.007.189.157.73.62A1.1,1.1,0,0,0,54,40.823l.581-1.207a1.088,1.088,0,0,0-.509-1.457l-.9-.182-.285-.057-1.3-.627Z" transform="translate(-36.812 -27.12)"/><line class="g" x1="1.215" y2="2.511" transform="translate(15.123 10.929)"/><line class="g" y1="2.511" x2="1.215" transform="translate(13.196 9.999)"/><path class="g" d="M27.308,58.845" transform="translate(-23.203 -41.589)"/><path d="M31.381,50.085a.356.356,0,0,1-.285-.569l1.339-1.8a.356.356,0,0,1,.576.007l1.2,1.7a.356.356,0,1,1-.581.413l-.92-1.3-1.047,1.4A.355.355,0,0,1,31.381,50.085Z" transform="translate(-25.596 -34.333)"/><path class="g" d="M24.524,24.641v.046c.021,2.767,1.82,5,4.039,5s4.007-2.219,4.039-4.972v-.075a6.229,6.229,0,0,0-.114-1.2,6.112,6.112,0,0,0-.317-1.079" transform="translate(-21.41 -18.102)"/><path class="g" d="M33.859,17.012a2.689,2.689,0,0,0,.994-2.65c-.21-.873-.94-1.916-2.678-3.063-1.952-1.407-4.89-1-5.7.032a1.214,1.214,0,0,0-.232.723,1.239,1.239,0,0,0,.085.449,2.89,2.89,0,0,0,.605,1.033c.737.769,2.351,1.475,6.343,1.118.175-.014.353-.032.538-.05" transform="translate(-22.518 -10.395)"/><path class="g" d="M23.541,15.065c-2.315,2.454-.744,5.6-.484,4.954l.032-.032c1.015-.99,1.268-3.412,1.268-3.412" transform="translate(-19.976 -13.402)"/></g></g></svg>