<svg xmlns="http://www.w3.org/2000/svg" width="23" height="14.392" viewBox="0 0 23 14.392"><defs><style>.a{fill:#d0cfce;}.b{fill:#92d3f5;}.c,.d{fill:none;stroke-linecap:round;stroke-linejoin:round;stroke-miterlimit:10;}.c{stroke:#92d3f5;stroke-width:2px;}.d{stroke:#000;}</style></defs><g transform="translate(0.5 0.158)"><g transform="translate(0 0)"><rect class="a" width="22" height="13" transform="translate(0 0.342)"/><rect class="b" width="4" height="4" transform="translate(9 9.342)"/><rect class="c" width="0.808" height="2.019" transform="translate(5.423 9.696)"/><rect class="c" width="0.808" height="2.019" transform="translate(2.193 9.696)"/><rect class="c" width="0.808" height="2.019" transform="translate(5.423 5.659)"/><rect class="c" width="0.808" height="2.019" transform="translate(2.193 5.659)"/><rect class="c" width="0.808" height="2.019" transform="translate(5.423 1.621)"/><rect class="c" width="0.808" height="2.019" transform="translate(2.193 1.621)"/><rect class="c" width="0.808" height="2.019" transform="translate(12.287 5.659)"/><rect class="c" width="0.808" height="2.019" transform="translate(9.057 5.659)"/><rect class="c" width="0.808" height="2.019" transform="translate(12.287 1.621)"/><rect class="c" width="0.808" height="2.019" transform="translate(9.057 1.621)"/><rect class="c" width="0.808" height="2.019" transform="translate(19.151 9.696)"/><rect class="c" width="0.808" height="2.019" transform="translate(15.921 9.696)"/><rect class="c" width="0.808" height="2.019" transform="translate(19.151 5.659)"/><rect class="c" width="0.808" height="2.019" transform="translate(15.921 5.659)"/><rect class="c" width="0.808" height="2.019" transform="translate(19.151 1.621)"/><rect class="c" width="0.808" height="2.019" transform="translate(15.921 1.621)"/></g><g transform="translate(0 0)"><rect class="d" width="22" height="13" transform="translate(0 0.342)"/><rect class="d" width="4" height="4" transform="translate(9 9.342)"/><line class="d" y1="4.038" transform="translate(11.076 9.696)"/><path class="d" d="M14.808,26.019H14V24" transform="translate(-11.807 -22.379)"/><path class="d" d="M22.808,46.019H22V44" transform="translate(-16.577 -34.304)"/><path class="d" d="M14.808,46.019H14V44" transform="translate(-11.807 -34.304)"/><path class="d" d="M22.808,36.019H22V34" transform="translate(-16.577 -28.341)"/><path class="d" d="M14.808,36.019H14V34" transform="translate(-11.807 -28.341)"/><path class="d" d="M22.808,26.019H22V24" transform="translate(-16.577 -22.379)"/><path class="d" d="M39.808,36.019H39V34" transform="translate(-26.713 -28.341)"/><path class="d" d="M31.808,36.019H31V34" transform="translate(-21.943 -28.341)"/><path class="d" d="M39.808,26.019H39V24" transform="translate(-26.713 -22.379)"/><path class="d" d="M31.808,26.019H31V24" transform="translate(-21.943 -22.379)"/><path class="d" d="M56.808,46.019H56V44" transform="translate(-36.849 -34.304)"/><path class="d" d="M48.808,46.019H48V44" transform="translate(-32.079 -34.304)"/><path class="d" d="M56.808,36.019H56V34" transform="translate(-36.849 -28.341)"/><path class="d" d="M48.808,36.019H48V34" transform="translate(-32.079 -28.341)"/><path class="d" d="M56.808,26.019H56V24" transform="translate(-36.849 -22.379)"/><path class="d" d="M48.808,26.019H48V24" transform="translate(-32.079 -22.379)"/></g></g></svg>