<svg xmlns="http://www.w3.org/2000/svg" width="18.436" height="18.636" viewBox="0 0 18.436 18.636"><defs><style>.a,.c,.e{fill:#b1cc33;}.a,.c{stroke:#b1cc33;}.a,.b,.c,.f,.g,.h{stroke-linecap:round;}.a,.b,.c,.f,.g{stroke-linejoin:round;}.a,.b,.c,.f,.h{stroke-miterlimit:10;}.a,.b{stroke-width:1.8px;}.b,.d{fill:#5c9e31;}.b{stroke:#5c9e31;}.c{stroke-width:2px;}.f,.g,.h{fill:none;stroke:#000;}</style></defs><g transform="translate(0.9)"><g transform="translate(0 1.43)"><path class="a" d="M21.209,29.761h1.035a.658.658,0,0,1,0,1.317H17.917a2.116,2.116,0,1,0,0,4.232h1.957l.051-1.411H18.011a.71.71,0,0,1-.711-.663.7.7,0,0,1,.711-.653H22.2a2.116,2.116,0,0,0,0-4.232h-.987v1.411Z" transform="translate(-14.772 -23.285)"/><path class="b" d="M22.836,47.575h2.1a.677.677,0,0,0,.686-.638.658.658,0,0,0-.658-.679V44.848h.09a2.149,2.149,0,0,1,2.165,2.039,2.116,2.116,0,0,1-2.115,2.193H21.394a2.053,2.053,0,0,1,1.03-1.4h0A.86.86,0,0,1,22.836,47.575Z" transform="translate(-18.484 -34.234)"/><path class="c" d="M27.156,49.554a2.056,2.056,0,0,1,.068.456A2.116,2.116,0,0,1,25.109,52.2H21.394a2.053,2.053,0,0,1,1.03-1.4h0a.86.86,0,0,1,.412-.105h2.1a.7.7,0,0,0,.533-.245Z" transform="translate(-18.484 -37.358)"/><path class="b" d="M29.527,46.259H28.264V44.848h1.263" transform="translate(-23.043 -34.234)"/><path class="d" d="M17.562,39.95s-2.382.461-2.253,1.869c0,0,.505.96,1.118,1.115l1.821.413h1.006V41.262l-1.743-.013-.5-.218.48-.586Z" transform="translate(-14.442 -30.984)"/><path class="a" d="M26.325,15.509c0,1.457-2.523,1.514-2.523,1.514l-3.038.016H14.987a.683.683,0,0,0-.685.548.659.659,0,0,0,.649.769h2.955l-.022,1.411H14.946a2.175,2.175,0,0,1-2.2-2.051,2.116,2.116,0,0,1,2.115-2.181h5.666a.7.7,0,0,0,.636-.541,2.211,2.211,0,0,1,2.151-1.7" transform="translate(-12.742 -13.291)"/><path class="e" d="M44.167,13.291c1.22,0,3.014,1,3.014,2.217" transform="translate(-33.597 -13.291)"/><path class="d" d="M32.356,29.953a1.743,1.743,0,0,0-.185-1.094c-.377-.485-.895-1.313-1.691-1.513H28.454l.062,2.086h2.221a.87.87,0,0,1,.6-.024,2.9,2.9,0,0,1,.822.408Z" transform="translate(-23.169 -22.619)"/><path class="d" d="M15.19,24.918a.691.691,0,0,0,1.027-.173l2.313.006L18.5,26.833a13.245,13.245,0,0,1-1.689-.042c-2.464-.426-2.7-1.777-2.7-1.777a1.762,1.762,0,0,1,1.81-1.579l-.523.525a.706.706,0,0,0-.507.641Z" transform="translate(-13.651 -20.024)"/></g><g transform="translate(0 0)"><path class="f" d="M60.125,28.417" transform="translate(-44.188 -21.899)"/><path class="f" d="M52.9,35.18" transform="translate(-39.391 -26.388)"/><path class="f" d="M21.636,33.9h-.605a.658.658,0,1,1,0-1.317h4.185a2.116,2.116,0,0,0,0-4.232h-.987" transform="translate(-17.806 -21.855)"/><path class="f" d="M21.167,32.544H22.2a.658.658,0,0,1,0,1.317H17.875a2.116,2.116,0,1,0,0,4.232h.7" transform="translate(-14.744 -24.638)"/><path class="g" d="M16.551,19.767h-1.6a2.175,2.175,0,0,1-2.2-2.051,2.116,2.116,0,0,1,2.115-2.181h5.666a.7.7,0,0,0,.636-.541,2.211,2.211,0,0,1,2.151-1.7" transform="translate(-12.742 -11.861)"/><path class="g" d="M29.387,19.883c0,1.457-2.523,1.514-2.523,1.514l-3.038.016H18.049a.683.683,0,0,0-.685.548.659.659,0,0,0,.649.769h1.6" transform="translate(-15.804 -16.236)"/><path class="g" d="M44.167,13.291c1.22,0,3.014,1,3.014,2.217" transform="translate(-33.597 -11.861)"/><path class="h" d="M50.981,23.838a5.419,5.419,0,0,0,2.551,1.539" transform="translate(-38.119 -18.861)"/><line class="h" y1="0.748" x2="1.627" transform="translate(15.245 5.77)"/><line class="h" x1="0.352" y1="1.539" transform="translate(15.245 6.517)"/><line class="g" y2="1.589" transform="translate(5.154 16.547)"/><line class="g" y2="3.37" transform="translate(5.154 11.039)"/><path class="g" d="M28.065,25.4v3.423" transform="translate(-22.911 -19.896)"/><line class="g" y2="1.293" transform="translate(5.154 2.018)"/><circle cx="1.009" cy="1.009" r="1.009" transform="translate(4.145)"/><path class="f" d="M24.968,44.848h.09a2.149,2.149,0,0,1,2.165,2.039,2.116,2.116,0,0,1-2.115,2.193H21.394a2.053,2.053,0,0,1,1.03-1.4h0a.86.86,0,0,1,.412-.105h2.1a.677.677,0,0,0,.686-.638.658.658,0,0,0-.658-.679" transform="translate(-18.484 -32.804)"/></g></g></svg>