<svg xmlns="http://www.w3.org/2000/svg" width="18.637" height="19.189" viewBox="0 0 18.637 19.189"><defs><style>.a{fill:#ea5a47;}.b{fill:#d22f27;}.c,.d,.e,.f,.g{fill:none;}.c,.d,.e,.f{stroke:#000;}.c,.d,.f,.g{stroke-miterlimit:10;}.d,.e,.f,.g{stroke-linecap:round;}.e{stroke-linejoin:round;}.f,.g{stroke-width:2px;}.g{stroke:#fff;}</style></defs><g transform="translate(0.487 0.48)"><g transform="translate(0 0.135)"><path class="a" d="M22.875,7.859c-2.689.05-5.827,1.295-5.877,6.226l-.149,1.037c.3-.05,1.018.666,1.317.716.946.05,1.263-.448,2.06,0s1.852.189,2.7.189a5.107,5.107,0,0,0,2.6-.189c.8-.448,1.753.05,2.649,0h.883L28.7,14.085C28.7,9.154,25.565,7.909,22.875,7.859Z" transform="translate(-14.058 -7.859)"/><path class="b" d="M24.808,30.207s2.355,1.472-1.177,2.06c.2-.054,2.633-.023-5,.589a10.36,10.36,0,0,0-2.06,0c-.408.056-.5-.01-2.355,0a13.915,13.915,0,0,1-4.154-.425c-.883-.294-1.439-.458-1.439-.458-.213.122-1.472-.967.589-1.766-.024-.1-.764.248,7.653.589C18.852,30.876,24.808,30.207,24.808,30.207Z" transform="translate(-8.045 -23.111)"/></g><g transform="translate(0.015 0)"><path class="c" d="M33.142,8.958v4.611a4.843,4.843,0,0,1-4.709,0V8.888" transform="translate(-21.985 -8.427)"/><path class="d" d="M16.825,14.853c0-2.656,1.49-5.821,3.621-6.82a5.665,5.665,0,0,1,2.413-.538,6.266,6.266,0,0,1,6.034,6.475c0,.139.008.746,0,.883" transform="translate(-14.056 -7.475)"/><path class="d" d="M18.218,41.389s.294,6.77,5.592,6.77,5.592-6.77,5.592-6.77" transform="translate(-15.008 -30.626)"/><g transform="translate(0 7.251)"><path class="d" d="M43.434,30.31c.008,0,1.223-.067,1.283.862.021.33-.159.834-.989,1.031a43.217,43.217,0,0,1-7.829.734" transform="translate(-27.085 -30.309)"/><path class="d" d="M9.375,30.31c-.008,0-1.223-.067-1.283.862-.021.33.159.834.989,1.031a43.216,43.216,0,0,0,7.829.734" transform="translate(-8.09 -30.309)"/></g><path class="e" d="M27.5,32.1a27.391,27.391,0,0,0,5.3,0" transform="translate(-21.351 -24.284)"/><path class="f" d="M28.432,60.922a4.65,4.65,0,0,0,4.709,0" transform="translate(-21.985 -43.968)"/><path d="M28.6,7.894s2.648-1.072,4.48.053l.066,4.657a4.677,4.677,0,0,1-4.709,0Z" transform="translate(-21.985 -7.433)"/></g><g transform="translate(7.725 1.569)"><line class="g" y2="2.502" transform="translate(1.104)"/><line class="g" x2="2.207" transform="translate(0 1.251)"/></g></g></svg>