<svg xmlns="http://www.w3.org/2000/svg" width="23.286" height="15.19" viewBox="0 0 23.286 15.19"><defs><style>.a{fill:#fff;}.b,.c{fill:#ea5a47;}.b{stroke:#ea5a47;stroke-width:2px;}.b,.g,.i,.j{stroke-linecap:round;}.b,.g,.i{stroke-linejoin:round;}.b,.g,.h,.j{stroke-miterlimit:10;}.d{fill:#a57939;}.e{fill:#92d3f5;}.f{fill:#b1cc33;}.g,.h,.i,.j{fill:none;stroke:#000;}</style></defs><g transform="translate(0.5 0.5)"><g transform="translate(0 0)"><rect class="a" width="10.186" height="6.863" transform="translate(11.774 7.39)"/><path class="b" d="M42.7,23.2l-4.6,4.85h9.624Z" transform="translate(-25.938 -20.68)"/><path class="c" d="M43.325,23.559l-2.425,2.3V22.607c0-.353.286-.537.639-.537h1.147c.353,0,.639.184.639.537Z" transform="translate(-27.677 -19.978)"/><rect class="d" width="2.273" height="4.547" transform="translate(14.019 9.644)"/><rect class="e" width="2.273" height="1.894" transform="translate(18.186 9.644)"/><path class="f" d="M19.263,21.015c0-1.255-1.305-2.274-2.915-2.274a3.732,3.732,0,0,0-.4.025,4.339,4.339,0,0,0-3.884-2.219A4.078,4.078,0,0,0,7.776,20.38,3.471,3.471,0,0,0,7.8,20.8,2.351,2.351,0,0,0,6,22.9c0,1.255,1.305,2.274,2.915,2.274a3.461,3.461,0,0,0,1.748-.457,4.911,4.911,0,0,0,3.037.924c2.088,0,3.78-1.018,3.78-2.274a1.394,1.394,0,0,0-.023-.247A2.354,2.354,0,0,0,19.263,21.015Z" transform="translate(-6 -16.548)"/></g><g transform="translate(0 0)"><path class="g" d="M41.031,24.516,42.636,23l5.215,4.584v7.162H38V30.028" transform="translate(-25.876 -20.555)"/><rect class="g" width="2.273" height="4.547" transform="translate(14.019 9.644)"/><rect class="g" width="2.273" height="1.894" transform="translate(18.186 9.644)"/><path class="g" d="M43.5,23h1.137v1.137" transform="translate(-29.292 -20.555)"/><path class="h" d="M31.245,39.34" transform="translate(-21.68 -30.704)"/><path class="i" d="M19.394,46.547V43.829L17.5,42" transform="translate(-13.143 -32.356)"/><line class="i" y1="1.122" x2="1.078" transform="translate(6.456 10.313)"/><path class="j" d="M19.263,21.015c0-1.255-1.305-2.274-2.915-2.274a3.732,3.732,0,0,0-.4.025,4.339,4.339,0,0,0-3.884-2.219A4.078,4.078,0,0,0,7.776,20.38,3.471,3.471,0,0,0,7.8,20.8,2.351,2.351,0,0,0,6,22.9c0,1.255,1.305,2.274,2.915,2.274a3.461,3.461,0,0,0,1.748-.457,4.911,4.911,0,0,0,3.037.924c2.088,0,3.78-1.018,3.78-2.274a1.394,1.394,0,0,0-.023-.247A2.354,2.354,0,0,0,19.263,21.015Z" transform="translate(-6 -16.548)"/><line class="g" x1="7.957" transform="translate(13.829 7.37)"/></g></g></svg>