<svg xmlns="http://www.w3.org/2000/svg" width="18.566" height="16.837" viewBox="0 0 18.566 16.837"><defs><style>.a{fill:#d22f27;}.b{fill:#d0cfce;}.c{fill:#9b9b9a;}.d{fill:#fff;}.e,.f,.g{fill:none;stroke:#000;}.e{stroke-linecap:round;stroke-linejoin:round;}.e,.f{stroke-miterlimit:2;}.g{stroke-miterlimit:10;}</style></defs><g transform="translate(0.5 0.5)"><g transform="translate(0 0.036)"><path class="a" d="M34,12.862V11.98a.878.878,0,0,1,.878-.878h0a.878.878,0,0,1,.878.878v.878" transform="translate(-25.919 -11.101)"/><path class="b" d="M11.878,32.669h0A.878.878,0,0,1,11,31.79V28.98a.878.878,0,0,1,.878-.878h0a.878.878,0,0,1,.878.878V31.79A.878.878,0,0,1,11.878,32.669Z" transform="translate(-11 -22.129)"/><path class="b" d="M56.878,32.669h0a.878.878,0,0,0,.878-.878V28.98a.878.878,0,0,0-.878-.878h0A.878.878,0,0,0,56,28.98V31.79A.878.878,0,0,0,56.878,32.669Z" transform="translate(-40.19 -22.129)"/><path class="b" d="M27.049,30.165H19a3.013,3.013,0,0,1-3-3V19.116a3.013,3.013,0,0,1,3-3h8.046a3.013,3.013,0,0,1,3,3v8.046A3.013,3.013,0,0,1,27.049,30.165Z" transform="translate(-14.243 -14.352)"/><path class="c" d="M35.5,30.165h4.668a2.808,2.808,0,0,0,2.535-3V19.115a2.808,2.808,0,0,0-2.535-3h-.827" transform="translate(-26.891 -14.351)"/><circle class="d" cx="0.996" cy="0.996" r="0.996" transform="translate(10.891 5.294)"/><circle class="d" cx="0.996" cy="0.996" r="0.996" transform="translate(4.743 5.293)"/><path class="d" d="M30.878,42.311H24.905A1.409,1.409,0,0,1,23.5,40.906h0A1.409,1.409,0,0,1,24.905,39.5h5.973a1.409,1.409,0,0,1,1.405,1.405h0A1.409,1.409,0,0,1,30.878,42.311Z" transform="translate(-19.108 -29.523)"/></g><g transform="translate(0)"><path class="e" d="M36.5,21.454" transform="translate(-27.541 -17.781)"/><path class="e" d="M34,12.76v-.882A.878.878,0,0,1,34.878,11h0a.878.878,0,0,1,.878.878v.878" transform="translate(-25.919 -11)"/><path class="e" d="M27.049,30.053H19a3.013,3.013,0,0,1-3-3V19a3.013,3.013,0,0,1,3-3h8.046a3.013,3.013,0,0,1,3,3v8.046A3.013,3.013,0,0,1,27.049,30.053Z" transform="translate(-14.243 -14.243)"/><circle class="e" cx="0.996" cy="0.996" r="0.996" transform="translate(10.891 5.329)"/><circle class="e" cx="0.996" cy="0.996" r="0.996" transform="translate(4.743 5.329)"/><path class="f" d="M30.878,42.311H24.905A1.409,1.409,0,0,1,23.5,40.905h0A1.409,1.409,0,0,1,24.905,39.5h5.973a1.409,1.409,0,0,1,1.405,1.405h0A1.409,1.409,0,0,1,30.878,42.311Z" transform="translate(-19.108 -29.487)"/><path class="e" d="M11.878,32.567h0A.878.878,0,0,1,11,31.689V28.878A.878.878,0,0,1,11.878,28h0a.878.878,0,0,1,.878.878v2.811A.878.878,0,0,1,11.878,32.567Z" transform="translate(-11 -22.027)"/><path class="e" d="M56.878,32.567h0a.878.878,0,0,0,.878-.878V28.878A.878.878,0,0,0,56.878,28h0a.878.878,0,0,0-.878.878v2.811A.878.878,0,0,0,56.878,32.567Z" transform="translate(-40.19 -22.027)"/><path class="g" d="M36.5,37.5" transform="translate(-27.541 -28.19)"/><path class="g" d="M36.5,57.5" transform="translate(-27.541 -41.163)"/><line class="e" y2="2.391" transform="translate(5.595 10.36)"/><line class="e" y2="2.391" transform="translate(7.986 10.36)"/><line class="e" y2="2.391" transform="translate(9.58 10.36)"/><line class="e" y2="2.391" transform="translate(11.174 10.36)"/></g></g></svg>