<svg xmlns="http://www.w3.org/2000/svg" width="16.242" height="16.445" viewBox="0 0 16.242 16.445"><defs><style>.a{fill:#d0cfce;}.b{fill:#9b9b9a;}.c{fill:#61b2e4;}.d{fill:none;stroke:#000;stroke-linecap:round;stroke-linejoin:round;stroke-miterlimit:10;}</style></defs><g transform="translate(0.504 0.607)"><g transform="translate(0 0)"><path class="a" d="M18.515,26.216C10.717,24.382,11,12.528,11,12.528a65.266,65.266,0,0,0,7.618-1.548v.027a65.913,65.913,0,0,0,7.618,1.548S26.309,24.382,18.515,26.216Z" transform="translate(-10.996 -10.98)"/><path class="b" d="M39.217,13.587S41.18,22.855,36,27.73c0,0,4.876-.3,6.7-7.618s0-5.79,0-5.79l-3.487-.735" transform="translate(-28.381 -12.793)"/><path class="c" d="M26.644,25.7l2.793,4.269,4.481-7.394-1.555.759-2.916,4.812-1.818-2.778Z" transform="translate(-21.876 -19.042)"/></g><g transform="translate(0 0)"><path class="d" d="M18.615,10.979A65.66,65.66,0,0,1,11,12.529s-.279,11.852,7.517,13.687" transform="translate(-10.996 -10.979)"/><path class="d" d="M35.667,26.275c7.8-1.835,7.72-13.66,7.72-13.66a65.666,65.666,0,0,1-7.618-1.55" transform="translate(-28.149 -11.039)"/><path class="d" d="M26.644,25.7l2.793,4.269,4.481-7.394-1.555.759-2.916,4.812-1.818-2.778Z" transform="translate(-21.876 -19.042)"/></g></g></svg>