<svg xmlns="http://www.w3.org/2000/svg" width="14.177" height="17.801" viewBox="0 0 14.177 17.801"><defs><style>.a{fill:#3f3f3f;}.b{fill:#d0cfce;}.c{fill:#9b9b9a;}.d{fill:none;stroke:#000;stroke-linecap:round;stroke-linejoin:round;stroke-miterlimit:10;}</style></defs><g transform="translate(0.5 0.5)"><g transform="translate(5.034 4.903)"><circle class="a" cx="1.555" cy="1.555" r="1.555" transform="translate(0)"/><path class="b" d="M34,45.236h1.318L34.659,37Z" transform="translate(-33.104 -33.667)"/><path class="c" d="M35.987,37l.659,8.236H35.98L35.987,37" transform="translate(-34.432 -33.667)"/></g><g transform="translate(0 0)"><circle class="d" cx="1.555" cy="1.555" r="1.555" transform="translate(5.034 4.903)"/><path class="d" d="M33.659,38,33,46.236h1.977L34.318,38" transform="translate(-27.4 -29.435)"/><path class="d" d="M24.652,24.843a6.589,6.589,0,1,0-4.127,0" transform="translate(-16 -12)"/><path class="d" d="M27.782,26.525a4.941,4.941,0,1,0-3.682,0" transform="translate(-19.353 -15.353)"/><path class="d" d="M30.907,28.165a3.294,3.294,0,1,0-3.225,0" transform="translate(-22.706 -18.706)"/></g></g></svg>