<svg xmlns="http://www.w3.org/2000/svg" width="17.2" height="17" viewBox="0 0 17.2 17"><defs><style>.a{fill:#92d3f5;}.b{fill:#b1cc33;}.c{fill:none;stroke:#000;stroke-linecap:round;stroke-linejoin:round;stroke-miterlimit:10;}</style></defs><g transform="translate(0.3 0.3)"><g transform="translate(0 0)"><circle class="a" cx="8" cy="8" r="8" transform="translate(0.2 0.2)"/><path class="b" d="M30.737,11.372a2.4,2.4,0,0,1-.714.753c-.365.2-.558.078-.879.293-.372.248-.354.568-.586.586s-.2-.584-.293-.879c-.132-.427-.068-.447-.293-.586a1.5,1.5,0,0,0-1.464,0c-.208.122-.22.2-.879,1.171-.5.739-.641.911-.586,1.171s.013.512.293.586c.348.092.4-.08.586-.293.389-.447.691-1.108.879-1.171.167-.057.6.4.586.879-.014.341-.25.563-.586.879a3.93,3.93,0,0,1-1.757.586c-.5.081-.412.25-.6.467-.247.28-.135.635-.375.97-.3.419-1.017.525-1.071.8-.046.231.574.4.879.4.249,0,.312-.226.879-.586a1.625,1.625,0,0,1,.787-.366,1.5,1.5,0,0,1,.686.211c.174.146-.046.54-.119.924s-.849.546-1.129.592c-.461.075-1.214-.153-1.641.275a1.2,1.2,0,0,0-.342,1A2.7,2.7,0,0,0,23.58,21.2c.335.305.672-.245,1.171,0a2.028,2.028,0,0,1,.879,1.171,11.377,11.377,0,0,1,.293,1.464c.121.564.093.328.293,1.171.165.7.172.811.293.879.344.194,1.142-.239,1.464-.879.2-.4.062-.575.293-1.464a3.6,3.6,0,0,1,.293-.879c.508-.9,1.43-.915,1.464-1.464.023-.376-.4-.542-.293-.879s.53-.311.586-.586c.076-.373-.659-.678-.586-.879.083-.227,1.192-.3,1.757.293.187.2.146.286.586,1.171.405.816.517.891.586.879.126-.023.094-.333.293-.879.095-.261.32-.88.586-.879.183,0,.216.3.586.586a2.115,2.115,0,0,0,.687.3,8.214,8.214,0,0,0-4.1-8.978" transform="translate(-18.601 -10.368)"/></g><g transform="translate(0 0)"><circle class="c" cx="8" cy="8" r="8" transform="translate(0.2 0.2)"/><path class="c" d="M30.737,11.372a2.4,2.4,0,0,1-.714.753c-.365.2-.558.078-.879.293-.372.248-.354.568-.586.586s-.2-.584-.293-.879c-.132-.427-.068-.447-.293-.586a1.5,1.5,0,0,0-1.464,0c-.208.122-.22.2-.879,1.171-.5.739-.641.911-.586,1.171s.013.512.293.586c.348.092.4-.08.586-.293.389-.447.691-1.108.879-1.171.167-.057.6.4.586.879-.014.341-.25.563-.586.879a3.93,3.93,0,0,1-1.757.586c-.5.081-.412.25-.6.467-.247.28-.135.635-.375.97-.3.419-1.017.525-1.071.8-.046.231.574.4.879.4.249,0,.312-.226.879-.586a1.625,1.625,0,0,1,.787-.366,1.5,1.5,0,0,1,.686.211c.174.146-.046.54-.119.924s-.849.546-1.129.592c-.461.075-1.214-.153-1.641.275a1.2,1.2,0,0,0-.342,1A2.7,2.7,0,0,0,23.58,21.2c.335.305.672-.245,1.171,0a2.028,2.028,0,0,1,.879,1.171,11.377,11.377,0,0,1,.293,1.464c.121.564.093.328.293,1.171.165.7.172.811.293.879.344.194,1.142-.239,1.464-.879.2-.4.062-.575.293-1.464a3.6,3.6,0,0,1,.293-.879c.508-.9,1.43-.915,1.464-1.464.023-.376-.4-.542-.293-.879s.53-.311.586-.586c.076-.373-.659-.678-.586-.879.083-.227,1.192-.3,1.757.293.187.2.146.286.586,1.171.405.816.517.891.586.879.126-.023.094-.333.293-.879.095-.261.32-.88.586-.879.183,0,.216.3.586.586a2.115,2.115,0,0,0,.687.3,8.214,8.214,0,0,0-4.1-8.978" transform="translate(-18.601 -10.368)"/></g></g></svg>