<svg xmlns="http://www.w3.org/2000/svg" width="23.371" height="11.147" viewBox="0 0 23.371 11.147"><defs><style>.a{fill:#d22f27;}.b{fill:#92d3f5;}.c{fill:#3f3f3f;}.d{fill:#d0cfce;}.e{fill:#fcea2b;}.f{fill:none;stroke:#000;stroke-linecap:round;stroke-linejoin:round;}</style></defs><g transform="translate(0.148 0.148)"><g transform="translate(0 0)"><path class="a" d="M6.1,35.248a.352.352,0,0,1-.352-.352V31.691a1.133,1.133,0,0,1,.965-1.125l4-.7,2.235-2.744a2.6,2.6,0,0,1,2.024-.962h3.953a.764.764,0,0,1,.764.764v3H26.6a.352.352,0,0,1,.352.352v4.976Z" transform="translate(-4.781 -26.157)"/><path class="b" d="M38.034,32.425H36.654a.352.352,0,0,1-.352-.352v-2.5a.352.352,0,0,1,.352-.352h1.209a.543.543,0,0,1,.522.561v2.291a.352.352,0,0,1-.352.352Z" transform="translate(-24.586 -28.143)"/><path class="b" d="M27.325,32.425H24a.352.352,0,0,1-.276-.57l1.262-1.59c.068-.082.126-.154.182-.222.357-.441.665-.821,1.251-.821h.9a.352.352,0,0,1,.352.352v2.5a.352.352,0,0,1-.352.352Z" transform="translate(-16.386 -28.143)"/><circle class="c" cx="1.759" cy="1.759" r="1.759" transform="translate(2.814 6.981)"/><circle class="c" cx="1.759" cy="1.759" r="1.759" transform="translate(15.808 6.981)"/><path class="d" d="M14.055,50.111a1.055,1.055,0,1,1,1.055-1.055A1.055,1.055,0,0,1,14.055,50.111Z" transform="translate(-9.482 -40.315)"/><path class="d" d="M50.989,50.111a1.055,1.055,0,1,1,1.055-1.055A1.055,1.055,0,0,1,50.989,50.111Z" transform="translate(-33.422 -40.315)"/><path class="e" d="M6.063,41.992H7.376a.591.591,0,0,1,.508.282.566.566,0,0,1,.015.571l-.5.925a.62.62,0,0,1-.546.32H6.415a.348.348,0,0,1-.352-.344Zm.7,1.754Z" transform="translate(-4.985 -36.421)"/><path class="e" d="M61.476,42.667v1.079a.348.348,0,0,1-.352.344h-.435a.62.62,0,0,1-.546-.32l-.5-.925a.566.566,0,0,1,.015-.571.591.591,0,0,1,.508-.282h1.313Zm-.707,1.079Z" transform="translate(-39.668 -36.421)"/><path class="d" d="M60.9,49.378H57.933V47.956h2.491c.4,0,1.021-.028,1.021.232v.994C61.417,49.295,61.12,49.378,60.9,49.378Z" transform="translate(-38.607 -40.286)"/><path class="d" d="M5.488,49.369h-2c-.272,0-.491-.106-.491-.236v-.47c0-.721,0-.721,1.5-.721H5.984l0,1.192C5.979,49.264,5.759,49.369,5.488,49.369Z" transform="translate(-3 -40.277)"/></g><g transform="translate(0.352 0.352)"><path class="f" d="M60.653,44l.5.945c.046.087.093.095.235.1h.975a.705.705,0,0,1,.715.817l-.107.6H60.715" transform="translate(-40.722 -38.073)"/><path class="f" d="M6.052,34.13V32.34a.787.787,0,0,1,.667-.778l4.378-.724,2.321-2.849a2.258,2.258,0,0,1,1.751-.832h3.954a.412.412,0,0,1,.412.412v3.352H26.79v3.21" transform="translate(-5.33 -27.157)"/><path class="f" d="M6.251,44l-.5.945c-.046.087-.093.095-.235.1H4.722A.722.722,0,0,0,4,45.762v.7H5.429" transform="translate(-4 -38.073)"/><path class="f" d="M38.682,30.816v2.291H37.3" transform="translate(-25.586 -29.529)"/><path class="f" d="M27.973,30.817v2.291H24.65" transform="translate(-17.385 -29.529)"/><circle class="f" cx="1.759" cy="1.759" r="1.759" transform="translate(2.463 6.629)"/><circle class="f" cx="1.759" cy="1.759" r="1.759" transform="translate(15.456 6.629)"/><line class="f" x2="7.462" transform="translate(6.913 8.388)"/></g></g></svg>