<svg xmlns="http://www.w3.org/2000/svg" width="26.382" height="15.392" viewBox="0 0 26.382 15.392"><defs><style>.a{fill:#fff;}.b{fill:#9b9b9a;stroke:#9b9b9a;stroke-width:0.9px;}.b,.c,.d,.f,.g,.h{stroke-linecap:round;}.b,.c,.f,.g{stroke-linejoin:round;}.b,.c,.d,.g,.h{stroke-miterlimit:10;}.c{fill:#92d3f5;stroke:#92d3f5;}.c,.d{stroke-width:1.9px;}.d,.e{fill:#b1cc33;}.d{stroke:#b1cc33;}.f,.g,.h{fill:none;stroke:#000;}</style></defs><g transform="translate(0.95 0.5)"><g transform="translate(0 0.06)"><line class="a" y1="1.801" transform="translate(15.84 12.531)"/><line class="a" y1="1.801" transform="translate(21.12 11.312)"/><path class="b" d="M21.489,26.818l1,2.666,2.177,2.254L10.25,31.7l1.54-1.98.66-3.319,1.935-5.252,1.106,1.106,1.106.829L17.7,25.294h1.382l2.211,1.658" transform="translate(-8.524 -21.148)"/><path class="c" d="M18.59,50.193c-1.1-1.126-1.9-1.291-2.437-1.218-1.22.164-1.762,1.632-3.249,1.625a2.335,2.335,0,0,1-.948-.185c-1.06-.461-1.241-1.613-2.708-1.44C7.6,49.168,7.255,50.839,6,50.6H18.057" transform="translate(-6 -37.662)"/><path class="d" d="M56.446,36.293a1.351,1.351,0,0,0-1.478-1.167,1.864,1.864,0,0,0-.2.013A2.2,2.2,0,0,0,52.794,34a2.078,2.078,0,0,0-2.173,1.967,1.8,1.8,0,0,0,.013.215,1.2,1.2,0,0,0-.914,1.079A1.351,1.351,0,0,0,51.2,38.428a1.739,1.739,0,0,0,.886-.235,2.47,2.47,0,0,0,1.54.474c1.059,0,1.917-.523,1.917-1.167a.72.72,0,0,0-.012-.127A1.2,1.2,0,0,0,56.446,36.293Z" transform="translate(-31.963 -28.78)"/><path class="a" d="M48.72,41.028" transform="translate(-31.369 -32.954)"/><path class="e" d="M43.064,39.547a1.351,1.351,0,0,0-1.478-1.167,1.865,1.865,0,0,0-.2.013,2.2,2.2,0,0,0-1.969-1.139,2.078,2.078,0,0,0-2.173,1.967,1.8,1.8,0,0,0,.013.215,1.2,1.2,0,0,0-.914,1.079,1.351,1.351,0,0,0,1.478,1.167,1.739,1.739,0,0,0,.886-.235,2.47,2.47,0,0,0,1.54.474c1.059,0,1.917-.523,1.917-1.167a.72.72,0,0,0-.012-.127A1.2,1.2,0,0,0,43.064,39.547Z" transform="translate(-24.016 -30.712)"/></g><g transform="translate(0 0)"><line class="f" y1="1.801" transform="translate(15.84 12.59)"/><line class="f" y1="1.801" transform="translate(21.12 11.372)"/><path class="g" d="M37.459,35.189" transform="translate(-24.682 -29.426)"/><path class="g" d="M18.644,25.116l-1.1-2.2-1.1-.823-1.1-1.1L13.43,26.214l-.549,3.293-1.1,1.647" transform="translate(-9.435 -21)"/><path class="g" d="M24.622,25.054l.274,2.47H27.64l2.2,1.647" transform="translate(-17.059 -23.408)"/><path class="g" d="M29.647,31.135l.823,1.647.274,1.647-1.1,1.648L28,37.172" transform="translate(-19.065 -27.019)"/><path class="h" d="M48.72,41.028" transform="translate(-31.369 -32.894)"/><path class="h" d="M53.5,38.193a2.47,2.47,0,0,0,1.54.474c1.059,0,1.917-.523,1.917-1.167a.721.721,0,0,0-.012-.127,1.2,1.2,0,0,0,.916-1.08,1.351,1.351,0,0,0-1.478-1.167,1.864,1.864,0,0,0-.2.013A2.2,2.2,0,0,0,54.2,34,2.144,2.144,0,0,0,52.1,35.491" transform="translate(-33.374 -28.72)"/><path class="h" d="M43.064,39.547a1.351,1.351,0,0,0-1.478-1.167,1.865,1.865,0,0,0-.2.013,2.2,2.2,0,0,0-1.969-1.139,2.078,2.078,0,0,0-2.173,1.967,1.8,1.8,0,0,0,.013.215,1.2,1.2,0,0,0-.914,1.079,1.351,1.351,0,0,0,1.478,1.167,1.739,1.739,0,0,0,.886-.235,2.47,2.47,0,0,0,1.54.474c1.059,0,1.917-.523,1.917-1.167a.72.72,0,0,0-.012-.127A1.2,1.2,0,0,0,43.064,39.547Z" transform="translate(-24.016 -30.652)"/><path class="g" d="M6,50.6c1.255.24,1.6-1.431,3.249-1.625,1.466-.173,1.648.979,2.708,1.44a2.335,2.335,0,0,0,.948.185c1.487.007,2.029-1.46,3.249-1.625.54-.073,1.341.092,2.437,1.218" transform="translate(-6 -37.602)"/></g></g></svg>