<svg xmlns="http://www.w3.org/2000/svg" width="25.063" height="11.735" viewBox="0 0 25.063 11.735"><defs><style>.a{fill:#d0cfce;}.b{fill:#92d3f5;}.c{fill:none;stroke:#000;stroke-linecap:round;stroke-linejoin:round;stroke-miterlimit:10;}</style></defs><g transform="translate(0.5 0.443)"><g transform="translate(0 0.001)"><path class="a" d="M30.063,34l-1.6,6.016H7.6L6,34Z" transform="translate(-6 -29.225)"/><path class="a" d="M30.063,29.053c0-4.208-7.823-3.208-12.032-3.208S6,24.845,6,29.053Z" transform="translate(-6 -24.278)"/><path class="a" d="M14,26.834c0-4.208,6.3-2.406,8.823-2.406s8.823-1.8,8.823,2.406Z" transform="translate(-10.792 -23.262)"/><path class="a" d="M25,26.7c0-7.372,3.4-3.679,4.412-3.679s4.813-3.694,4.813,3.679Z" transform="translate(-17.38 -22.094)"/><path class="b" d="M35.011,41.813C35.011,37.6,33.847,37,33.005,37S31,37.6,31,41.813Z" transform="translate(-20.974 -31.022)"/></g><g transform="translate(0 0)"><path class="c" d="M30.063,26.868l-1.6,6.016H20.037c0-4.207-1.163-4.813-2.005-4.813s-2.005.606-2.005,4.813H7.6L6,26.868c0-1.957,1.7-2.787,3.934-3.12.926-.866,2.611-.946,4.283-.834,1.023-1.905,3.068.1,3.814.1s3-2,4.139-.124c1.564-.076,3.092.044,3.958.854C28.367,24.08,30.063,24.91,30.063,26.868Z" transform="translate(-6 -22.092)"/><line class="c" x1="4.011" transform="translate(10.026 10.792)"/><path class="c" d="M56.916,28.137a2.5,2.5,0,0,0-.726-1.917" transform="translate(-36.061 -24.564)"/><path class="c" d="M14.726,26.22A2.5,2.5,0,0,0,14,28.137" transform="translate(-10.792 -24.564)"/><path class="c" d="M46.994,27.892a10.182,10.182,0,0,0-.377-3.136l-.3-.666" transform="translate(-30.149 -23.288)"/><path class="c" d="M25.6,24.14l-.257.646A11.251,11.251,0,0,0,25,27.922" transform="translate(-17.38 -23.318)"/><path class="c" d="M13,44.807V42.4a.4.4,0,0,1,.4-.4" transform="translate(-10.193 -34.016)"/><path class="c" d="M19,44.807V42.4a.4.4,0,0,1,.4-.4" transform="translate(-13.786 -34.016)"/><path class="c" d="M25,44.807V42.4a.4.4,0,0,1,.4-.4" transform="translate(-17.38 -34.016)"/><path class="c" d="M57,44.807V42.4a.4.4,0,0,1,.4-.4" transform="translate(-36.546 -34.016)"/><path class="c" d="M51,44.807V42.4a.4.4,0,0,1,.4-.4" transform="translate(-32.952 -34.016)"/><path class="c" d="M45,44.807V42.4a.4.4,0,0,1,.4-.4" transform="translate(-29.359 -34.016)"/><path class="c" d="M35.011,41.812H31C31,37.605,32.163,37,33.005,37S35.011,37.605,35.011,41.812Z" transform="translate(-20.974 -31.021)"/></g></g></svg>