<svg xmlns="http://www.w3.org/2000/svg" width="20.076" height="21.522" viewBox="0 0 20.076 21.522"><defs><style>.a{fill:#3f3f3f;}.b{fill:#fff;}.c{fill:#d0cfce;}.d{fill:#ea5a47;}.e{fill:#f1b31c;}.f{fill:#61b2e4;}.g{fill:#9b9b9a;}.h{fill:#a57939;}.i{fill:#fcea2b;}.j{fill:#f4aa41;}.k{fill:none;stroke:#000;stroke-linecap:round;stroke-linejoin:round;stroke-miterlimit:10;}</style></defs><g transform="translate(0.371 1.446)"><path class="a" d="M21.845,12.608a.416.416,0,0,1,0-.687s-.9-.529-.463-.94A13.276,13.276,0,0,1,26.618,9.2c1.562-.172,3.451.012,4.541,1,0,0,1.33,1.041.126,1.559,0,0,.71.71,0,.865Z" transform="translate(-17.399 -9.147)"/><path class="b" d="M30.27,49.705s.8-5.529-4.007-5.529a6.6,6.6,0,0,1-3.607,1.434h.05A6.6,6.6,0,0,1,19.1,44.176c-4.809,0-4.007,5.529-4.007,5.529" transform="translate(-13.466 -31.289)"/><path class="c" d="M38,44.076a7.95,7.95,0,0,1-3.945,1.584c5.765.182,5.765,2.215,6.1,3.981h2.257S43.295,44.076,38,44.076Z" transform="translate(-25.484 -31.226)"/><path class="d" d="M45.889,50.19a2.2,2.2,0,0,1-2.274-1.129l-.125-.217a1.048,1.048,0,0,0,.136-.441h0l.383.055A2.2,2.2,0,0,1,45.889,50.19Z" transform="translate(-31.449 -33.96)"/><path class="d" d="M39.843,47.327a1.063,1.063,0,0,1-.342.372.954.954,0,0,1-.121.07.969.969,0,0,1-.313.1.7.7,0,0,1-.213.015,1.1,1.1,0,0,1-.957-.6l-.177-.4v0A6.028,6.028,0,0,0,39.758,46v0l.11.283a1.067,1.067,0,0,1,.11.6A1.048,1.048,0,0,1,39.843,47.327Z" transform="translate(-27.801 -32.443)"/><path class="d" d="M41.8,50.829a1.885,1.885,0,0,1,.158,2.369,1.905,1.905,0,0,1-.9-2.174l.07-.235v-.007a.969.969,0,0,0,.313-.1.954.954,0,0,0,.121-.07l.033.055Z" transform="translate(-29.859 -35.357)"/><path class="d" d="M32.1,47.219l-.007.125c-4.934,1.277-5.059-2.391-5.059-2.391a6.105,6.105,0,0,0,3.263,1.321h.048a3.528,3.528,0,0,0,.622-.063v0l.177.4A1.1,1.1,0,0,0,32.1,47.219Z" transform="translate(-21.044 -31.78)"/><path class="e" d="M12.78,47.652a5.924,5.924,0,0,1-.468-.4q-.149-.14-.283-.286a4.512,4.512,0,0,1-1.123-4.248,2.842,2.842,0,0,1,3.514-1.957c.722.2,2.913.593,3.3,4.255,1.415-.432,2.86.7,1.85,2.193a3.654,3.654,0,0,1-.633.7C17.538,49.128,14.653,49.079,12.78,47.652Z" transform="translate(-10.759 -29.066)"/><path class="d" d="M15.368,44.742a.736.736,0,1,1-.513-.905.736.736,0,0,1,.513.905" transform="translate(-12.759 -31.058)"/><path class="f" d="M21.145,56.345a.736.736,0,1,1-.513-.905.736.736,0,0,1,.513.905" transform="translate(-16.411 -38.392)"/><path class="a" d="M55.191,43.524,53.767,49.03a.78.78,0,1,1-1.51-.391l1.424-5.507Z" transform="translate(-36.974 -30.63)"/><path class="g" d="M58,40.125l-.323,1.25-1.51-.391.323-1.25.381.1.755.2Z" transform="translate(-39.463 -28.482)"/><path class="h" d="M58.706,31.891a2.015,2.015,0,0,1-.162,2.964l-.269.216-.755-.2-.177-.331A2.012,2.012,0,0,1,58.706,31.891Z" transform="translate(-40.109 -23.524)"/><path class="i" d="M15.839,51.61a.736.736,0,1,1-.513-.905.736.736,0,0,1,.513.905" transform="translate(-13.057 -35.399)"/></g><g transform="translate(4.925 4.922)"><path class="j" d="M25.43,19.352s2.223,1.476,1.695.355c0,0,2.207,1.47,1.885.212,0,0,1.994,2.155,2.135.179,0,0,.2,1.937.882,1.839.413,0,1.16-2.249.146-3.342H23.689s-1.24,2.227,0,3.342C24.39,21.667,25.43,19.352,25.43,19.352Z" transform="translate(-23.139 -18.595)"/></g><g transform="translate(5.475 5.678)"><path class="i" d="M32.09,21.4c-.141,1.975-2.135-.179-2.135-.179.322,1.259-1.885-.212-1.885-.212.529,1.121-1.695-.355-1.695-.355s-1.027,2.287-1.724,2.579c-.008.135-.017.271-.017.409,0,2.88,1.868,5.214,4.171,5.214s4.171-2.335,4.171-5.214c0-.136-.008-.269-.016-.4C32.29,23.311,32.09,21.4,32.09,21.4Z" transform="translate(-24.633 -20.652)"/></g><g transform="translate(0 0)"><path d="M39.444,25.68a.736.736,0,1,1-.736-.736.736.736,0,0,1,.736.736" transform="translate(-27.59 -17.687)"/><path d="M31.444,25.68a.736.736,0,1,1-.736-.736.736.736,0,0,1,.736.736" transform="translate(-22.533 -17.687)"/><path d="M33.443,35.207a2.816,2.816,0,0,1-1.268-.316.368.368,0,1,1,.329-.658,1.978,1.978,0,0,0,1.878,0,.368.368,0,1,1,.329.658A2.816,2.816,0,0,1,33.443,35.207Z" transform="translate(-23.797 -23.534)"/><path d="M28.172,33.469c-2.5,0-4.539-2.5-4.539-5.582q0-.123,0-.244l.735.028q0,.108,0,.216c0,2.672,1.706,4.846,3.8,4.846s3.8-2.174,3.8-4.846c0-.073,0-.146,0-.218l.735-.024q0,.12,0,.242C32.712,30.964,30.675,33.469,28.172,33.469Z" transform="translate(-18.526 -19.392)"/><path class="k" d="M44.787,44.8" transform="translate(-31.897 -30.236)"/><path class="k" d="M49.888,45.854" transform="translate(-35.122 -30.904)"/><path d="M30.653,12.36h0l-9.44-.015a.369.369,0,0,1-.233-.084.887.887,0,0,1-.326-.657.685.685,0,0,1,.046-.236,1.164,1.164,0,0,1-.43-.692.7.7,0,0,1,.228-.593,13.423,13.423,0,0,1,5.45-1.876c.971-.106,3.383-.215,4.828,1.088.123.1.831.687.744,1.357a.9.9,0,0,1-.326.575.839.839,0,0,1,.119.651.7.7,0,0,1-.58.473A.367.367,0,0,1,30.653,12.36Zm-9.248-.75,9.166.014a1.2,1.2,0,0,0-.177-.236.368.368,0,0,1,.115-.6c.08-.034.267-.125.281-.232.024-.183-.274-.53-.489-.7a5.629,5.629,0,0,0-4.273-.919,13.475,13.475,0,0,0-5.02,1.675,1.192,1.192,0,0,0,.393.359.368.368,0,0,1,.037.608A.31.31,0,0,0,21.4,11.609Z" transform="translate(-16.396 -7.07)"/><path d="M35.186,7.088a.368.368,0,0,1-.368-.368V5.585a.368.368,0,1,1,.736,0V6.72A.368.368,0,0,1,35.186,7.088Z" transform="translate(-25.596 -5.217)"/><path d="M31.343,21.677a.726.726,0,0,1-.451-.161,1.935,1.935,0,0,1-.537-.949.838.838,0,0,1-.121.054c-.54.189-1.195-.235-1.652-.626a.6.6,0,0,1-.061.05c-.387.274-1.076.019-1.715-.342a.453.453,0,0,1-.037.035c-.133.115-.433.372-1.819-.481-.377.78-1.112,2.141-1.759,2.392a.368.368,0,0,1-.379-.069c-1.446-1.3-.137-3.694-.08-3.8a.368.368,0,0,1,.322-.189h8.484a.368.368,0,0,1,.27.118,3.23,3.23,0,0,1,.3,3.281c-.19.435-.421.663-.688.679A.709.709,0,0,1,31.343,21.677Zm.009-.736.005,0a.188.188,0,0,1,.036-.006A.238.238,0,0,0,31.351,20.941Zm-.84-1.843a.368.368,0,0,1,.366.329,3.346,3.346,0,0,0,.443,1.491,2.753,2.753,0,0,0,.352-1.231,2.144,2.144,0,0,0-.306-1.357H23.282c-.219.471-.7,1.713-.166,2.488a9.476,9.476,0,0,0,1.343-2.25A.368.368,0,0,1,25,18.413a7.848,7.848,0,0,0,1.125.628.368.368,0,0,1,.57-.273,4.757,4.757,0,0,0,1.336.654c0-.013-.006-.028-.01-.045a.368.368,0,0,1,.626-.341c.49.528,1.142.958,1.345.89.042-.015.129-.136.154-.486A.368.368,0,0,1,30.5,19.1Z" transform="translate(-17.579 -13.041)"/><path class="k" d="M51.481,46.221" transform="translate(-36.128 -31.136)"/><path class="k" d="M42.23,47.775a.954.954,0,0,0,.121-.07,1.063,1.063,0,0,0,.342-.372,1.048,1.048,0,0,0,.136-.441,1.067,1.067,0,0,0-.11-.6l-.11-.283" transform="translate(-30.281 -31.004)"/><path class="k" d="M39.38,49.273a.969.969,0,0,1-.313.1.7.7,0,0,1-.213.015,1.1,1.1,0,0,1-.957-.6l-.177-.4" transform="translate(-27.43 -32.502)"/><path class="k" d="M36.38,45.537a3.893,3.893,0,0,0-2.218-.585c-.206.136-.4.265-.6.386a6.028,6.028,0,0,1-2.038.872,3.527,3.527,0,0,1-.622.063H30.85a5.583,5.583,0,0,1-2.939-1.109" transform="translate(-21.23 -30.334)"/><path class="k" d="M41.592,50.762l.206.162a1.885,1.885,0,0,1,.158,2.369,1.905,1.905,0,0,1-.9-2.174l.07-.235" transform="translate(-29.488 -34.006)"/><path class="k" d="M29.463,50.111a2.6,2.6,0,0,0,.512.366,3.01,3.01,0,0,0,.676.267q.115.031.238.054a6.26,6.26,0,0,0,2.738-.194" transform="translate(-22.211 -33.595)"/><path class="k" d="M43.47,48.829l.007.015.125.217a2.2,2.2,0,0,0,2.274,1.129A2.2,2.2,0,0,0,44,48.458l-.383-.055" transform="translate(-31.065 -32.515)"/><path d="M15.6,48.508a6.192,6.192,0,0,1-3.684-1.2h0a6.393,6.393,0,0,1-.5-.421q-.158-.15-.3-.3a4.873,4.873,0,0,1-1.206-4.594,3.15,3.15,0,0,1,1.5-1.914,3.226,3.226,0,0,1,2.469-.3l.114.031c.805.213,2.9.766,3.4,4.137a2.082,2.082,0,0,1,1.936.738,1.752,1.752,0,0,1-.1,2.1,4.022,4.022,0,0,1-.7.767A4.474,4.474,0,0,1,15.6,48.508Zm-3.238-1.783c1.677,1.278,4.39,1.408,5.691.273a3.311,3.311,0,0,0,.569-.624,1.049,1.049,0,0,0,.114-1.254,1.44,1.44,0,0,0-1.552-.382.367.367,0,0,1-.473-.313c-.34-3.226-2.14-3.7-2.908-3.905l-.123-.033a2.494,2.494,0,0,0-1.909.23,2.42,2.42,0,0,0-1.151,1.47,4.143,4.143,0,0,0,1.039,3.9q.125.136.264.267a5.482,5.482,0,0,0,.439.371Z" transform="translate(-9.751 -26.987)"/><path class="k" d="M57.52,34.876l-.177-.331a2.012,2.012,0,0,1,1.363-2.653,2.015,2.015,0,0,1-.162,2.964l-.269.216" transform="translate(-39.738 -22.078)"/><path class="k" d="M55.191,43.524,53.767,49.03a.78.78,0,1,1-1.51-.391l1.424-5.507" transform="translate(-36.603 -29.184)"/><path class="k" d="M57.68,41.376,58,40.125l-.374-.1-.755-.2-.381-.1-.323,1.25Z" transform="translate(-39.092 -27.036)"/></g></svg>