<svg xmlns="http://www.w3.org/2000/svg" width="21.358" height="18.046" viewBox="0 0 21.358 18.046"><defs><style>.a{fill:#ea5a47;}.b{fill:#d22f27;}.c,.d{fill:none;stroke:#000;stroke-miterlimit:10;}.d{stroke-linecap:round;stroke-linejoin:round;}</style></defs><g transform="translate(0.5 0.5)"><g transform="translate(0 0)"><path class="a" d="M45.591,16.473c-1.758,0-4.877,1.713-6.431,3.381a1.81,1.81,0,0,1,.481,1.238,15.289,15.289,0,0,1-.056,2.7c4.11,1.275,5.137,4.438,7.162,1.751C49.057,22.471,47.764,16.473,45.591,16.473Z" transform="translate(-27.62 -16.117)"/><path class="b" d="M39.639,21.252c1.651-1.5,4.36-2.909,5.952-2.909,1.19,0,2.116,1.8,2.331,3.929.292-2.829-.8-5.8-2.331-5.8-1.758,0-4.877,1.713-6.431,3.381a1.81,1.81,0,0,1,.481,1.238C39.64,21.146,39.639,21.2,39.639,21.252Z" transform="translate(-27.62 -16.117)"/><path class="a" d="M14.951,20.087v.163c0,.546,0,.958,0,1.27v.759a1.844,1.844,0,0,0,.039.44c0,.011,0,.021.007.032a.1.1,0,0,1,.011.035h0c-2.546.791-3.908,2.305-5.057,2.7a1.527,1.527,0,0,1-1.773-.553,5.158,5.158,0,0,1-.33-.4,6.124,6.124,0,0,1-1.06-2.5v-.007c-.05-.252-.089-.507-.113-.762-.018-.156-.032-.312-.035-.468s-.014-.309-.014-.461c0-1.972.628-3.848,1.553-4.564a1.388,1.388,0,0,1,.174-.121A1.285,1.285,0,0,1,9,15.47a3.644,3.644,0,0,1,.7.074q.122.021.245.053c.074.018.152.039.231.06a12.983,12.983,0,0,1,5.118,3.053Z" transform="translate(-6.62 -15.47)"/><path class="b" d="M14.951,20.087v.163a12.871,12.871,0,0,0-5-2.78A4.182,4.182,0,0,0,9,17.342a1.335,1.335,0,0,0-.826.309,1.586,1.586,0,0,0-.124.1,5.754,5.754,0,0,0-1.38,3.518c-.018-.156-.032-.312-.035-.468s-.014-.309-.014-.461c0-1.972.628-3.848,1.553-4.564a1.387,1.387,0,0,1,.174-.121A1.285,1.285,0,0,1,9,15.47a3.644,3.644,0,0,1,.7.074q.122.021.245.053c.074.018.152.039.231.06a12.983,12.983,0,0,1,5.118,3.053Z" transform="translate(-6.62 -15.47)"/><path class="a" d="M21.381,36.82a8.238,8.238,0,0,0-1.206.552,33.8,33.8,0,0,0-3.657,6.461c-.118.265.063.583.3.531l1.71-.374a.561.561,0,0,1,.618.368l.77,1.735c.135.3.5.243.565-.094a57.775,57.775,0,0,1,2.028-7.9A1.59,1.59,0,0,1,21.381,36.82Z" transform="translate(-12.984 -29.248)"/><path class="a" d="M39.866,37.392a7.811,7.811,0,0,0-1.221-.572,1.59,1.59,0,0,1-1.13,1.283A57.765,57.765,0,0,1,39.543,46c.066.337.43.4.565.094l.77-1.735a.561.561,0,0,1,.618-.368l1.71.374c.24.052.421-.265.3-.531A33.885,33.885,0,0,0,39.866,37.392Z" transform="translate(-26.558 -29.248)"/><path class="a" d="M32.142,22.718h-.6A1.708,1.708,0,0,0,30.11,24.6v2.357a1.708,1.708,0,0,0,1.436,1.883h.6a1.708,1.708,0,0,0,1.436-1.883V24.6A1.708,1.708,0,0,0,32.142,22.718Z" transform="translate(-21.78 -20.148)"/><path class="b" d="M35.452,23.394a2.251,2.251,0,0,1,.335,1.207v2.357a1.708,1.708,0,0,1-1.436,1.883h-.6a1.143,1.143,0,0,1-.553-.145,1.961,1.961,0,0,0,.884-1.738V24.6a1.961,1.961,0,0,0-.884-1.738,1.143,1.143,0,0,1,.553-.145h.6a1.333,1.333,0,0,1,1.1.676Z" transform="translate(-23.775 -20.148)"/></g><g transform="translate(0 0)"><path class="c" d="M52.618,15.791a1.258,1.258,0,0,0-.625-.172,7.257,7.257,0,0,0-2.913.87" transform="translate(-34.022 -15.566)"/><path class="c" d="M40.357,23.247c4.11,1.275,5.137,4.438,7.162,1.751,2.079-2.759,1.241-7.891-.53-8.894" transform="translate(-28.392 -15.879)"/><path class="c" d="M42.678,18.073a12.832,12.832,0,0,0-3.518,2.51" transform="translate(-27.62 -17.15)"/><path class="c" d="M14.951,20.087v.163c0,.546,0,.958,0,1.27,0,.362,0,.592,0,.759a1.844,1.844,0,0,0,.039.44c0,.007,0,.011,0,.018a.2.2,0,0,1,.014.05h0c-2.546.791-3.908,2.305-5.057,2.7a1.527,1.527,0,0,1-1.773-.553,5.158,5.158,0,0,1-.33-.4,6.124,6.124,0,0,1-1.06-2.5c-.05-.255-.089-.511-.113-.77-.018-.156-.032-.312-.035-.468s-.014-.309-.014-.461c0-1.972.628-3.848,1.553-4.564a1.388,1.388,0,0,1,.174-.121A1.285,1.285,0,0,1,9,15.47a3.644,3.644,0,0,1,.7.074q.122.021.245.053c.074.018.152.039.231.06a12.983,12.983,0,0,1,5.118,3.053" transform="translate(-6.62 -15.47)"/><path class="d" d="M21.381,36.82a8.238,8.238,0,0,0-1.206.552,33.8,33.8,0,0,0-3.657,6.461c-.118.265.063.583.3.531l1.71-.374a.561.561,0,0,1,.618.368l.77,1.735c.135.3.5.243.565-.094a57.775,57.775,0,0,1,2.028-7.9A1.59,1.59,0,0,1,21.381,36.82Z" transform="translate(-12.984 -29.248)"/><path class="d" d="M39.866,37.392a7.811,7.811,0,0,0-1.221-.572,1.59,1.59,0,0,1-1.13,1.283A57.765,57.765,0,0,1,39.543,46c.066.337.43.4.565.094l.77-1.735a.561.561,0,0,1,.618-.368l1.71.374c.24.052.421-.265.3-.531A33.885,33.885,0,0,0,39.866,37.392Z" transform="translate(-26.558 -29.248)"/><path class="c" d="M32.142,22.718h-.6A1.708,1.708,0,0,0,30.11,24.6v2.357a1.708,1.708,0,0,0,1.436,1.883h.6a1.708,1.708,0,0,0,1.436-1.883V24.6A1.708,1.708,0,0,0,32.142,22.718Z" transform="translate(-21.78 -20.148)"/></g></g></svg>