<svg xmlns="http://www.w3.org/2000/svg" width="21.284" height="15.748" viewBox="0 0 21.284 15.748"><defs><style>.a{fill:#d0cfce;}.b,.c{fill:none;stroke:#000;stroke-miterlimit:10;}.c{stroke-linecap:round;stroke-linejoin:round;}</style></defs><g transform="translate(0.5 0.5)"><g transform="translate(0 0)"><path class="a" d="M62.672,19.135c0-1.941-1.672-3.971-1.672-3.362s.309,8.7.309,8.7L61,29.758a.653.653,0,0,0,1.306,0l-.173-5.319A44.8,44.8,0,0,0,62.672,19.135Z" transform="translate(-42.388 -15.663)"/><path class="a" d="M6.423,16.74s.036,1.358.036,2.647A2,2,0,0,1,5.747,21.2h0l.009,9.279a.653.653,0,1,1-1.306,0l.265-9.277h0A1.992,1.992,0,0,1,4,19.387c0-1.289.036-2.647.036-2.647" transform="translate(-4 -16.388)"/><line class="a" y2="3.13" transform="translate(1.23 0.352)"/><circle class="a" cx="6.517" cy="6.517" r="6.517" transform="translate(3.932 0.11)"/><circle class="a" cx="3.967" cy="3.967" r="3.967" transform="translate(6.483 2.673)"/></g><g transform="translate(0 0)"><path class="b" d="M62.672,19.135c0-1.941-1.672-3.971-1.672-3.362s.309,8.7.309,8.7L61,29.758a.653.653,0,0,0,1.306,0l-.173-5.319A44.8,44.8,0,0,0,62.672,19.135Z" transform="translate(-42.388 -15.663)"/><path class="c" d="M6.423,16.74s.036,1.358.036,2.647A2,2,0,0,1,5.747,21.2h0l.009,9.279a.653.653,0,1,1-1.306,0l.265-9.277h0A1.992,1.992,0,0,1,4,19.387c0-1.289.036-2.647.036-2.647" transform="translate(-4 -16.388)"/><line class="c" y2="3.13" transform="translate(1.23 0.352)"/><circle class="c" cx="6.517" cy="6.517" r="6.517" transform="translate(3.932 0.11)"/><circle class="c" cx="3.967" cy="3.967" r="3.967" transform="translate(6.483 2.673)"/></g></g></svg>