<svg xmlns="http://www.w3.org/2000/svg" width="10.45" height="23.347" viewBox="0 0 10.45 23.347"><defs><style>.a{fill:#d0cfce;}.b,.c{fill:none;stroke:#000;stroke-miterlimit:10;}.c{stroke-linecap:round;stroke-linejoin:round;}</style></defs><g transform="translate(0.5 0.5)"><g transform="translate(0 0)"><path class="a" d="M29.484,20.924c0-2.941-2.534-6.017-2.534-5.094s.469,13.177.469,13.177l-.469,8.014a.99.99,0,0,0,1.979,0l-.262-8.06A67.9,67.9,0,0,0,29.484,20.924Z" transform="translate(-26.95 -15.663)"/><path class="a" d="M42.189,16.74s.055,2.057.055,4.011c0,1.465-.445,2.385-1.079,2.753h0l.014,14.061a.99.99,0,1,1-1.979,0l.4-14.058h0c-.637-.367-1.084-1.288-1.084-2.756,0-1.953.055-4.011.055-4.011" transform="translate(-32.794 -16.207)"/></g><g transform="translate(0 0)"><path class="b" d="M29.484,20.924c0-2.941-2.534-6.017-2.534-5.094s.469,13.177.469,13.177l-.469,8.014a.99.99,0,0,0,1.979,0l-.262-8.06A67.9,67.9,0,0,0,29.484,20.924Z" transform="translate(-26.95 -15.663)"/><path class="c" d="M42.189,16.74s.055,2.057.055,4.011c0,1.465-.445,2.385-1.079,2.753h0l.014,14.061a.99.99,0,1,1-1.979,0l.4-14.058h0c-.637-.367-1.084-1.288-1.084-2.756,0-1.953.055-4.011.055-4.011" transform="translate(-32.794 -16.207)"/><line class="c" y2="4.742" transform="translate(7.587 0.533)"/></g></g></svg>