<svg xmlns="http://www.w3.org/2000/svg" width="22.208" height="18.758" viewBox="0 0 22.208 18.758"><defs><style>.a{fill:#ea5a47;}.b{fill:#d22f27;}.c,.d{fill:none;stroke:#000;stroke-miterlimit:10;}.d{stroke-linecap:round;stroke-linejoin:round;}</style></defs><g transform="translate(0.5 0.5)"><g transform="translate(0 0)"><path class="a" d="M45.86,16.473c-1.832,0-5.081,1.784-6.7,3.522a1.886,1.886,0,0,1,.5,1.289,15.929,15.929,0,0,1-.058,2.809c4.282,1.328,5.352,4.624,7.461,1.824C49.47,22.722,48.124,16.473,45.86,16.473Z" transform="translate(-27.137 -16.102)"/><path class="b" d="M39.659,21.452c1.72-1.567,4.542-3.03,6.2-3.03,1.24,0,2.2,1.874,2.428,4.094.3-2.948-.835-6.043-2.428-6.043-1.832,0-5.081,1.784-6.7,3.522a1.886,1.886,0,0,1,.5,1.289C39.66,21.341,39.659,21.4,39.659,21.452Z" transform="translate(-27.137 -16.102)"/><path class="a" d="M15.3,20.28v.17c0,.569,0,1,0,1.323v.791a1.921,1.921,0,0,0,.041.458c0,.011,0,.022.007.033a.108.108,0,0,1,.011.037h0c-2.653.824-4.072,2.4-5.269,2.815a1.591,1.591,0,0,1-1.847-.576,5.374,5.374,0,0,1-.344-.414,6.38,6.38,0,0,1-1.1-2.6v-.007c-.052-.262-.092-.528-.118-.794-.018-.163-.033-.325-.037-.488s-.015-.321-.015-.48c0-2.054.654-4.009,1.618-4.755a1.445,1.445,0,0,1,.181-.126,1.339,1.339,0,0,1,.68-.2,3.8,3.8,0,0,1,.732.078q.127.022.255.055c.078.018.159.041.24.063a13.526,13.526,0,0,1,5.331,3.181Z" transform="translate(-6.62 -15.47)"/><path class="b" d="M15.3,20.28v.17a13.409,13.409,0,0,0-5.213-2.9,4.357,4.357,0,0,0-.986-.133,1.391,1.391,0,0,0-.861.321,1.652,1.652,0,0,0-.129.107,6,6,0,0,0-1.437,3.665c-.018-.163-.033-.325-.037-.488s-.015-.321-.015-.48c0-2.054.654-4.009,1.618-4.755a1.446,1.446,0,0,1,.181-.126,1.339,1.339,0,0,1,.68-.2,3.8,3.8,0,0,1,.732.078q.127.022.255.055c.078.018.159.041.24.063a13.526,13.526,0,0,1,5.331,3.181Z" transform="translate(-6.62 -15.47)"/><path class="a" d="M21.585,36.82a8.583,8.583,0,0,0-1.256.575,35.211,35.211,0,0,0-3.81,6.732c-.123.276.065.607.316.553l1.781-.389a.584.584,0,0,1,.644.383l.8,1.808c.14.316.52.253.588-.1a60.19,60.19,0,0,1,2.112-8.227A1.657,1.657,0,0,1,21.585,36.82Z" transform="translate(-12.837 -28.932)"/><path class="a" d="M39.965,37.416a8.137,8.137,0,0,0-1.272-.6,1.657,1.657,0,0,1-1.178,1.336,60.18,60.18,0,0,1,2.112,8.227c.069.351.448.414.588.1l.8-1.808a.584.584,0,0,1,.644-.383l1.781.389c.25.055.439-.276.316-.553A35.3,35.3,0,0,0,39.965,37.416Z" transform="translate(-26.1 -28.932)"/><path class="a" d="M32.227,22.718h-.62a1.779,1.779,0,0,0-1.5,1.961v2.455a1.779,1.779,0,0,0,1.5,1.961h.62a1.779,1.779,0,0,0,1.5-1.961V24.68A1.779,1.779,0,0,0,32.227,22.718Z" transform="translate(-21.431 -20.04)"/><path class="b" d="M35.546,23.422A2.345,2.345,0,0,1,35.9,24.68v2.455A1.779,1.779,0,0,1,34.4,29.1h-.62a1.19,1.19,0,0,1-.576-.151,2.043,2.043,0,0,0,.921-1.81V24.68a2.043,2.043,0,0,0-.921-1.81,1.19,1.19,0,0,1,.576-.151h.62a1.389,1.389,0,0,1,1.148.7Z" transform="translate(-23.381 -20.04)"/></g><g transform="translate(0 0)"><path class="c" d="M52.765,15.8a1.311,1.311,0,0,0-.651-.179,7.56,7.56,0,0,0-3.035.907" transform="translate(-33.392 -15.564)"/><path class="c" d="M40.357,23.546c4.282,1.328,5.352,4.624,7.461,1.824,2.166-2.875,1.293-8.221-.553-9.265" transform="translate(-27.892 -15.87)"/><path class="c" d="M42.825,18.073a13.369,13.369,0,0,0-3.665,2.615" transform="translate(-27.137 -17.111)"/><path class="c" d="M15.3,20.28v.17c0,.569,0,1,0,1.323,0,.377,0,.617,0,.791a1.921,1.921,0,0,0,.041.458c0,.007,0,.011,0,.018a.212.212,0,0,1,.015.052h0c-2.653.824-4.072,2.4-5.269,2.815a1.591,1.591,0,0,1-1.847-.576,5.374,5.374,0,0,1-.344-.414,6.38,6.38,0,0,1-1.1-2.6c-.052-.266-.092-.532-.118-.8-.018-.163-.033-.325-.037-.488s-.015-.321-.015-.48c0-2.054.654-4.009,1.618-4.755a1.445,1.445,0,0,1,.181-.126,1.339,1.339,0,0,1,.68-.2,3.8,3.8,0,0,1,.732.078q.127.022.255.055c.078.018.159.041.24.063a13.526,13.526,0,0,1,5.331,3.181" transform="translate(-6.62 -15.47)"/><path class="d" d="M21.585,36.82a8.583,8.583,0,0,0-1.256.575,35.211,35.211,0,0,0-3.81,6.732c-.123.276.065.607.316.553l1.781-.389a.584.584,0,0,1,.644.383l.8,1.808c.14.316.52.253.588-.1a60.19,60.19,0,0,1,2.112-8.227A1.657,1.657,0,0,1,21.585,36.82Z" transform="translate(-12.837 -28.932)"/><path class="d" d="M39.965,37.416a8.137,8.137,0,0,0-1.272-.6,1.657,1.657,0,0,1-1.178,1.336,60.18,60.18,0,0,1,2.112,8.227c.069.351.448.414.588.1l.8-1.808a.584.584,0,0,1,.644-.383l1.781.389c.25.055.439-.276.316-.553A35.3,35.3,0,0,0,39.965,37.416Z" transform="translate(-26.1 -28.932)"/><path class="c" d="M32.227,22.718h-.62a1.779,1.779,0,0,0-1.5,1.961v2.455a1.779,1.779,0,0,0,1.5,1.961h.62a1.779,1.779,0,0,0,1.5-1.961V24.68A1.779,1.779,0,0,0,32.227,22.718Z" transform="translate(-21.431 -20.04)"/></g></g></svg>