<svg xmlns="http://www.w3.org/2000/svg" width="17.803" height="19.343" viewBox="0 0 17.803 19.343"><defs><style>.a{fill:#92d3f5;}.b{fill:#61b2e4;}.c{fill:#a57939;}.d{fill:#6a462f;}.e{fill:none;stroke:#000;stroke-linecap:round;stroke-linejoin:round;stroke-miterlimit:10;}</style></defs><g transform="translate(0.5 0.588)"><g transform="translate(0 8.306)"><path class="a" d="M44.414,42.678l-.459.229a.247.247,0,0,1-.354-.29A2.944,2.944,0,0,1,45.049,41.3,6.2,6.2,0,0,1,43.5,37.224C43.408,33.827,45.564,33,45.564,33A4.206,4.206,0,0,1,48.2,37.284,6.365,6.365,0,0,1,46.139,41.3a2.767,2.767,0,0,1,1.4,1.332.248.248,0,0,1-.356.283l-.471-.235A2.588,2.588,0,0,0,44.414,42.678Z" transform="translate(-33.055 -33)"/><path class="a" d="M39.788,46.23c-.145,0-1.313.025-1.5.053V45.195a1.838,1.838,0,0,1,1.5-1.32" transform="translate(-29.263 -40.913)"/><path class="a" d="M58.627,43.03a2.025,2.025,0,0,1,1.831,1.392l-.8,2.923a.869.869,0,0,0-.544-.338,3.37,3.37,0,0,0-1.05-.14,6.89,6.89,0,0,0,.561-3.838" transform="translate(-43.656 -40.299)"/><path class="b" d="M58.627,43.03a2.025,2.025,0,0,1,1.831,1.392l-.8,2.923a.869.869,0,0,0-.544-.338,3.37,3.37,0,0,0-1.05-.14,6.89,6.89,0,0,0,.561-3.838" transform="translate(-43.656 -40.299)"/><path class="b" d="M50.905,42.409s1.828.488,2.017.488a2.261,2.261,0,0,0-1.268-1.591s1.954-2.5,1.943-4.316A4.345,4.345,0,0,0,50.954,33c1.074,1.3,2.06,1.807,1.719,4.193A14.627,14.627,0,0,1,50.905,42.409Z" transform="translate(-38.445 -33)"/><path class="c" d="M7.88,48.118,6.712,52.88A3.374,3.374,0,0,1,5.15,52.5l1.168-4.761A3.678,3.678,0,0,0,7.88,48.118Z" transform="translate(-5.15 -43.722)"/><path class="d" d="M9.929,48.916a3.085,3.085,0,0,0,.614.062L9.375,53.739a4.278,4.278,0,0,1-.565-.065Z" transform="translate(-7.813 -44.582)"/></g><g transform="translate(0 0)"><circle cx="0.481" cy="0.481" r="0.481" transform="translate(12.798 10.237)"/><path class="e" d="M60.734,46.759a.986.986,0,0,1,.548.4l.676-2.738a2.025,2.025,0,0,0-1.831-1.392" transform="translate(-45.155 -31.993)"/><path class="e" d="M44.414,42.678l-.459.229a.247.247,0,0,1-.354-.29A2.944,2.944,0,0,1,45.049,41.3,6.2,6.2,0,0,1,43.5,37.224C43.408,33.827,45.564,33,45.564,33A4.206,4.206,0,0,1,48.2,37.284,6.365,6.365,0,0,1,46.139,41.3a2.767,2.767,0,0,1,1.4,1.332.248.248,0,0,1-.356.283l-.471-.235A2.588,2.588,0,0,0,44.414,42.678Z" transform="translate(-33.055 -24.694)"/><path class="e" d="M38.785,45.98c-.145.008-.31.023-.5.047v-.973a1.746,1.746,0,0,1,1.5-1.18" transform="translate(-29.263 -32.607)"/><path class="e" d="M23.682,10.806l.03-6.848s-1.01-2.4-4.507-1.038C15.97,4.184,14.244,10.5,13.426,13.95" transform="translate(-11.173 -2.5)"/><path class="e" d="M7.88,48.118,6.712,52.88A3.374,3.374,0,0,1,5.15,52.5l1.168-4.761A3.678,3.678,0,0,0,7.88,48.118Z" transform="translate(-5.15 -35.416)"/><path class="e" d="M6.053,61.529a3.678,3.678,0,0,0,1.561.383" transform="translate(-5.807 -45.454)"/></g></g></svg>