<svg xmlns="http://www.w3.org/2000/svg" width="15.52" height="20.835" viewBox="0 0 15.52 20.835"><defs><style>.a{fill:#fcea2b;}.b,.c{fill:none;stroke:#000;}.b{stroke-miterlimit:10;}.c{stroke-linecap:round;stroke-linejoin:round;}</style></defs><g transform="translate(0.5 0.5)"><g transform="translate(1.488 0)"><circle class="a" cx="1.125" cy="1.125" r="1.125" transform="translate(0 0)"/><path class="a" d="M25.468,22.219a9.243,9.243,0,0,0,1.239,3.39c.092.163.574,1.044.574,1.044l-2.437,3.97-.094,6.749h1.284l.685-5.624,2.25-2.25,2.25-1.875v-1.5L28.968,22" transform="translate(-24.457 -17.536)"/><path class="a" d="M38.875,36,41.5,39.749,45.311,42l-.375,1.125-4.562-1.875L37,38.25" transform="translate(-32.114 -26.287)"/><path class="a" d="M30.726,19.587c-.75-1.5-1.634-1.587-2.261-1.343a1.54,1.54,0,0,0-.738,2.093" transform="translate(-26.215 -15.123)"/></g><g transform="translate(0 0)"><circle class="b" cx="1.125" cy="1.125" r="1.125" transform="translate(1.488 0)"/><path class="c" d="M38.875,36l2.195,3.135a4.133,4.133,0,0,0,1.076,1l2.52,1.487a.886.886,0,0,1,.458.944.634.634,0,0,1-.881.277l-3.174-1.3a5.288,5.288,0,0,1-1.254-.783L37,38.25" transform="translate(-30.626 -26.287)"/><path class="c" d="M27.137,25.59l.216.495a1.77,1.77,0,0,1-.132,1.3l-1.962,2.6a3.121,3.121,0,0,0-.413,1.383l-.073,5.249a.693.693,0,0,0,.632.75.815.815,0,0,0,.733-.744l.5-4.135a2.545,2.545,0,0,1,.621-1.275l1.189-1.189c.291-.291.789-.746,1.106-1.01l1.1-.915a1.823,1.823,0,0,0,.576-1.23h0c.086-.747-1.1-2.168-1.3-2.53l-.945-2.346" transform="translate(-22.982 -17.532)"/><path class="c" d="M30.718,19.482c-.574-1.522-1.61-1.512-2.236-1.268a1.447,1.447,0,0,0-.888,1.437" transform="translate(-24.745 -15.094)"/><path class="c" d="M24.1,22l-.532,1.9a1.041,1.041,0,0,1-.944.721H20" transform="translate(-20 -17.536)"/></g></g></svg>