<svg xmlns="http://www.w3.org/2000/svg" width="16.385" height="18.584" viewBox="0 0 16.385 18.584"><defs><style>.a{fill:#d0cfce;}.b,.c{fill:none;stroke:#000;stroke-linejoin:round;}.c{stroke-linecap:round;}</style></defs><g transform="translate(0.5 0.5)"><g transform="translate(0 0)"><path class="a" d="M29.385,51.13a11.177,11.177,0,0,0-.35-2.448,3.262,3.262,0,0,0-3.5-2.8H17.846a3.262,3.262,0,0,0-3.5,2.8A11.177,11.177,0,0,0,14,51.13" transform="translate(-14 -33.197)"/><path class="a" d="M32.741,16.939c-.35-1.049,1.049-1.049.7-1.748s-1.049-.967-1.049-1.748c0-1.049-.35-3.846-3.147-3.846-4.2,0-5.245,2.568-5.245,4.2,0,1.437.906,2.511,1.4,3.5a6.176,6.176,0,0,0,2.448,2.8c1.483.494,4.545.821,4.545-.353,0-.7.35-1.054.35-1.4l-1.049-.7Z" transform="translate(-20.503 -9.597)"/></g><g transform="translate(0 0)"><path class="b" d="M32.837,17.155a4.586,4.586,0,0,1-.216-1.084s1.365-.249.825-.953c-.3-.394-.9-1.171-.866-1.519a3.442,3.442,0,0,0-3.684-4c-3.846,0-4.9,2.448-4.9,4.2,0,2.031,1.045,2.8,1.4,3.846.5,1.494,1.748,2.448,3.846,2.8,1.379.23,3.5.35,3.286-1.049a4.712,4.712,0,0,1,.174-1.188l-1-.481Z" transform="translate(-20.503 -9.597)"/><line class="c" y1="0.682" x2="0.682" transform="translate(13.832 5.798)"/><line class="c" x2="0.699" transform="translate(14.685 7.652)"/><line class="c" x2="0.699" y2="0.699" transform="translate(13.986 8.533)"/><path class="c" d="M29.385,50.781a9.784,9.784,0,0,0-.35-2.1,4.05,4.05,0,0,0-4.2-2.8H18.9c-2.1,0-4.122,1.1-4.545,2.8a9.784,9.784,0,0,0-.35,2.1" transform="translate(-14 -33.197)"/></g></g></svg>