<svg xmlns="http://www.w3.org/2000/svg" width="25.175" height="25.876" viewBox="0 0 25.175 25.876"><defs><style>.a{fill:#fcea2b;}.b{fill:#fff;}.c{fill:#f1b31c;}.d,.e{fill:none;stroke:#000;}.d{stroke-miterlimit:10;}.e{stroke-linecap:round;stroke-linejoin:round;}</style></defs><g transform="translate(0.703 0.703)"><g transform="translate(0 0)"><ellipse class="a" cx="9.736" cy="7.417" rx="9.736" ry="7.417" transform="matrix(0.628, -0.779, 0.779, 0.628, 0, 15.161)"/><path class="b" d="M34.618,9.407a6.27,6.27,0,0,0-4.46-1.294,6.03,6.03,0,0,1,3.379,1.294c3.189,2.571,3.039,8.048-.335,12.235a10.879,10.879,0,0,1-7.425,4.22c2.861.214,6.155-1.3,8.505-4.22C37.657,17.455,37.807,11.977,34.618,9.407Z" transform="translate(-16.701 -4.752)"/><path class="c" d="M28.491,12.225c-.166-.134-.341-.262-.522-.382l-.037-.015a.345.345,0,0,0-.186-.034.31.31,0,0,0-.176.079l-.032.023c-.006.007-.008.016-.014.023s-.014.011-.019.019a.317.317,0,0,0-.015.037.344.344,0,0,0-.034.188.328.328,0,0,0,.015.061.28.28,0,0,0,.063.113.316.316,0,0,0,.023.033c2.776,2.561,2.487,7.625-.659,11.528-3.254,4.036-8.374,5.325-11.413,2.875a.322.322,0,0,0-.062-.032l-.019-.01a.325.325,0,0,0-.1-.025l-.027,0a.307.307,0,0,0-.2.066l-.033.019c-.006.006-.009.014-.015.02s-.013.008-.018.015a.314.314,0,0,0-.016.031.322.322,0,0,0-.039.076.314.314,0,0,0-.008.033.326.326,0,0,0-.009.1c0,.007,0,.013,0,.02a.323.323,0,0,0,.032.1l.009.015a.32.32,0,0,0,.037.061,6.73,6.73,0,0,0,.767.724A7.086,7.086,0,0,0,20.3,29.513a10.88,10.88,0,0,0,8.226-4.264C32.023,20.9,32.01,15.061,28.491,12.225Z" transform="translate(-9.498 -7.217)"/><path class="c" d="M20.652,28.957c.024-.078.2-.742.228-.82,1.984.035,2.082-.031,2.377-1.009.557-1.847.719-2.178,1.276-4.025.2-.648.161-.789-.768-.966l-.566-.1c.021-.068.148-.7.169-.764a31.606,31.606,0,0,0,4.1-.264l-1.844,6.372c-.288.995-.252,1.074,1.653,1.442-.022.079-.2.744-.223.823Z" transform="translate(-13.295 -13.34)"/></g><g transform="translate(0 0)"><path class="d" d="M28.436,12.777q.255.168.5.363c3.38,2.725,3.371,8.344-.02,12.552s-8.881,5.41-12.262,2.686a6.4,6.4,0,0,1-.728-.687" transform="translate(-10.151 -7.872)"/><ellipse class="d" cx="9.736" cy="7.417" rx="9.736" ry="7.417" transform="matrix(0.628, -0.779, 0.779, 0.628, 0, 15.161)"/><line class="d" x2="1.102" y2="0.931" transform="translate(17.66 16.89)"/><line class="d" x2="0.971" y2="1.044" transform="translate(16.5 18.146)"/><line class="d" x2="0.797" y2="1.114" transform="translate(15.273 19.166)"/><line class="d" x2="0.628" y2="1.122" transform="translate(13.927 20.064)"/><line class="d" x2="1.17" y2="0.81" transform="translate(18.552 15.635)"/><path class="e" d="M20.652,28.957c.024-.078.2-.742.228-.82,1.984.035,2.082-.031,2.377-1.009.557-1.847.719-2.178,1.276-4.025.2-.648.161-.789-.768-.966l-.566-.1c.021-.068.148-.7.169-.764a31.606,31.606,0,0,0,4.1-.264l-1.844,6.372c-.288.995-.252,1.074,1.653,1.442-.022.079-.2.744-.223.823Z" transform="translate(-13.295 -13.34)"/></g></g></svg>