<svg xmlns="http://www.w3.org/2000/svg" width="20.356" height="18.901" viewBox="0 0 20.356 18.901"><defs><style>.a,.b{fill:#9b9b9a;}.a{stroke:#9b9b9a;stroke-width:2px;}.a,.c,.d,.e{stroke-miterlimit:10;}.c,.e{fill:none;}.c,.d,.e{stroke:#000;}.d,.e{stroke-linecap:round;stroke-linejoin:round;}</style></defs><g transform="translate(0.5 0.501)"><g transform="translate(0 0.629)"><path class="a" d="M34.355,14.376V8.386s.413-.752.943,0v5.99" transform="translate(-25.195 -8.052)"/><path class="b" d="M14.905,36.82H11.621a.579.579,0,0,0-.506.309,4.67,4.67,0,0,1-2.936,2.539.972.972,0,0,1-.153.02C3.5,39.821,5.8,33.852,5.8,33.852a15.924,15.924,0,0,1,2.769-4.681A.582.582,0,0,1,8.972,29H20.809a.582.582,0,0,1,.408.166,15.924,15.924,0,0,1,2.769,4.681s2.3,5.969-2.231,5.836a.976.976,0,0,1-.153-.02,4.67,4.67,0,0,1-2.936-2.539.579.579,0,0,0-.506-.309H14.876" transform="translate(-5.213 -22.418)"/></g><g transform="translate(0 0)"><path class="c" d="M36.4,18.021" transform="translate(-26.596 -14.258)"/><path class="c" d="M38.482,18.021" transform="translate(-28.024 -14.258)"/><path class="c" d="M35.917,18.021" transform="translate(-26.265 -14.258)"/><path class="c" d="M38,18.021" transform="translate(-27.694 -14.258)"/><path class="c" d="M14.905,36.82H11.621a.579.579,0,0,0-.506.309,4.67,4.67,0,0,1-2.936,2.539.972.972,0,0,1-.153.02C3.5,39.821,5.8,33.852,5.8,33.852a15.924,15.924,0,0,1,2.769-4.681A.582.582,0,0,1,8.972,29H20.809a.582.582,0,0,1,.408.166,15.924,15.924,0,0,1,2.769,4.681s2.3,5.969-2.231,5.836a.976.976,0,0,1-.153-.02,4.67,4.67,0,0,1-2.936-2.539.579.579,0,0,0-.506-.309H14.876" transform="translate(-5.213 -21.789)"/><path class="d" d="M17.591,38.376v.255H14.647v-.255h2.943Z" transform="translate(-11.682 -28.215)"/><path class="d" d="M18.924,34.1h.255v2.943h-.255V34.1Z" transform="translate(-14.614 -25.282)"/><circle cx="1.257" cy="1.257" r="1.257" transform="translate(6.613 11.3)"/><circle cx="1.257" cy="1.257" r="1.257" transform="translate(10.228 11.3)"/><circle cx="0.629" cy="0.629" r="0.629" transform="translate(13.014 9.66)"/><circle cx="0.629" cy="0.629" r="0.629" transform="translate(15.676 9.66)"/><circle cx="0.629" cy="0.629" r="0.629" transform="translate(14.345 10.84)"/><circle cx="0.629" cy="0.629" r="0.629" transform="translate(14.345 8.492)"/><path class="e" d="M34.355,12.034V6.368a.679.679,0,0,1,.406-.312c.151-.024.336.041.537.312v5.666" transform="translate(-25.195 -6.052)"/></g></g></svg>