<svg xmlns="http://www.w3.org/2000/svg" width="17.447" height="17.033" viewBox="0 0 17.447 17.033"><defs><style>.a{fill:#d0cfce;}.b,.c{fill:none;stroke:#000;stroke-linejoin:round;stroke-miterlimit:10;}.b{stroke-linecap:round;}</style></defs><g transform="translate(0.5 0.5)"><g transform="translate(0 0)"><path class="a" d="M46.808,38.219l3.613,2.945a.516.516,0,0,0,.842-.4V32.156a.516.516,0,0,0-.842-.4l-3.713,3.026" transform="translate(-34.815 -25.26)"/><circle class="a" cx="2.449" cy="2.449" r="2.449" transform="translate(0.007)"/><circle class="a" cx="2.449" cy="2.449" r="2.449" transform="translate(6.996)"/><path class="a" d="M22.957,41.394H13.036A1.036,1.036,0,0,1,12,40.359V33.036A1.036,1.036,0,0,1,13.036,32h9.921a1.036,1.036,0,0,1,1.036,1.036v7.323A1.036,1.036,0,0,1,22.957,41.394Z" transform="translate(-12 -25.497)"/></g><g transform="translate(0 0)"><path class="b" d="M46.808,38.219l3.613,2.945a.516.516,0,0,0,.842-.4V32.156a.516.516,0,0,0-.842-.4l-3.713,3.026" transform="translate(-34.815 -25.26)"/><circle class="c" cx="2.449" cy="2.449" r="2.449" transform="translate(0.007)"/><circle class="c" cx="2.449" cy="2.449" r="2.449" transform="translate(6.996)"/><path class="c" d="M22.957,41.394H13.036A1.036,1.036,0,0,1,12,40.359V33.036A1.036,1.036,0,0,1,13.036,32h9.921a1.036,1.036,0,0,1,1.036,1.036v7.323A1.036,1.036,0,0,1,22.957,41.394Z" transform="translate(-12 -25.497)"/></g></g></svg>