<svg xmlns="http://www.w3.org/2000/svg" width="13.956" height="17.519" viewBox="0 0 13.956 17.519"><defs><style>.a{fill:#3f3f3f;}.b{fill:#d0cfce;}.c{fill:#9b9b9a;}.d{fill:none;stroke:#000;stroke-linecap:round;stroke-linejoin:round;stroke-miterlimit:10;}</style></defs><g transform="translate(0.5 0.5)"><g transform="translate(5.039 5.021)"><circle class="a" cx="1.44" cy="1.44" r="1.44" transform="translate(0 0)"/><path class="b" d="M34,45.1h1.3L34.648,37Z" transform="translate(-33.208 -33.923)"/><path class="c" d="M35.987,37l.648,8.1H35.98l.006-8.1" transform="translate(-34.547 -33.923)"/></g><g transform="translate(0 0)"><circle class="d" cx="1.44" cy="1.44" r="1.44" transform="translate(5.039 5.021)"/><path class="d" d="M33.648,38,33,46.1h1.943L34.3,38" transform="translate(-27.494 -29.578)"/><path class="d" d="M24.507,24.627a6.478,6.478,0,1,0-4.058,0" transform="translate(-16 -12)"/><path class="d" d="M27.669,26.365a4.859,4.859,0,1,0-3.62,0" transform="translate(-19.38 -15.38)"/><path class="d" d="M30.825,28.062a3.239,3.239,0,1,0-3.171,0" transform="translate(-22.761 -18.761)"/></g></g></svg>