<svg xmlns="http://www.w3.org/2000/svg" width="27.06" height="20.433" viewBox="0 0 27.06 20.433"><defs><style>.a{fill:#fcea2b;stroke:#fcea2b;}.a,.b,.e,.f,.g{stroke-linecap:round;}.a,.b,.e,.f{stroke-linejoin:round;}.a,.b,.e,.g{stroke-miterlimit:10;}.a,.b{stroke-width:2px;}.b{fill:#f1b31c;stroke:#f1b31c;}.c{fill:#b1cc33;}.d{fill:#8967aa;}.e,.f,.g{fill:none;stroke:#000;}</style></defs><g transform="translate(1 0.5)"><g transform="translate(0 0)"><path class="a" d="M19.363,35,12.5,46.833H26.227L19.363,35" transform="translate(-12.5 -27.9)"/><path class="b" d="M19.363,35V46.833H12.5L19.363,35" transform="translate(-12.5 -27.9)"/><path class="c" d="M47.013,25.971c0-1.677-1.723-3.04-3.849-3.04a4.877,4.877,0,0,0-.531.034A5.718,5.718,0,0,0,37.5,20a5.411,5.411,0,0,0-5.659,5.122,4.689,4.689,0,0,0,.035.559A3.132,3.132,0,0,0,29.5,28.491c0,1.677,1.723,3.04,3.849,3.04a4.528,4.528,0,0,0,2.308-.611,6.432,6.432,0,0,0,4.01,1.235c2.757,0,4.992-1.361,4.992-3.04a1.886,1.886,0,0,0-.031-.331A3.136,3.136,0,0,0,47.013,25.971Z" transform="translate(-21.453 -20)"/><path class="d" d="M21.733,54a20.5,20.5,0,0,1-2.367.473A2.367,2.367,0,0,0,17,56.84h4.733Z" transform="translate(-14.87 -37.907)"/></g><g transform="translate(0 0)"><path class="e" d="M27,60" transform="translate(-20.137 -41.067)"/><path class="f" d="M44.157,53.238V49.606l-2.5-2.444" transform="translate(-27.855 -34.305)"/><line class="f" y1="1.499" x2="1.423" transform="translate(16.572 13.751)"/><path class="e" d="M19.363,35,12.5,46.833H26.227l-3.282-5.659" transform="translate(-12.5 -27.9)"/><line class="e" y1="7.455" transform="translate(6.863 11.478)"/><line class="e" y2="7.455" transform="translate(6.863 11.478)"/><path class="g" d="M47.013,25.971c0-1.677-1.723-3.04-3.849-3.04a4.877,4.877,0,0,0-.531.034A5.718,5.718,0,0,0,37.5,20a5.411,5.411,0,0,0-5.659,5.122,4.689,4.689,0,0,0,.035.559A3.132,3.132,0,0,0,29.5,28.491c0,1.677,1.723,3.04,3.849,3.04a4.528,4.528,0,0,0,2.308-.611,6.432,6.432,0,0,0,4.01,1.235c2.757,0,4.992-1.361,4.992-3.04a1.886,1.886,0,0,0-.031-.331A3.136,3.136,0,0,0,47.013,25.971Z" transform="translate(-21.453 -20)"/><path class="e" d="M21.733,54a20.5,20.5,0,0,1-2.367.473A2.367,2.367,0,0,0,17,56.84h4.733Z" transform="translate(-14.87 -37.907)"/></g></g></svg>