<svg xmlns="http://www.w3.org/2000/svg" width="14.826" height="18.479" viewBox="0 0 14.826 18.479"><defs><style>.a{fill:#f4aa41;}.b{fill:#fcea2b;}.c{fill:#fff;}.d{fill:#3f3f3f;}.e,.f{fill:none;stroke:#000;stroke-linejoin:round;}.e{stroke-linecap:round;}</style></defs><g transform="translate(0.515 0.5)"><g transform="translate(1.832 0)"><g transform="translate(0)"><path class="a" d="M23.447,21.409c-1.086,0-1.447-2.533-1.447-5.066C22,14.171,23.809,12,27.066,12s5.066,2.171,5.066,4.342c0,2.533-.362,5.066-1.447,5.066" transform="translate(-22 -12)"/></g></g><g transform="translate(2.86 3.076)"><g transform="translate(0 0)"><path class="b" d="M24.841,24.119c-.037,2.895,1.47,5.066,3.981,5.066,2.556,0,4-2.171,4-5.066A8.191,8.191,0,0,0,31.739,20.5c-2.895,0-3.619,1.086-5.79.362A6.18,6.18,0,0,0,24.841,24.119Z" transform="translate(-24.84 -20.5)"/></g></g><g transform="translate(0 12.705)"><path class="c" d="M30.688,52.1s.724-4.993-3.619-4.993A5.962,5.962,0,0,1,23.813,48.4h.045A5.962,5.962,0,0,1,20.6,47.109c-4.342,0-3.619,4.993-3.619,4.993" transform="translate(-16.938 -47.109)"/><path class="d" d="M20.6,47.109c-4.342,0-3.619,5.054-3.619,5.054h5.751s-1.6-1.181-2.133-5.054" transform="translate(-16.938 -47.109)"/><path class="d" d="M41.27,47.109c4.342,0,3.619,5.054,3.619,5.054h-5.7s1.962-2.693,2.08-5.054" transform="translate(-31.138 -47.109)"/><path d="M33.565,50.6s-.437,2.179.835,2.179.835-2.179.835-2.179" transform="translate(-27.502 -49.336)"/><path class="d" d="M26.732,50.852l-.874,1.316c-1.314-.635-2.052-4.691-2.052-4.691l-1.847,2.509,1.076.667-.361,1.127,3.209.388" transform="translate(-20.141 -47.344)"/><path class="d" d="M36.85,50.852l.874,1.316c1.314-.635,2.053-4.691,2.053-4.691l1.847,2.509-1.076.667.361,1.127-3.209.388" transform="translate(-29.644 -47.344)"/><path d="M33.222,55.569l-1.575,1.993h3.127Z" transform="translate(-26.324 -52.508)"/></g><g transform="translate(0 0)"><path d="M39.32,28.724A.724.724,0,1,1,38.6,28a.724.724,0,0,1,.724.724" transform="translate(-30.297 -22.21)"/><path d="M31.32,28.724A.724.724,0,1,1,30.6,28a.724.724,0,0,1,.724.724" transform="translate(-25.192 -22.21)"/><path class="e" d="M32.873,38.25a2.994,2.994,0,0,0,2.171,0" transform="translate(-27.106 -28.751)"/><path class="e" d="M23.447,21.409c-1.086,0-1.447-2.533-1.447-5.066C22,14.171,23.809,12,27.066,12s5.066,2.171,5.066,4.342c0,2.533-.362,5.066-1.447,5.066" transform="translate(-20.168 -12)"/><path d="M39.32,28.724A.724.724,0,1,1,38.6,28a.724.724,0,0,1,.724.724" transform="translate(-30.297 -22.21)"/><path d="M31.32,28.724A.724.724,0,1,1,30.6,28a.724.724,0,0,1,.724.724" transform="translate(-25.192 -22.21)"/><path class="f" d="M24.936,23.981c-.037,2.895,1.786,5.066,3.981,5.066,2.148,0,4-2.171,4-5.066A10.828,10.828,0,0,0,31.834,20c-2.895,0-3.619,1.086-5.79.362A8.406,8.406,0,0,0,24.936,23.981Z" transform="translate(-22.041 -17.105)"/><path class="e" d="M32.873,38.25a2.994,2.994,0,0,0,2.171,0" transform="translate(-27.106 -28.751)"/><path class="e" d="M33.565,50.412s-.437,2.179.835,2.179.835-2.179.835-2.179" transform="translate(-27.502 -36.512)"/><path class="e" d="M26.732,50.483,25.858,51.8c-1.314-.635-2.052-4.691-2.052-4.691l-1.847,2.509,1.076.667-.361,1.127,3.209.388" transform="translate(-20.141 -34.404)"/><path class="e" d="M36.85,50.483l.874,1.316c1.314-.635,2.053-4.691,2.053-4.691l1.847,2.509-1.076.667.361,1.127L37.7,51.8" transform="translate(-29.644 -34.404)"/><path class="e" d="M16.983,51.813s-.724-4.7,3.619-4.7a5.948,5.948,0,0,0,3.257,1.3h-.045a5.948,5.948,0,0,0,3.257-1.3c4.342,0,3.619,4.7,3.619,4.7" transform="translate(-16.938 -34.404)"/></g></g></svg>