<svg xmlns="http://www.w3.org/2000/svg" width="20.6" height="20.966" viewBox="0 0 20.6 20.966"><defs><style>.a{fill:#fcea2b;}.b,.c{fill:none;stroke:#000;}.b{stroke-linecap:round;stroke-linejoin:round;}.c{stroke-miterlimit:10;}</style></defs><g transform="translate(0.27 0.517)"><g transform="translate(0 0.039)"><path class="a" d="M22.045,11.232l-1.193.263-6.192,7.076L11.667,23.9l.816,4.6,5.282,2.886,3.929-.017,5.733.085.978-.641.306-1.565-.306-.647,1.463-.034.544-.681.34-.952-.646-1.225.646-.272.783-1.088-.374-1.123-1.021-.476.476-.885.068-1.395-1.055-.612-5.375-.2-.34-.272-.349-.244H19.84l.026-.709,1.6-3.913.681-1.871Z" transform="translate(-11.667 -11.232)"/></g><g transform="translate(0.23 0)"><path class="b" d="M21.626,43.032H17.952c-3.4,0-5.716-2.728-5.716-6.124A8.009,8.009,0,0,1,14.277,31.6" transform="translate(-12.234 -23.246)"/><path class="b" d="M24.335,19.491H22.543L25.4,12.143c.331-.851-1.139-1.551-2.041-.408l-6.124,7.757" transform="translate(-15.192 -11.137)"/><path class="b" d="M37.448,33.011a1.546,1.546,0,0,0,1.633,1.429h5.307a1.442,1.442,0,1,0,0-2.858H39.081A1.546,1.546,0,0,0,37.448,33.011Z" transform="translate(-27.153 -23.228)"/><path class="b" d="M38.305,54.347a1.546,1.546,0,0,0,1.633,1.429H42.8a1.442,1.442,0,1,0,0-2.858H39.938A1.546,1.546,0,0,0,38.305,54.347Z" transform="translate(-27.66 -35.854)"/><path class="b" d="M33.236,40.347a1.546,1.546,0,0,0,1.633,1.429h7.757a1.442,1.442,0,1,0,0-2.858H34.869A1.546,1.546,0,0,0,33.236,40.347Z" transform="translate(-24.66 -27.569)"/><path class="b" d="M35.236,47.347a1.546,1.546,0,0,0,1.633,1.429h6.124a1.442,1.442,0,1,0,0-2.858H36.869A1.546,1.546,0,0,0,35.236,47.347Z" transform="translate(-25.844 -31.711)"/><path class="c" d="M13.008,36.263a7.943,7.943,0,0,0-.778,3.2c0,3.495,1.888,6.328,6.175,6.328" transform="translate(-12.23 -26.005)"/></g></g></svg>