<svg xmlns="http://www.w3.org/2000/svg" width="16.193" height="16.193" viewBox="0 0 16.193 16.193"><defs><style>.a{fill:#61b2e4;}.b{fill:#fff;}.c,.d{fill:none;stroke:#000;stroke-miterlimit:10;}.d{stroke-linecap:round;stroke-linejoin:round;}</style></defs><g transform="translate(0.5 0.5)"><g transform="translate(0 0)"><path class="a" d="M24.978,12H12.215A1.215,1.215,0,0,0,11,13.215V25.978a1.215,1.215,0,0,0,1.215,1.215H24.978a1.215,1.215,0,0,0,1.215-1.215V13.215A1.215,1.215,0,0,0,24.978,12Z" transform="translate(-11 -12)"/><path class="b" d="M36.535,21.726H37.96V19.59c-.95,0-4.748-.95-4.748,3.086V24.1h-1.9v2.374h1.9v6.239h2.374V26.474h2.137L37.96,24.1H35.586V22.676A.838.838,0,0,1,36.535,21.726Z" transform="translate(-25.14 -17.216)"/></g><g transform="translate(0 0)"><path class="c" d="M21.519,27.193h3.694a.98.98,0,0,0,.98-.98V12.98a.98.98,0,0,0-.98-.98H11.98a.98.98,0,0,0-.98.98V26.213a.98.98,0,0,0,.98.98h7.134" transform="translate(-11 -12)"/><path class="d" d="M35.7,31.914V25.9h2.165l.241-2.406H35.7V22.051a.85.85,0,0,1,.962-.962H38.1V18.923c-.972-.1-4.811-.962-4.811,3.127v1.443H31.368V25.9h1.925v6.014" transform="translate(-25.179 -16.721)"/></g></g></svg>