<svg xmlns="http://www.w3.org/2000/svg" width="16.602" height="16.617" viewBox="0 0 16.602 16.617"><defs><style>.a{fill:#f4aa41;}.b{fill:#e27022;}.c{fill:none;stroke:#000;stroke-linecap:round;stroke-linejoin:round;stroke-miterlimit:10;}</style></defs><g transform="translate(0.573 0.572)"><g transform="translate(0 0)"><path class="a" d="M27.137,12.4A11.993,11.993,0,0,0,12.5,27.076l.016.016A11.993,11.993,0,0,0,27.153,12.419" transform="translate(-12.096 -12.011)"/><path class="b" d="M27.836,20.353a12.623,12.623,0,0,1-4.978,8.338,11.923,11.923,0,0,1-10.4,1.61,11.977,11.977,0,0,0,.377,2.428l.016.016a11.939,11.939,0,0,0,11.486-3.107A12.675,12.675,0,0,0,27.836,20.353Z" transform="translate(-12.342 -17.656)"/></g><g transform="translate(0 0)"><path class="c" d="M27.137,12.4A11.993,11.993,0,0,0,12.5,27.076l.016.016A11.993,11.993,0,0,0,27.153,12.419" transform="translate(-12.096 -12.011)"/><line class="c" x1="14.657" y2="14.657" transform="translate(0.4 0.409)"/><line class="c" x1="1.319" y1="1.319" transform="translate(8.212 5.935)"/><line class="c" x1="1.319" y1="1.319" transform="translate(9.355 4.792)"/><line class="c" x1="1.319" y1="1.319" transform="translate(7.069 7.078)"/><line class="c" x1="1.319" y1="1.319" transform="translate(5.926 8.221)"/><line class="c" x1="1.319" y1="1.319" transform="translate(4.783 9.364)"/><path class="c" d="M26.016,32.733a3.218,3.218,0,0,1,.422-1.6" transform="translate(-21.516 -24.951)"/><path class="c" d="M37.63,44.746a3.218,3.218,0,0,1-1.614.431" transform="translate(-28.283 -34.163)"/><path class="c" d="M45.112,36.079a3.218,3.218,0,0,1-.432,1.615" transform="translate(-34.146 -28.298)"/><path class="c" d="M30.986,26.518a3.218,3.218,0,0,1,1.6-.438" transform="translate(-24.879 -21.531)"/></g></g></svg>