<svg xmlns="http://www.w3.org/2000/svg" width="20.372" height="20.5" viewBox="0 0 20.372 20.5"><defs><style>.a{fill:#92d3f5;}.b{fill:#fff;}.c{fill:#61b2e4;}.d{fill:#d0cfce;}.e{fill:#9b9b9a;}.f{fill:#a57939;}.g{fill:#fcea2b;}.h{fill:none;stroke:#000;stroke-linecap:round;stroke-linejoin:round;stroke-miterlimit:10;}</style></defs><g transform="translate(0.53 13.666)"><path class="a" d="M17.207,50.125s-.775-5.23,3.874-5.23a6.368,6.368,0,0,0,3.487,1.392h-.048c1.191,0,1.824-.838,3.06-1.663,6.032,0,4.455,5.5,4.455,5.5" transform="translate(-17.158 -44.159)"/><path class="b" d="M31.569,50.681l-1.255-1.523-1.255-1.523h5.019l-1.255,1.523Z" transform="translate(-24.449 -46.003)"/><path class="c" d="M24.446,44.92s-2.286,1.56-.837,2.893H25.38l-.323,1.45,3.057.756.112-.971-3.239-4.015" transform="translate(-20.815 -44.34)"/><path class="d" d="M47.52,43.423l-2.692,6.334H35.147l2.692-6.334Z" transform="translate(-28.178 -43.423)"/><path class="e" d="M57.538,43.423l-2.692,6.334H51.363l2.692-6.334h3.483Z" transform="translate(-38.112 -43.423)"/></g><g transform="translate(2.721 0.391)"><path class="f" d="M45.558,18.072c.35,1.167.7,2.7-.189,3.275,0,0-.5-2.011-1.15-2.372" transform="translate(-35.927 -14.618)"/><path class="f" d="M24.848,13.346a7.74,7.74,0,0,0,6.531-.027,3.274,3.274,0,0,0,.83-.648,1.846,1.846,0,0,0,.087-2.458L31.276,11c-3.423-3.423-7.234-1.39-6.977.555,0,0-2.69,1.4-.827,4.441Z" transform="translate(-22.815 -9.156)"/></g><g transform="translate(3.288 4.492)"><path class="g" d="M32.274,19.8a7.74,7.74,0,0,1-6.531.027l-1.375,2.65c-.028-.045-.051-.088-.076-.132-.006.115-.014.23-.014.347,0,3.032,1.967,5.491,4.393,5.491s4.393-2.458,4.393-5.491a6.486,6.486,0,0,0-.694-2.954C32.337,19.761,32.308,19.785,32.274,19.8Z" transform="translate(-24.278 -19.741)"/></g><g transform="translate(0 0)"><path d="M16.227,49.73a.387.387,0,0,1-.382-.328,5.746,5.746,0,0,1,1-4.174A4.072,4.072,0,0,1,20.1,43.92a.388.388,0,0,1,.215.065,6.037,6.037,0,0,0,3.256,1.326h.015a.387.387,0,0,1,0,.775h-.067a6.581,6.581,0,0,1-3.536-1.39,3.285,3.285,0,0,0-2.551,1.034,5.046,5.046,0,0,0-.825,3.555.386.386,0,0,1-.384.445Z" transform="translate(-15.791 -30.061)"/><path d="M28.932,48.5a.386.386,0,0,1-.3-.145l-2.814-3.514a.387.387,0,1,1,.6-.484l2.814,3.514a.387.387,0,0,1-.3.63Z" transform="translate(-21.88 -30.239)"/><path d="M26.343,49.125a.386.386,0,0,1-.087-.01l-1.9-.437a.388.388,0,0,1-.285-.486l.177-.6H23a.388.388,0,0,1-.262-.1,1.666,1.666,0,0,1-.6-1.377,3.411,3.411,0,0,1,1.483-2.121.387.387,0,0,1,.437.64c-.3.208-1.1.891-1.147,1.539a.85.85,0,0,0,.252.647h1.611a.387.387,0,0,1,.372.5l-.207.707,1.5.344a.387.387,0,0,1-.087.765Z" transform="translate(-19.673 -30.061)"/><path class="h" d="M35.147,49.756h9.681l2.692-6.334H37.839Z" transform="translate(-27.648 -29.756)"/><line class="h" x2="4.25" transform="translate(3.249 20)"/><path d="M39.522,25.818a.775.775,0,1,1-.775-.775.775.775,0,0,1,.775.775" transform="translate(-29.38 -18.497)"/><path d="M31.522,25.818a.775.775,0,1,1-.775-.775.775.775,0,0,1,.775.775" transform="translate(-24.479 -18.497)"/><path d="M33.522,35.359a2.965,2.965,0,0,1-1.335-.332.387.387,0,0,1,.347-.693,2.083,2.083,0,0,0,1.978,0,.387.387,0,0,1,.347.693A2.965,2.965,0,0,1,33.522,35.359Z" transform="translate(-25.704 -24.163)"/><path d="M28.292,32.519c-2.636,0-4.78-2.637-4.78-5.878a7.272,7.272,0,0,1,.04-.769.387.387,0,0,1,.77.082,6.532,6.532,0,0,0-.036.686c0,2.814,1.8,5.1,4.005,5.1s4-2.289,4-5.1a6.539,6.539,0,0,0-.036-.683.388.388,0,0,1,.771-.08,7.451,7.451,0,0,1,.039.763C33.071,29.882,30.927,32.519,28.292,32.519Z" transform="translate(-20.521 -18.793)"/><path d="M31.371,28.347h-.778a1.481,1.481,0,0,1-1.349-.873,1.48,1.48,0,0,1-1.348.873h-.778a1.48,1.48,0,0,1-1.478-1.478v-.48h-.268a.387.387,0,0,1,0-.775h.656a.387.387,0,0,1,.387.387v.867a.7.7,0,0,0,.7.7H27.9a.7.7,0,0,0,.7-.7V26.44a.387.387,0,0,1,.387-.387H29.5a.387.387,0,0,1,.387.387v.428a.7.7,0,0,0,.7.7h.778a.7.7,0,0,0,.7-.7V26a.387.387,0,0,1,.387-.387h.448a.387.387,0,0,1,0,.775h-.061v.48A1.48,1.48,0,0,1,31.371,28.347Z" transform="translate(-21.423 -18.847)"/><path class="h" d="M34.018,18.972" transform="translate(-26.957 -14.778)"/><path d="M44.757,21.122a.387.387,0,0,1-.376-.293,4.745,4.745,0,0,0-.963-2.128.388.388,0,0,1,.378-.677,3.551,3.551,0,0,1,1.1,1.814,5.4,5.4,0,0,0-.32-2.267.387.387,0,1,1,.742-.222c.262.874.877,2.922-.35,3.712A.386.386,0,0,1,44.757,21.122Z" transform="translate(-32.594 -13.614)"/><path d="M22.859,15.765a.388.388,0,0,1-.33-.185,3.777,3.777,0,0,1-.608-3.017,3.369,3.369,0,0,1,1.366-1.834,2.574,2.574,0,0,1,1.589-2.161c1.41-.7,3.653-.7,5.815,1.3l.755-.582a.388.388,0,0,1,.532.056,2.209,2.209,0,0,1-.1,2.971,3.686,3.686,0,0,1-.928.724,8.143,8.143,0,0,1-6.544.192L23.2,15.556a.387.387,0,0,1-.33.209Zm3.88-6.843a3.441,3.441,0,0,0-1.52.34,1.732,1.732,0,0,0-1.148,1.624.387.387,0,0,1-.2.394,2.67,2.67,0,0,0-1.2,1.5,2.651,2.651,0,0,0,.192,1.763l1.033-1.991a.388.388,0,0,1,.514-.17,7.393,7.393,0,0,0,6.173-.018,2.9,2.9,0,0,0,.733-.571,1.392,1.392,0,0,0,.274-1.63l-.683.527a.388.388,0,0,1-.511-.033A5.212,5.212,0,0,0,26.738,8.922Z" transform="translate(-19.48 -8.146)"/></g></svg>