<svg xmlns="http://www.w3.org/2000/svg" width="29.34" height="20.447" viewBox="0 0 29.34 20.447"><defs><style>.a{fill:#3f3f3f;}.b{fill:#fff;}.c{fill:none;stroke:#000;stroke-linecap:round;stroke-linejoin:round;stroke-miterlimit:10;}</style></defs><g transform="translate(0.512 0.509)"><g transform="translate(0 0.001)"><path class="a" d="M19.495,22.081c-.134-1.118-.681-4.433-.681-4.433a2.718,2.718,0,0,0-2.955-1.933s-2.95.945-3.79,1.171-3.876.883-3.876.883A2.72,2.72,0,0,0,6.6,20.92S7.789,24.062,8.23,25.1c.331.782,1.5,2.2,1.943,2.965.935,1.631,2.883,3.579,4.7,3.094l1.895-.509c1.818-.489,2.533-3.147,2.523-5.028C19.293,24.734,19.6,22.925,19.495,22.081Zm-8.319,1.127a.867.867,0,0,1-1.113-.446c-.106-.384.225-.806.739-.945a.862.862,0,0,1,1.113.446C12.02,22.647,11.684,23.069,11.176,23.208ZM15.9,21.942a.871.871,0,0,1-1.113-.446c-.1-.384.23-.811.744-.945A.867.867,0,0,1,16.645,21C16.746,21.38,16.415,21.8,15.9,21.942ZM14.668,26.59c-1.151.312-1.554,2.547-1.861,1.4a2.158,2.158,0,0,1,4.169-1.118C17.283,28.02,15.82,26.283,14.668,26.59Z" transform="translate(-6.488 -15.664)"/><path class="a" d="M21.669,22.918a5.092,5.092,0,0,1,2.447-.438,2.805,2.805,0,0,1,1.5,1.01Z" transform="translate(-14.386 -19.19)"/><path class="a" d="M14.058,24.565a5.092,5.092,0,0,0-2.338.844,2.806,2.806,0,0,0-.793,1.625Z" transform="translate(-8.797 -20.295)"/><path class="b" d="M49.68,25.764s-3.032-.657-3.871-.883-3.795-1.175-3.795-1.175a2.727,2.727,0,0,0-2.955,1.938s-.547,3.315-.681,4.433c-.1.844.2,2.653.2,3.54-.01,1.881.705,4.538,2.523,5.028L43,39.154c1.818.485,3.766-1.463,4.7-3.094.441-.768,1.612-2.183,1.943-2.965.441-1.036,1.626-4.179,1.626-4.179A2.72,2.72,0,0,0,49.68,25.764Zm-8.549,3.2a.867.867,0,0,1,1.113-.446c.513.134.844.556.744.94a.867.867,0,0,1-1.113.446C41.362,29.775,41.031,29.353,41.131,28.969Zm4.4,5.287a2.16,2.16,0,0,1-4.174-1.118c.312-1.151.71,1.084,1.861,1.391S45.838,33.1,45.531,34.256Zm2.183-3.526a.868.868,0,0,1-1.113.451c-.509-.139-.844-.561-.739-.945a.862.862,0,0,1,1.113-.446C47.488,29.924,47.819,30.346,47.713,30.73Z" transform="translate(-23.068 -19.822)"/></g><g transform="translate(0.002 0)"><path class="c" d="M16.771,30.647l-1.9.508c-1.816.487-3.767-1.46-4.7-3.092-.44-.77-1.611-2.184-1.945-2.966-.442-1.035-1.623-4.177-1.623-4.177A2.719,2.719,0,0,1,8.2,17.765s3.03-.657,3.872-.882,3.795-1.172,3.795-1.172a2.719,2.719,0,0,1,2.952,1.938s.549,3.313.683,4.43c.1.844-.2,2.654-.2,3.54C19.3,27.5,18.587,30.16,16.771,30.647Z" transform="translate(-6.491 -15.662)"/><path class="c" d="M23.747,37.282c.309,1.152-1.157-.584-2.309-.275s-1.553,2.544-1.862,1.393a2.159,2.159,0,0,1,4.171-1.117Z" transform="translate(-13.26 -26.077)"/><ellipse class="c" cx="0.959" cy="0.72" rx="0.959" ry="0.72" transform="matrix(0.966, -0.259, 0.259, 0.966, 8.114, 5.135)"/><path class="c" d="M21.669,22.918a5.092,5.092,0,0,1,2.447-.438,2.805,2.805,0,0,1,1.5,1.01" transform="translate(-14.388 -19.189)"/><ellipse class="c" cx="0.959" cy="0.72" rx="0.959" ry="0.72" transform="matrix(0.966, -0.259, 0.259, 0.966, 3.386, 6.402)"/><path class="c" d="M14.058,24.565a5.092,5.092,0,0,0-2.338.844,2.806,2.806,0,0,0-.793,1.625" transform="translate(-8.799 -20.294)"/><path class="c" d="M43,39.155l-1.9-.508c-1.816-.487-2.532-3.148-2.525-5.028,0-.887-.3-2.7-.2-3.541.135-1.117.683-4.429.683-4.429a2.719,2.719,0,0,1,2.952-1.938s2.952.946,3.795,1.172,3.872.882,3.872.882a2.719,2.719,0,0,1,1.587,3.154s-1.181,3.143-1.623,4.178c-.334.782-1.5,2.2-1.944,2.965C46.764,37.695,44.813,39.641,43,39.155Z" transform="translate(-23.069 -19.824)"/><ellipse class="c" cx="0.72" cy="0.959" rx="0.72" ry="0.959" transform="matrix(0.259, -0.966, 0.966, 0.259, 22.604, 11.11)"/><path class="c" d="M54.349,32.512a5.092,5.092,0,0,1,2.338.844,2.806,2.806,0,0,1,.793,1.625" transform="translate(-31.39 -24.428)"/><ellipse class="c" cx="0.72" cy="0.959" rx="0.72" ry="0.959" transform="matrix(0.259, -0.966, 0.966, 0.259, 17.876, 9.842)"/><path class="c" d="M45.855,30.865a5.092,5.092,0,0,0-2.447-.438,2.805,2.805,0,0,0-1.5,1.01" transform="translate(-24.918 -23.323)"/><path class="c" d="M44.534,43.066c.309-1.152.71,1.084,1.862,1.393s2.617-1.427,2.309-.275a2.159,2.159,0,0,1-4.171-1.117Z" transform="translate(-26.245 -29.749)"/></g></g></svg>