<svg xmlns="http://www.w3.org/2000/svg" width="17.014" height="16.789" viewBox="0 0 17.014 16.789"><defs><style>.a{fill:#5c9e31;}.b{fill:#b1cc33;}.c{fill:none;stroke:#000;stroke-linecap:round;stroke-linejoin:round;}</style></defs><g transform="translate(0.5 0.66)"><g transform="translate(0 0.119)"><path class="a" d="M23.374,26.444h0a3.158,3.158,0,0,0-4.339-.889,2.945,2.945,0,0,0-1.428,4.014l.384-.412a6.415,6.415,0,0,1,1.561-1.206A8.07,8.07,0,0,1,23.374,26.444Z" transform="translate(-15.667 -21.748)"/><path class="b" d="M30.505,27.994a2.174,2.174,0,0,0-2.229.53,3.055,3.055,0,0,0-.787,1.178,2.471,2.471,0,0,0,1.14,3.273h0a8.5,8.5,0,0,1,1.876-4.982Z" transform="translate(-22.456 -23.641)"/><path class="a" d="M42.91,16.41h0A3.158,3.158,0,0,0,38.71,15a3.611,3.611,0,0,0-2.186,2.227,2.5,2.5,0,0,0,.046,1.651A9.175,9.175,0,0,1,42.91,16.41Z" transform="translate(-28.64 -14.726)"/><path class="b" d="M44.94,25.332c.483-1.833-.908-3.788-3.1-4.366a4.9,4.9,0,0,0-1.014-.157,3.614,3.614,0,0,0-3.839,2.428h0a13.136,13.136,0,0,1,7.957,2.1Z" transform="translate(-29.031 -18.847)"/><path class="a" d="M12.279,17.921a22.271,22.271,0,0,1,7.515.844l.251.142s.721-2.2-1.063-3.133C17.486,15,13.705,14.321,12.279,17.921Z" transform="translate(-12.279 -15.019)"/></g><g transform="translate(0 0)"><path class="c" d="M39.977,32.442a22.448,22.448,0,0,1,.947,9.761" transform="translate(-31.061 -26.621)"/><path class="c" d="M22.991,25.444h0a3.158,3.158,0,0,0-4.339-.889A3.158,3.158,0,0,0,17,28.665h0a10.682,10.682,0,0,1,1.959-1.631" transform="translate(-15.284 -20.951)"/><path class="c" d="M42.973,15.862h0a3.158,3.158,0,0,0-4.284-1.127A3.611,3.611,0,0,0,36.656,17.1a2.5,2.5,0,0,0,.156,1.644" transform="translate(-28.761 -14.357)"/><path class="c" d="M30.505,27.994a2.174,2.174,0,0,0-2.229.53,3.055,3.055,0,0,0-.787,1.178,2.471,2.471,0,0,0,1.14,3.273h0a8.5,8.5,0,0,1,1.876-4.982Z" transform="translate(-22.456 -23.523)"/><path class="c" d="M44.94,25.332c.483-1.833-.908-3.788-3.1-4.366a4.9,4.9,0,0,0-1.014-.157,3.614,3.614,0,0,0-3.839,2.428h0a13.136,13.136,0,0,1,7.957,2.1Z" transform="translate(-29.031 -18.729)"/><path class="c" d="M19.331,16.1l-.087-.081a5.128,5.128,0,0,0-2.215-1.165,3.778,3.778,0,0,0-4.75,2.477h0A12.813,12.813,0,0,1,14.5,17.29" transform="translate(-12.279 -14.605)"/><line class="c" x1="0.461" y1="0.04" transform="translate(13.752 1.464)"/></g></g></svg>