<svg xmlns="http://www.w3.org/2000/svg" width="22.879" height="16.583" viewBox="0 0 22.879 16.583"><defs><style>.a{fill:#f1b31c;}.b{fill:#92d3f5;}.c{fill:#fff;}.d{fill:#ea5a47;}.e{fill:none;stroke:#000;stroke-linecap:round;stroke-linejoin:round;stroke-miterlimit:10;}</style></defs><g transform="translate(0.444 0.508)"><g transform="translate(0 0)"><path class="a" d="M9.867,45.032c0-.437,4.77-4.663,10.479-3.711l.432.074,2.4.49A50.224,50.224,0,0,1,31.7,44.812a1.192,1.192,0,0,1,.291,1.057c-.173.575-1.533.91-1.533.91H28.011l-2.545.543-7.922-.106-5.457-.437H10.631a1.706,1.706,0,0,1-.764-.8A1.1,1.1,0,0,1,9.867,45.032Z" transform="translate(-9.764 -31.627)"/><path class="b" d="M12,52.658c.761-.886,1.894-2.369,3.056-2.183,1.261.2,2.029,1.775,2.8,1.775,1.259,0,1.975-1.567,3.745-1.775,1.577-.186,1.569,1,2.627,1.6a2.652,2.652,0,0,0,1.3.143c1.6.008,2.169-1.735,3.493-1.747,1.774-.016,3.234.682,3.493,2.183" transform="translate(-11.024 -36.852)"/><path class="c" d="M38.356,25.5a5.462,5.462,0,0,0-10.75-1.9Z" transform="translate(-19.816 -19.3)"/><path class="d" d="M39.292,25.021c.5-2.85-.053-5.33-1.24-5.539s-2.557,1.931-3.06,4.781Z" transform="translate(-23.977 -19.395)"/></g><g transform="translate(0.103 0)"><path class="e" d="M12,52.219c.761-.886,1.894-1.933,3.056-1.747,1.261.2,1.442,1.521,2.62,1.747,1.35.258,2.16-1.538,3.93-1.747,1.577-.186,1.771,1.053,2.911,1.548a2.51,2.51,0,0,0,1.019.2c1.6.008,2.181-1.57,3.493-1.747.58-.078,1.442.1,2.62,1.31" transform="translate(-11.127 -36.849)"/><path class="e" d="M41.687,44.08c3.945.9,6.576,1.93,8,1.93" transform="translate(-27.851 -33.26)"/><path class="e" d="M10,45.025c1.56-.156,4.257-3.877,9.965-2.925l.432.074" transform="translate(-10 -32.057)"/><path class="e" d="M38.356,25.5a5.462,5.462,0,0,0-10.75-1.9Z" transform="translate(-19.919 -19.3)"/><path class="e" d="M39.292,25.021c.5-2.85-.053-5.33-1.24-5.539s-2.557,1.931-3.06,4.781Z" transform="translate(-24.08 -19.395)"/><path class="e" d="M37.312,37.768h0l1.137-6.45h0Z" transform="translate(-25.386 -26.07)"/></g></g></svg>