<svg xmlns="http://www.w3.org/2000/svg" width="19.096" height="20" viewBox="0 0 19.096 20"><defs><style>.a{fill:#3f3f3f;}.b{fill:#fcea2b;}.c,.d{fill:none;stroke:#000;stroke-linecap:round;stroke-linejoin:round;}.c{stroke-miterlimit:10;}</style></defs><g transform="translate(0.5 0.5)"><g transform="translate(0.324 0)"><path class="a" d="M26.3,16.127l6.352-9.891,1.394.923-5.221,8.434" transform="translate(-20.931 -6.237)"/><path class="a" d="M12.722,51.386l-1.1,1.563L9.74,54.355l.651-2.289,1.233-1.794" transform="translate(-9.74 -36.003)"/></g><g transform="translate(0.493 4.602)"><path class="b" d="M10.991,31.539a2.466,2.466,0,0,1-.727-1.3l.871-5.981a.674.674,0,0,1,.347-.671l5.3-2.68c.169-.082-.4-.911,1.377-.148" transform="translate(-10.262 -20.438)"/><path class="b" d="M20.542,36.233l.214-1.281a.759.759,0,0,1,.324-.489l.683-.274" transform="translate(-17.211 -29.733)"/><path class="b" d="M21.943,51.673c.77,2.277,3.53,2.184,1.634-.7" transform="translate(-18.158 -41.077)"/><path class="b" d="M23.427,49.064c1.579,2.776,5.045,2.823,2.044-1.393" transform="translate(-19.161 -38.847)"/><path class="b" d="M28.121,48.4c4.313,5.751,4.57,1.428,1.643-.424" transform="translate(-22.334 -39.051)"/><path class="b" d="M29.112,33.841c-4.228.9-4.848-1.105-6.874-1.41a5.661,5.661,0,0,0-4.128,1.251c-1.44,1.388-3.326-.509-1.544-1.843l2.351-2.18L21.6,28.382l2.532-3.36,6.04,3.244a4.691,4.691,0,0,1,0,6.634c-1.467.16-4.066,1.355-7.632.864" transform="translate(-14.033 -23.537)"/><path class="b" d="M23.52,29.8h-7l2.793-2.4.3.357,2.6-.476,2.149-3.752,1.156.615Z" transform="translate(-14.49 -22.531)"/><rect class="b" width="6.96" height="3.651" transform="translate(7.063 8.253)"/></g><g transform="translate(0 0)"><path class="c" d="M10.632,31.541l.753-6.609a.674.674,0,0,1,.347-.671L17.3,21.436" transform="translate(-10.019 -16.511)"/><path class="c" d="M19.542,35.233l.214-1.281a.759.759,0,0,1,.324-.489l.683-.274" transform="translate(-16.042 -24.456)"/><path class="c" d="M26.063,15.812l6.428-9.576,1.394.923-5.337,8.135" transform="translate(-20.449 -6.237)"/><path class="c" d="M10.947,55.549l-.66.9L8.74,58.173l.893-2.227.661-.985" transform="translate(-8.74 -39.173)"/><path class="c" d="M42.442,26.252a53.177,53.177,0,0,1,5.3,2.846c2.079,1.545,1.832,4.8,0,6.634a31.241,31.241,0,0,1-5.9.659" transform="translate(-31.112 -19.766)"/><path class="d" d="M25.635,55.939c.2,1.046-1.433,1.551-1.651.043" transform="translate(-19.044 -39.834)"/><path class="d" d="M30.677,55.791c.207,1.042-1.389,1.339-1.6.048" transform="translate(-22.488 -39.734)"/><path class="d" d="M35.644,55.395c.214,1.042-1.414,1.183-1.633.128" transform="translate(-25.822 -39.466)"/><line class="c" x1="0.192" y1="0.901" transform="translate(9.629 15.028)"/><line class="c" x1="0.325" y1="1.476" transform="translate(7.864 14.581)"/><line class="c" x1="0.202" y1="0.997" transform="translate(6.388 15.108)"/><line class="c" x1="0.03" y1="0.219" transform="translate(4.909 15.929)"/><path class="c" d="M29.112,42.752c-4.228.9-4.848-1.105-6.874-1.41a5.661,5.661,0,0,0-4.128,1.251c-1.44,1.388-3.326-.509-1.544-1.843a15.393,15.393,0,0,1,2.351-1.856,19.663,19.663,0,0,1,3.1-.689" transform="translate(-13.54 -27.846)"/></g></g></svg>