<svg xmlns="http://www.w3.org/2000/svg" width="18.537" height="19.78" viewBox="0 0 18.537 19.78"><defs><style>.a{fill:#fff;}.b{fill:#ea5a47;}.c{fill:#d0cfce;}.d{fill:#9b9b9a;}.e{fill:none;stroke:#000;stroke-linecap:round;stroke-linejoin:round;stroke-miterlimit:10;}</style></defs><g transform="translate(0.298 0.5)"><g transform="translate(0 0)"><path class="a" d="M12,28.1v11.68l11.566,0,5.878-4.4c0-.018.093-1.442.093-1.442V28.092Z" transform="translate(-11.795 -21.003)"/><path class="b" d="M11.444,17.4l17.738-.073V11.488S26.8,11.123,27,11.123H25.7l.019,2.109c.631.167.786,1.128.786,1.128-.008.8-.978.924-.983.923-.675-.138-.909-.469-.9-1.024a1.056,1.056,0,0,1,.774-1.044l-.01-2.092H15.426l.026,2.092c.631.167.838.312.831.993-.007.8-.989,1.2-.993,1.2-.806-.008-1.093-.379-1.086-1.185a1.488,1.488,0,0,1,.6-.954c.187-.183.255-.3.5-.363l-.087-1.782H13.851c.078,0-2.2.365-2.2.365Z" transform="translate(-11.444 -10.233)"/><path class="c" d="M48.681,48.038H42.522s-.328,2.23-.355,2.054v1.982l.544.365Z" transform="translate(-30.943 -33.662)"/><line class="d" y2="3.766" transform="translate(3.862)"/><line class="d" y2="3.766" transform="translate(14.092)"/></g><g transform="translate(0.202 0)"><circle class="e" cx="1.096" cy="1.096" r="1.096" transform="translate(2.549 5.163) rotate(-89.45)"/><line class="e" x2="7.325" transform="translate(5.118 1.255)"/><path class="e" d="M27.35,12.122h2.186v5.845H12V12.122h2.2" transform="translate(-11.999 -10.868)"/><line class="e" y2="3.766" transform="translate(3.66)"/><circle class="e" cx="1.096" cy="1.096" r="1.096" transform="translate(12.779 5.162) rotate(-89.45)"/><line class="e" y2="3.766" transform="translate(13.89)"/><path class="e" d="M34.263,35.24A2.057,2.057,0,0,1,36.277,33.6h0a2.05,2.05,0,0,1,1.454.6,1.588,1.588,0,0,1-.018,2.153l-3.492,3.938H35.96" transform="translate(-26.102 -24.498)"/><path class="e" d="M23.276,34.987,25.129,33.6v6.693" transform="translate(-19.156 -24.498)"/><path class="e" d="M12,28.092V39.783l11.566,0,5.97-4.4V28.092" transform="translate(-11.997 -21.003)"/><path class="e" d="M49.206,48.038H43.138v2" transform="translate(-31.761 -33.662)"/></g></g></svg>