<svg xmlns="http://www.w3.org/2000/svg" width="27.245" height="28.006" viewBox="0 0 27.245 28.006"><defs><style>.a,.b{fill:none;stroke:#000;}.a{stroke-miterlimit:10;}.b{stroke-linecap:round;stroke-linejoin:round;}</style></defs><g transform="translate(0.703 0.703)"><path class="a" d="M29.526,12.777q.277.183.54.394c3.675,2.962,3.665,9.071-.022,13.645s-9.654,5.881-13.329,2.92a6.959,6.959,0,0,1-.792-.747" transform="translate(-9.649 -7.445)"/><ellipse class="a" cx="10.584" cy="8.063" rx="10.584" ry="8.063" transform="matrix(0.628, -0.779, 0.779, 0.628, 0, 16.48)"/><line class="a" x2="1.198" y2="1.012" transform="translate(19.197 18.36)"/><line class="a" x2="1.056" y2="1.135" transform="translate(17.936 19.725)"/><line class="a" x2="0.867" y2="1.211" transform="translate(16.603 20.835)"/><line class="a" x2="0.683" y2="1.219" transform="translate(15.139 21.811)"/><line class="a" x2="1.272" y2="0.88" transform="translate(20.167 16.996)"/><path class="b" d="M20.652,29.65c.026-.084.222-.807.248-.891,2.157.038,2.263-.033,2.584-1.1.606-2.008.782-2.367,1.387-4.376.212-.7.175-.858-.835-1.051l-.615-.113c.023-.074.161-.756.184-.83A34.357,34.357,0,0,0,28.058,21l-2,6.926c-.313,1.081-.274,1.168,1.8,1.568-.024.086-.218.809-.242.894Z" transform="translate(-12.654 -12.673)"/></g></svg>