<svg xmlns="http://www.w3.org/2000/svg" width="32.749" height="26.62" viewBox="0 0 32.749 26.62"><defs><style>.a{fill:#fcea2b;}.b{fill:#fff;}.c{fill:#f1b31c;}.d,.e{fill:none;stroke:#000;}.d{stroke-miterlimit:10;}.e{stroke-linecap:round;stroke-linejoin:round;}</style></defs><g transform="translate(-0.82 -4.228)"><g transform="matrix(0.899, -0.438, 0.438, 0.899, 5.452, 9.934)"><g transform="translate(0 0)"><ellipse class="a" cx="9.282" cy="7.071" rx="9.282" ry="7.071" transform="matrix(0.628, -0.779, 0.779, 0.628, 0, 14.453)"/><path class="b" d="M8.428,1.262A5.978,5.978,0,0,0,4.176.028,5.748,5.748,0,0,1,7.4,1.262c3.041,2.451,2.9,7.673-.319,11.664A10.372,10.372,0,0,1,0,16.949a9.947,9.947,0,0,0,8.108-4.023C11.325,8.935,11.468,3.713,8.428,1.262Z" transform="translate(8.653 3.175)"/><path class="c" d="M12.919.412c-.158-.127-.325-.25-.5-.364L12.385.034A.329.329,0,0,0,12.208,0a.3.3,0,0,0-.168.075L12.009.1C12,.105,12,.114,12,.121s-.013.011-.018.018a.3.3,0,0,0-.014.035.328.328,0,0,0-.033.18.313.313,0,0,0,.014.059.267.267,0,0,0,.06.107.3.3,0,0,0,.022.031C14.674,2.992,14.4,7.819,11.4,11.54,8.3,15.388,3.417,16.617.519,14.281a.307.307,0,0,0-.06-.031l-.018-.009a.31.31,0,0,0-.1-.024l-.026,0a.293.293,0,0,0-.189.062L.1,14.3c-.006.006-.009.013-.014.019s-.012.008-.017.014a.3.3,0,0,0-.015.029.307.307,0,0,0-.037.072.3.3,0,0,0-.008.031A.311.311,0,0,0,0,14.556c0,.006,0,.012,0,.019a.308.308,0,0,0,.031.1l.009.014a.3.3,0,0,0,.035.059,6.416,6.416,0,0,0,.731.69,6.755,6.755,0,0,0,4.3,1.456,10.373,10.373,0,0,0,7.842-4.065C16.286,8.686,16.273,3.116,12.919.412Z" transform="translate(5.188 4.361)"/><path class="c" d="M0,7.582c.023-.074.195-.708.218-.782,1.892.034,1.985-.029,2.266-.962C3.015,4.077,3.17,3.762,3.7,2c.186-.617.153-.753-.732-.921L2.429.98c.02-.065.141-.663.161-.728A30.131,30.131,0,0,0,6.5,0L4.737,6.074C4.463,7.023,4.5,7.1,6.313,7.45c-.021.075-.191.709-.212.784Z" transform="translate(7.014 7.307)"/></g><g transform="translate(0 0)"><path class="d" d="M11.93,0q.243.16.474.346c3.223,2.6,3.214,7.955-.02,11.967S3.917,17.471.694,14.873A6.1,6.1,0,0,1,0,14.218" transform="translate(5.502 4.676)"/><ellipse class="d" cx="9.282" cy="7.071" rx="9.282" ry="7.071" transform="matrix(0.628, -0.779, 0.779, 0.628, 0, 14.453)"/><line class="d" x2="1.05" y2="0.887" transform="translate(16.836 16.102)"/><line class="d" x2="0.926" y2="0.995" transform="translate(15.73 17.299)"/><line class="d" x2="0.76" y2="1.062" transform="translate(14.561 18.272)"/><line class="d" x2="0.599" y2="1.069" transform="translate(13.277 19.128)"/><line class="d" x2="1.115" y2="0.772" transform="translate(17.687 14.906)"/><path class="e" d="M0,7.582c.023-.074.195-.708.218-.782,1.892.034,1.985-.029,2.266-.962C3.015,4.077,3.17,3.762,3.7,2c.186-.617.153-.753-.732-.921L2.429.98c.02-.065.141-.663.161-.728A30.131,30.131,0,0,0,6.5,0L4.737,6.074C4.463,7.023,4.5,7.1,6.313,7.45c-.021.075-.191.709-.212.784Z" transform="translate(7.014 7.307)"/></g></g><g transform="matrix(0.839, 0.545, -0.545, 0.839, 10.509, 13.709)"><g transform="translate(0 0)"><ellipse class="a" cx="5.069" cy="3.862" rx="5.069" ry="3.862" transform="matrix(0.628, -0.779, 0.779, 0.628, 0, 7.893)"/><path class="b" d="M4.6.689A3.264,3.264,0,0,0,2.28.015,3.139,3.139,0,0,1,4.04.689c1.66,1.338,1.582,4.19-.174,6.37A5.664,5.664,0,0,1,0,9.256a5.432,5.432,0,0,0,4.428-2.2C6.185,4.879,6.263,2.027,4.6.689Z" transform="translate(4.725 1.734)"/><path class="c" d="M7.055.225c-.086-.07-.178-.136-.272-.2L6.764.019A.18.18,0,0,0,6.667,0a.161.161,0,0,0-.092.041L6.558.054s0,.008-.007.012-.007.006-.01.01a.166.166,0,0,0-.008.019.179.179,0,0,0-.018.1.171.171,0,0,0,.008.032.146.146,0,0,0,.033.059L6.568.3c1.445,1.333,1.295,3.97-.343,6C4.531,8.4,1.866,9.075.283,7.8a.168.168,0,0,0-.033-.017l-.01-.005a.169.169,0,0,0-.052-.013H.175a.16.16,0,0,0-.1.034l-.017.01s0,.007-.008.01-.007,0-.009.008l-.008.016a.167.167,0,0,0-.02.039A.163.163,0,0,0,0,7.9a.17.17,0,0,0,0,.052s0,.007,0,.01a.168.168,0,0,0,.017.054l0,.008a.166.166,0,0,0,.019.032,3.5,3.5,0,0,0,.4.377,3.689,3.689,0,0,0,2.347.8,5.665,5.665,0,0,0,4.282-2.22C8.894,4.744,8.887,1.7,7.055.225Z" transform="translate(2.833 2.382)"/><path class="c" d="M0,4.141c.013-.04.106-.387.119-.427C1.152,3.732,1.2,3.7,1.356,3.188c.29-.962.374-1.134.664-2.1.1-.337.084-.411-.4-.5L1.326.535C1.337.5,1.4.173,1.415.138A16.455,16.455,0,0,0,3.547,0l-.96,3.317c-.15.518-.131.559.861.751-.011.041-.1.387-.116.428Z" transform="translate(3.83 3.99)"/></g><g transform="translate(0 0)"><path class="d" d="M6.515,0q.133.088.259.189c1.76,1.418,1.755,4.344-.011,6.535S2.139,9.541.379,8.122A3.333,3.333,0,0,1,0,7.764" transform="translate(3.005 2.554)"/><ellipse class="d" cx="5.069" cy="3.862" rx="5.069" ry="3.862" transform="matrix(0.628, -0.779, 0.779, 0.628, 0, 7.893)"/><line class="d" x2="0.574" y2="0.484" transform="translate(9.194 8.793)"/><line class="d" x2="0.506" y2="0.543" transform="translate(8.59 9.447)"/><line class="d" x2="0.415" y2="0.58" transform="translate(7.952 9.979)"/><line class="d" x2="0.327" y2="0.584" transform="translate(7.251 10.446)"/><line class="d" x2="0.609" y2="0.421" transform="translate(9.659 8.14)"/><path class="e" d="M0,4.141c.013-.04.106-.387.119-.427C1.152,3.732,1.2,3.7,1.356,3.188c.29-.962.374-1.134.664-2.1.1-.337.084-.411-.4-.5L1.326.535C1.337.5,1.4.173,1.415.138A16.455,16.455,0,0,0,3.547,0l-.96,3.317c-.15.518-.131.559.861.751-.011.041-.1.387-.116.428Z" transform="translate(3.83 3.99)"/></g></g><g transform="matrix(0.999, 0.035, -0.035, 0.999, 11.293, 14.627)"><g transform="translate(0 0)"><ellipse class="a" cx="5.406" cy="4.118" rx="5.406" ry="4.118" transform="matrix(0.628, -0.779, 0.779, 0.628, 0, 8.418)"/><path class="b" d="M4.908.735A3.481,3.481,0,0,0,2.432.016,3.348,3.348,0,0,1,4.308.735C6.079,2.162,6,5.2,4.122,7.528A6.04,6.04,0,0,1,0,9.871,5.793,5.793,0,0,0,4.722,7.528C6.6,5.2,6.679,2.162,4.908.735Z" transform="translate(5.039 1.849)"/><path class="c" d="M7.524.24C7.432.166,7.335.095,7.234.028L7.213.02A.192.192,0,0,0,7.11,0a.172.172,0,0,0-.1.044L6.994.057s0,.009-.008.013-.008.006-.011.011A.176.176,0,0,0,6.968.1a.191.191,0,0,0-.019.1A.182.182,0,0,0,6.957.24.155.155,0,0,0,6.992.3l.013.018c1.541,1.422,1.381,4.233-.366,6.4C4.833,8.962,1.99,9.678.3,8.317A.179.179,0,0,0,.267,8.3l-.01-.005A.181.181,0,0,0,.2,8.28H.186a.171.171,0,0,0-.11.036l-.018.011s0,.008-.008.011-.007,0-.01.008l-.009.017A.179.179,0,0,0,.01,8.4a.173.173,0,0,0,0,.018.181.181,0,0,0,0,.055s0,.007,0,.011a.18.18,0,0,0,.018.058l0,.008a.177.177,0,0,0,.02.034,3.737,3.737,0,0,0,.426.4,3.934,3.934,0,0,0,2.5.848A6.041,6.041,0,0,0,7.541,7.471C9.485,5.059,9.478,1.815,7.524.24Z" transform="translate(3.021 2.54)"/><path class="c" d="M0,4.416C.013,4.373.113,4,.127,3.96c1.1.02,1.156-.017,1.32-.56.309-1.026.4-1.209.709-2.235.108-.36.089-.438-.426-.537L1.415.571C1.426.533,1.5.185,1.509.147A17.549,17.549,0,0,0,3.783,0L2.759,3.538c-.16.552-.14.6.918.8-.012.044-.111.413-.124.457Z" transform="translate(4.085 4.255)"/></g><g transform="translate(0 0)"><path class="d" d="M6.948,0q.142.093.276.2C9.1,1.714,9.1,4.835,7.213,7.171S2.281,10.175.4,8.662A3.555,3.555,0,0,1,0,8.281" transform="translate(3.204 2.723)"/><ellipse class="d" cx="5.406" cy="4.118" rx="5.406" ry="4.118" transform="matrix(0.628, -0.779, 0.779, 0.628, 0, 8.418)"/><line class="d" x2="0.612" y2="0.517" transform="translate(9.805 9.378)"/><line class="d" x2="0.539" y2="0.58" transform="translate(9.161 10.075)"/><line class="d" x2="0.443" y2="0.619" transform="translate(8.48 10.642)"/><line class="d" x2="0.349" y2="0.623" transform="translate(7.733 11.14)"/><line class="d" x2="0.65" y2="0.45" transform="translate(10.301 8.681)"/><path class="e" d="M0,4.416C.013,4.373.113,4,.127,3.96c1.1.02,1.156-.017,1.32-.56.309-1.026.4-1.209.709-2.235.108-.36.089-.438-.426-.537L1.415.571C1.426.533,1.5.185,1.509.147A17.549,17.549,0,0,0,3.783,0L2.759,3.538c-.16.552-.14.6.918.8-.012.044-.111.413-.124.457Z" transform="translate(4.085 4.255)"/></g></g><g transform="matrix(0.819, -0.574, 0.574, 0.819, 4.34, 16.561)"><g transform="translate(0 0)"><ellipse class="a" cx="3.685" cy="2.807" rx="3.685" ry="2.807" transform="matrix(0.628, -0.779, 0.779, 0.628, 0, 5.737)"/><path class="b" d="M3.346.5A2.373,2.373,0,0,0,1.658.011,2.282,2.282,0,0,1,2.937.5c1.207.973,1.15,3.046-.127,4.63A4.117,4.117,0,0,1,0,6.728a3.949,3.949,0,0,0,3.219-1.6C4.5,3.547,4.553,1.474,3.346.5Z" transform="translate(3.435 1.261)"/><path class="c" d="M5.128.164C5.066.113,5,.065,4.931.019L4.917.014A.131.131,0,0,0,4.846,0a.117.117,0,0,0-.067.03L4.767.039s0,.006-.005.009L4.755.055,4.749.069A.13.13,0,0,0,4.736.14a.124.124,0,0,0,.006.023.106.106,0,0,0,.024.043l.009.012c1.051.969.941,2.885-.249,4.363C3.294,6.108,1.356,6.6.206,5.669a.122.122,0,0,0-.024-.012l-.007,0a.123.123,0,0,0-.038-.009H.127a.116.116,0,0,0-.075.025L.04,5.675s0,.005-.006.008l-.007.006L.021,5.7a.122.122,0,0,0-.015.029l0,.012a.123.123,0,0,0,0,.038s0,0,0,.007a.122.122,0,0,0,.012.04l0,.006a.121.121,0,0,0,.014.023,2.547,2.547,0,0,0,.29.274,2.682,2.682,0,0,0,1.706.578A4.118,4.118,0,0,0,5.14,5.093C6.465,3.448,6.46,1.237,5.128.164Z" transform="translate(2.059 1.731)"/><path class="c" d="M0,3.01c.009-.029.077-.281.086-.31.751.013.788-.012.9-.382.211-.7.272-.824.483-1.523C1.543.549,1.53.5,1.178.429L.964.389C.972.363,1.02.126,1.028.1A11.962,11.962,0,0,0,2.578,0l-.7,2.411c-.109.376-.1.407.626.546l-.084.311Z" transform="translate(2.784 2.9)"/></g><g transform="translate(0 0)"><path class="d" d="M4.736,0q.1.064.188.137C6.2,1.168,6.2,3.3,4.916,4.888S1.555,6.935.276,5.9A2.423,2.423,0,0,1,0,5.644" transform="translate(2.184 1.856)"/><ellipse class="d" cx="3.685" cy="2.807" rx="3.685" ry="2.807" transform="matrix(0.628, -0.779, 0.779, 0.628, 0, 5.737)"/><line class="d" x2="0.417" y2="0.352" transform="translate(6.683 6.392)"/><line class="d" x2="0.368" y2="0.395" transform="translate(6.244 6.867)"/><line class="d" x2="0.302" y2="0.422" transform="translate(5.78 7.253)"/><line class="d" x2="0.238" y2="0.424" transform="translate(5.271 7.593)"/><line class="d" x2="0.443" y2="0.306" transform="translate(7.021 5.917)"/><path class="e" d="M0,3.01c.009-.029.077-.281.086-.31.751.013.788-.012.9-.382.211-.7.272-.824.483-1.523C1.543.549,1.53.5,1.178.429L.964.389C.972.363,1.02.126,1.028.1A11.962,11.962,0,0,0,2.578,0l-.7,2.411c-.109.376-.1.407.626.546l-.084.311Z" transform="translate(2.784 2.9)"/></g></g><g transform="translate(3.914 16.324) rotate(25)"><g transform="translate(0 0)"><ellipse class="a" cx="3.685" cy="2.807" rx="3.685" ry="2.807" transform="matrix(0.628, -0.779, 0.779, 0.628, 0, 5.737)"/><path class="b" d="M3.346.5A2.373,2.373,0,0,0,1.658.011,2.282,2.282,0,0,1,2.937.5c1.207.973,1.15,3.046-.127,4.63A4.117,4.117,0,0,1,0,6.728a3.949,3.949,0,0,0,3.219-1.6C4.5,3.547,4.553,1.474,3.346.5Z" transform="translate(3.435 1.261)"/><path class="c" d="M5.128.164C5.066.113,5,.065,4.931.019L4.917.014A.131.131,0,0,0,4.846,0a.117.117,0,0,0-.067.03L4.767.039s0,.006-.005.009L4.755.055,4.749.069A.13.13,0,0,0,4.736.14a.124.124,0,0,0,.006.023.106.106,0,0,0,.024.043l.009.012c1.051.969.941,2.885-.249,4.363C3.294,6.108,1.356,6.6.206,5.669a.122.122,0,0,0-.024-.012l-.007,0a.123.123,0,0,0-.038-.009H.127a.116.116,0,0,0-.075.025L.04,5.675s0,.005-.006.008l-.007.006L.021,5.7a.122.122,0,0,0-.015.029l0,.012a.123.123,0,0,0,0,.038s0,0,0,.007a.122.122,0,0,0,.012.04l0,.006a.121.121,0,0,0,.014.023,2.547,2.547,0,0,0,.29.274,2.682,2.682,0,0,0,1.706.578A4.118,4.118,0,0,0,5.14,5.093C6.465,3.448,6.46,1.237,5.128.164Z" transform="translate(2.059 1.731)"/><path class="c" d="M0,3.01c.009-.029.077-.281.086-.31.751.013.788-.012.9-.382.211-.7.272-.824.483-1.523C1.543.549,1.53.5,1.178.429L.964.389C.972.363,1.02.126,1.028.1A11.962,11.962,0,0,0,2.578,0l-.7,2.411c-.109.376-.1.407.626.546l-.084.311Z" transform="translate(2.784 2.9)"/></g><g transform="translate(0 0)"><path class="d" d="M4.736,0q.1.064.188.137C6.2,1.168,6.2,3.3,4.916,4.888S1.555,6.935.276,5.9A2.423,2.423,0,0,1,0,5.644" transform="translate(2.184 1.856)"/><ellipse class="d" cx="3.685" cy="2.807" rx="3.685" ry="2.807" transform="matrix(0.628, -0.779, 0.779, 0.628, 0, 5.737)"/><line class="d" x2="0.417" y2="0.352" transform="translate(6.683 6.392)"/><line class="d" x2="0.368" y2="0.395" transform="translate(6.244 6.867)"/><line class="d" x2="0.302" y2="0.422" transform="translate(5.78 7.253)"/><line class="d" x2="0.238" y2="0.424" transform="translate(5.271 7.593)"/><line class="d" x2="0.443" y2="0.306" transform="translate(7.021 5.917)"/><path class="e" d="M0,3.01c.009-.029.077-.281.086-.31.751.013.788-.012.9-.382.211-.7.272-.824.483-1.523C1.543.549,1.53.5,1.178.429L.964.389C.972.363,1.02.126,1.028.1A11.962,11.962,0,0,0,2.578,0l-.7,2.411c-.109.376-.1.407.626.546l-.084.311Z" transform="translate(2.784 2.9)"/></g></g><g transform="translate(14.867 20.735) rotate(2)"><g transform="translate(0 0)"><ellipse class="a" cx="3.685" cy="2.807" rx="3.685" ry="2.807" transform="matrix(0.628, -0.779, 0.779, 0.628, 0, 5.737)"/><path class="b" d="M3.346.5A2.373,2.373,0,0,0,1.658.011,2.282,2.282,0,0,1,2.937.5c1.207.973,1.15,3.046-.127,4.63A4.117,4.117,0,0,1,0,6.728a3.949,3.949,0,0,0,3.219-1.6C4.5,3.547,4.553,1.474,3.346.5Z" transform="translate(3.435 1.261)"/><path class="c" d="M5.128.164C5.066.113,5,.065,4.931.019L4.917.014A.131.131,0,0,0,4.846,0a.117.117,0,0,0-.067.03L4.767.039s0,.006-.005.009L4.755.055,4.749.069A.13.13,0,0,0,4.736.14a.124.124,0,0,0,.006.023.106.106,0,0,0,.024.043l.009.012c1.051.969.941,2.885-.249,4.363C3.294,6.108,1.356,6.6.206,5.669a.122.122,0,0,0-.024-.012l-.007,0a.123.123,0,0,0-.038-.009H.127a.116.116,0,0,0-.075.025L.04,5.675s0,.005-.006.008l-.007.006L.021,5.7a.122.122,0,0,0-.015.029l0,.012a.123.123,0,0,0,0,.038s0,0,0,.007a.122.122,0,0,0,.012.04l0,.006a.121.121,0,0,0,.014.023,2.547,2.547,0,0,0,.29.274,2.682,2.682,0,0,0,1.706.578A4.118,4.118,0,0,0,5.14,5.093C6.465,3.448,6.46,1.237,5.128.164Z" transform="translate(2.059 1.731)"/><path class="c" d="M0,3.01c.009-.029.077-.281.086-.31.751.013.788-.012.9-.382.211-.7.272-.824.483-1.523C1.543.549,1.53.5,1.178.429L.964.389C.972.363,1.02.126,1.028.1A11.962,11.962,0,0,0,2.578,0l-.7,2.411c-.109.376-.1.407.626.546l-.084.311Z" transform="translate(2.784 2.9)"/></g><g transform="translate(0 0)"><path class="d" d="M4.736,0q.1.064.188.137C6.2,1.168,6.2,3.3,4.916,4.888S1.555,6.935.276,5.9A2.423,2.423,0,0,1,0,5.644" transform="translate(2.184 1.856)"/><ellipse class="d" cx="3.685" cy="2.807" rx="3.685" ry="2.807" transform="matrix(0.628, -0.779, 0.779, 0.628, 0, 5.737)"/><line class="d" x2="0.417" y2="0.352" transform="translate(6.683 6.392)"/><line class="d" x2="0.368" y2="0.395" transform="translate(6.244 6.867)"/><line class="d" x2="0.302" y2="0.422" transform="translate(5.78 7.253)"/><line class="d" x2="0.238" y2="0.424" transform="translate(5.271 7.593)"/><line class="d" x2="0.443" y2="0.306" transform="translate(7.021 5.917)"/><path class="e" d="M0,3.01c.009-.029.077-.281.086-.31.751.013.788-.012.9-.382.211-.7.272-.824.483-1.523C1.543.549,1.53.5,1.178.429L.964.389C.972.363,1.02.126,1.028.1A11.962,11.962,0,0,0,2.578,0l-.7,2.411c-.109.376-.1.407.626.546l-.084.311Z" transform="translate(2.784 2.9)"/></g></g></g></svg>