<svg xmlns="http://www.w3.org/2000/svg" width="28.13" height="28.918" viewBox="0 0 28.13 28.918"><defs><style>.a{fill:#fcea2b;}.b{fill:#fff;}.c{fill:#f1b31c;}.d,.e{fill:none;stroke:#000;}.d{stroke-miterlimit:10;}.e{stroke-linecap:round;stroke-linejoin:round;}</style></defs><g transform="translate(0.703 0.703)"><g transform="translate(0 0)"><ellipse class="a" cx="10.946" cy="8.339" rx="10.946" ry="8.339" transform="matrix(0.628, -0.779, 0.779, 0.628, 0, 17.045)"/><path class="b" d="M35.717,9.571A7.05,7.05,0,0,0,30.7,8.116a6.779,6.779,0,0,1,3.8,1.455c3.586,2.89,3.417,9.049-.377,13.756a12.232,12.232,0,0,1-8.348,4.744c3.217.241,6.92-1.466,9.562-4.744C39.134,18.62,39.3,12.461,35.717,9.571Z" transform="translate(-15.573 -4.338)"/><path class="c" d="M30.176,12.278c-.186-.15-.384-.295-.587-.429a.35.35,0,0,0-.042-.017.388.388,0,0,0-.21-.039.348.348,0,0,0-.2.089.355.355,0,0,0-.036.026c-.007.008-.009.018-.016.026s-.016.013-.021.022a.357.357,0,0,0-.017.041.387.387,0,0,0-.038.212.369.369,0,0,0,.016.069.314.314,0,0,0,.071.127.354.354,0,0,0,.026.037c3.121,2.879,2.8,8.572-.741,12.961-3.658,4.538-9.415,5.987-12.832,3.232a.362.362,0,0,0-.07-.036l-.021-.011a.366.366,0,0,0-.113-.028l-.03,0a.345.345,0,0,0-.223.074l-.037.022c-.007.007-.01.016-.017.023s-.014.009-.02.016a.352.352,0,0,0-.018.034.362.362,0,0,0-.044.085.353.353,0,0,0-.009.037.366.366,0,0,0-.01.112c0,.008,0,.015,0,.022a.364.364,0,0,0,.036.118l.01.017a.359.359,0,0,0,.041.069,7.566,7.566,0,0,0,.862.814,7.967,7.967,0,0,0,5.068,1.717,12.233,12.233,0,0,0,9.248-4.794C34.147,22.036,34.131,15.467,30.176,12.278Z" transform="translate(-8.822 -6.649)"/><path class="c" d="M20.652,29.946c.027-.087.23-.835.257-.922,2.231.04,2.341-.035,2.672-1.134.626-2.077.809-2.448,1.435-4.525.22-.728.181-.887-.863-1.087l-.636-.117c.024-.077.166-.782.19-.859a35.534,35.534,0,0,0,4.605-.3l-2.073,7.164c-.324,1.118-.284,1.208,1.858,1.622-.025.088-.226.836-.25.925Z" transform="translate(-12.38 -12.388)"/></g><g transform="translate(0 0)"><path class="d" d="M29.992,12.777q.287.189.559.408c3.8,3.063,3.79,9.382-.023,14.113s-9.985,6.083-13.786,3.02a7.2,7.2,0,0,1-.819-.773" transform="translate(-9.434 -7.262)"/><ellipse class="d" cx="10.946" cy="8.339" rx="10.946" ry="8.339" transform="matrix(0.628, -0.779, 0.779, 0.628, 0, 17.045)"/><line class="d" x2="1.239" y2="1.046" transform="translate(19.855 18.989)"/><line class="d" x2="1.092" y2="1.173" transform="translate(18.551 20.401)"/><line class="d" x2="0.897" y2="1.253" transform="translate(17.172 21.549)"/><line class="d" x2="0.706" y2="1.261" transform="translate(15.658 22.558)"/><line class="d" x2="1.315" y2="0.91" transform="translate(20.859 17.579)"/><path class="e" d="M20.652,29.946c.027-.087.23-.835.257-.922,2.231.04,2.341-.035,2.672-1.134.626-2.077.809-2.448,1.435-4.525.22-.728.181-.887-.863-1.087l-.636-.117c.024-.077.166-.782.19-.859a35.534,35.534,0,0,0,4.605-.3l-2.073,7.164c-.324,1.118-.284,1.208,1.858,1.622-.025.088-.226.836-.25.925Z" transform="translate(-12.38 -12.388)"/></g></g></svg>