<svg xmlns="http://www.w3.org/2000/svg" width="31.121" height="28.692" viewBox="0 0 31.121 28.692"><defs><style>.a{fill:#fcea2b;}.b{fill:#fff;}.c{fill:#f1b31c;}.d,.e{fill:none;stroke:#000;}.d{stroke-miterlimit:10;}.e{stroke-linecap:round;stroke-linejoin:round;}</style></defs><g transform="translate(-2.319 -4.794)"><g transform="matrix(0.899, -0.438, 0.438, 0.899, 2.102, 11.099)"><g transform="translate(0 0)"><ellipse class="a" cx="10.371" cy="7.901" rx="10.371" ry="7.901" transform="matrix(0.628, -0.779, 0.779, 0.628, 0, 16.149)"/><path class="b" d="M9.417,1.41A6.679,6.679,0,0,0,4.666.031a6.423,6.423,0,0,1,3.6,1.379c3.4,2.738,3.238,8.573-.357,13.033A11.589,11.589,0,0,1,0,18.938c3.048.228,6.556-1.389,9.06-4.5C12.654,9.983,12.814,4.148,9.417,1.41Z" transform="translate(9.668 3.548)"/><path class="c" d="M14.435.461c-.177-.142-.364-.279-.556-.406l-.04-.016A.368.368,0,0,0,13.64,0a.33.33,0,0,0-.188.084.337.337,0,0,0-.034.024c-.007.007-.009.017-.015.025s-.015.012-.02.02a.337.337,0,0,0-.016.039.367.367,0,0,0-.036.2.35.35,0,0,0,.016.065.3.3,0,0,0,.068.12.336.336,0,0,0,.025.035c2.957,2.728,2.649,8.122-.7,12.279-3.466,4.3-8.92,5.673-12.158,3.062a.343.343,0,0,0-.067-.035l-.02-.01a.346.346,0,0,0-.107-.026l-.029,0a.327.327,0,0,0-.211.07l-.035.021C.1,15.98.1,15.988.1,15.995s-.013.009-.019.016a.334.334,0,0,0-.017.033.343.343,0,0,0-.042.081.333.333,0,0,0-.009.035A.347.347,0,0,0,0,16.264c0,.007,0,.014,0,.021a.345.345,0,0,0,.034.111l.01.016a.341.341,0,0,0,.039.065,7.169,7.169,0,0,0,.817.771,7.548,7.548,0,0,0,4.8,1.627,11.59,11.59,0,0,0,8.762-4.542C18.2,9.705,18.183,3.482,14.435.461Z" transform="translate(5.797 4.873)"/><path class="c" d="M0,8.472c.026-.083.217-.791.243-.874,2.114.038,2.218-.033,2.532-1.075.593-1.968.766-2.32,1.359-4.288.208-.69.171-.841-.818-1.03l-.6-.111c.023-.073.158-.741.18-.814A33.667,33.667,0,0,0,7.257,0L5.293,6.787c-.307,1.059-.269,1.144,1.761,1.536-.023.084-.214.792-.237.876Z" transform="translate(7.837 8.164)"/></g><g transform="translate(0 0)"><path class="d" d="M13.329,0q.272.179.529.386c3.6,2.9,3.591,8.889-.022,13.371S4.377,19.521.776,16.618A6.819,6.819,0,0,1,0,15.886" transform="translate(6.148 5.225)"/><ellipse class="d" cx="10.371" cy="7.901" rx="10.371" ry="7.901" transform="matrix(0.628, -0.779, 0.779, 0.628, 0, 16.149)"/><line class="d" x2="1.174" y2="0.991" transform="translate(18.811 17.991)"/><line class="d" x2="1.035" y2="1.112" transform="translate(17.576 19.329)"/><line class="d" x2="0.849" y2="1.187" transform="translate(16.269 20.416)"/><line class="d" x2="0.669" y2="1.195" transform="translate(14.835 21.373)"/><line class="d" x2="1.246" y2="0.862" transform="translate(19.762 16.655)"/><path class="e" d="M0,8.472c.026-.083.217-.791.243-.874,2.114.038,2.218-.033,2.532-1.075.593-1.968.766-2.32,1.359-4.288.208-.69.171-.841-.818-1.03l-.6-.111c.023-.073.158-.741.18-.814A33.667,33.667,0,0,0,7.257,0L5.293,6.787c-.307,1.059-.269,1.144,1.761,1.536-.023.084-.214.792-.237.876Z" transform="translate(7.837 8.164)"/></g></g><g transform="matrix(0.839, 0.545, -0.545, 0.839, 7.753, 15.318)"><g transform="translate(0 0)"><ellipse class="a" cx="5.664" cy="4.315" rx="5.664" ry="4.315" transform="matrix(0.628, -0.779, 0.779, 0.628, 0, 8.819)"/><path class="b" d="M5.142.77A3.648,3.648,0,0,0,2.548.017,3.507,3.507,0,0,1,4.514.77c1.855,1.5,1.768,4.682-.195,7.117A6.329,6.329,0,0,1,0,10.342,6.07,6.07,0,0,0,4.948,7.887C6.911,5.452,7,2.265,5.142.77Z" transform="translate(5.28 1.938)"/><path class="c" d="M7.883.252c-.1-.078-.2-.152-.3-.222L7.557.021A.2.2,0,0,0,7.449,0a.18.18,0,0,0-.1.046L7.328.06s0,.009-.008.013S7.312.08,7.309.085A.184.184,0,0,0,7.3.106a.2.2,0,0,0-.02.11.191.191,0,0,0,.008.036.163.163,0,0,0,.037.066l.014.019c1.615,1.49,1.447,4.435-.383,6.706C5.063,9.389,2.085,10.139.317,8.714A.188.188,0,0,0,.28,8.7L.269,8.69a.189.189,0,0,0-.059-.014H.2a.179.179,0,0,0-.115.038l-.019.011s-.005.008-.009.012-.007,0-.01.008l-.009.018a.187.187,0,0,0-.023.044.182.182,0,0,0,0,.019.19.19,0,0,0,0,.058s0,.008,0,.011a.188.188,0,0,0,.019.061l.005.009A.186.186,0,0,0,.047,9a3.915,3.915,0,0,0,.446.421,4.122,4.122,0,0,0,2.622.889A6.329,6.329,0,0,0,7.9,7.828C9.938,5.3,9.93,1.9,7.883.252Z" transform="translate(3.166 2.661)"/><path class="c" d="M0,4.626c.014-.045.119-.432.133-.477,1.154.021,1.211-.018,1.383-.587.324-1.075.418-1.267.742-2.341.114-.377.093-.459-.447-.562L1.482.6c.012-.04.086-.4.1-.444A18.386,18.386,0,0,0,3.963,0L2.89,3.706c-.167.579-.147.625.962.839-.013.046-.117.433-.13.479Z" transform="translate(4.28 4.458)"/></g><g transform="translate(0 0)"><path class="d" d="M7.279,0q.148.1.289.211c1.966,1.585,1.961,4.854-.012,7.3S2.39,10.66.424,9.075A3.724,3.724,0,0,1,0,8.675" transform="translate(3.357 2.853)"/><ellipse class="d" cx="5.664" cy="4.315" rx="5.664" ry="4.315" transform="matrix(0.628, -0.779, 0.779, 0.628, 0, 8.819)"/><line class="d" x2="0.641" y2="0.541" transform="translate(10.273 9.825)"/><line class="d" x2="0.565" y2="0.607" transform="translate(9.598 10.556)"/><line class="d" x2="0.464" y2="0.648" transform="translate(8.885 11.149)"/><line class="d" x2="0.365" y2="0.652" transform="translate(8.102 11.672)"/><line class="d" x2="0.681" y2="0.471" transform="translate(10.792 9.095)"/><path class="e" d="M0,4.626c.014-.045.119-.432.133-.477,1.154.021,1.211-.018,1.383-.587.324-1.075.418-1.267.742-2.341.114-.377.093-.459-.447-.562L1.482.6c.012-.04.086-.4.1-.444A18.386,18.386,0,0,0,3.963,0L2.89,3.706c-.167.579-.147.625.962.839-.013.046-.117.433-.13.479Z" transform="translate(4.28 4.458)"/></g></g><g transform="matrix(0.999, 0.035, -0.035, 0.999, 8.629, 16.344)"><g transform="translate(0 0)"><ellipse class="a" cx="6.04" cy="4.602" rx="6.04" ry="4.602" transform="matrix(0.628, -0.779, 0.779, 0.628, 0, 9.405)"/><path class="b" d="M5.484.821a3.89,3.89,0,0,0-2.767-.8,3.741,3.741,0,0,1,2.1.8C6.793,2.416,6.7,5.814,4.606,8.412A6.749,6.749,0,0,1,0,11.03,6.473,6.473,0,0,0,5.277,8.412C7.37,5.814,7.463,2.416,5.484.821Z" transform="translate(5.631 2.066)"/><path class="c" d="M8.407.268C8.3.185,8.2.106,8.083.032L8.06.022A.214.214,0,0,0,7.944,0,.192.192,0,0,0,7.835.05l-.02.014s-.005.01-.009.014S7.8.085,7.794.09a.2.2,0,0,0-.009.023A.214.214,0,0,0,7.764.23a.2.2,0,0,0,.009.038.174.174,0,0,0,.039.07l.015.02C9.549,1.947,9.37,5.088,7.418,7.51c-2.018,2.5-5.195,3.3-7.081,1.784A.2.2,0,0,0,.3,9.273L.287,9.267a.2.2,0,0,0-.062-.015H.208a.191.191,0,0,0-.123.041L.065,9.3s-.006.009-.009.012-.008.005-.011.009l-.01.019a.2.2,0,0,0-.024.047.194.194,0,0,0,0,.02A.2.2,0,0,0,0,9.472s0,.008,0,.012a.2.2,0,0,0,.02.065l.006.009A.2.2,0,0,0,.05,9.6a4.175,4.175,0,0,0,.476.449,4.4,4.4,0,0,0,2.8.948,6.75,6.75,0,0,0,5.1-2.645C10.6,5.653,10.59,2.028,8.407.268Z" transform="translate(3.376 2.838)"/><path class="c" d="M0,4.934c.015-.048.127-.461.142-.509,1.231.022,1.292-.019,1.475-.626.346-1.146.446-1.351.792-2.5.121-.4.1-.49-.476-.6L1.581.638c.013-.042.092-.432.1-.474A19.608,19.608,0,0,0,4.227,0L3.083,3.953c-.179.617-.157.666,1.025.895-.014.049-.125.462-.138.51Z" transform="translate(4.564 4.755)"/></g><g transform="translate(0 0)"><path class="d" d="M7.763,0q.158.1.308.225c2.1,1.69,2.091,5.177-.013,7.787S2.549,11.369.452,9.679A3.972,3.972,0,0,1,0,9.252" transform="translate(3.58 3.043)"/><ellipse class="d" cx="6.04" cy="4.602" rx="6.04" ry="4.602" transform="matrix(0.628, -0.779, 0.779, 0.628, 0, 9.405)"/><line class="d" x2="0.683" y2="0.577" transform="translate(10.956 10.478)"/><line class="d" x2="0.603" y2="0.647" transform="translate(10.236 11.257)"/><line class="d" x2="0.495" y2="0.691" transform="translate(9.475 11.891)"/><line class="d" x2="0.39" y2="0.696" transform="translate(8.64 12.448)"/><line class="d" x2="0.726" y2="0.502" transform="translate(11.51 9.7)"/><path class="e" d="M0,4.934c.015-.048.127-.461.142-.509,1.231.022,1.292-.019,1.475-.626.346-1.146.446-1.351.792-2.5.121-.4.1-.49-.476-.6L1.581.638c.013-.042.092-.432.1-.474A19.608,19.608,0,0,0,4.227,0L3.083,3.953c-.179.617-.157.666,1.025.895-.014.049-.125.462-.138.51Z" transform="translate(4.564 4.755)"/></g></g></g></svg>