<svg xmlns="http://www.w3.org/2000/svg" width="30.503" height="28.125" viewBox="0 0 30.503 28.125"><defs><style>.a{fill:#fcea2b;}.b{fill:#fff;}.c{fill:#f1b31c;}.d,.e{fill:none;stroke:#000;}.d{stroke-miterlimit:10;}.e{stroke-linecap:round;stroke-linejoin:round;}</style></defs><g transform="translate(-2.258 -4.683)"><g transform="matrix(0.899, -0.438, 0.438, 0.899, 2.059, 10.87)"><g transform="translate(0 0)"><ellipse class="a" cx="10.156" cy="7.737" rx="10.156" ry="7.737" transform="matrix(0.628, -0.779, 0.779, 0.628, 0, 15.815)"/><path class="b" d="M9.222,1.381A6.541,6.541,0,0,0,4.569.031a6.29,6.29,0,0,1,3.525,1.35c3.327,2.682,3.171,8.4-.349,12.763A11.349,11.349,0,0,1,0,18.546c2.984.224,6.421-1.36,8.872-4.4C12.393,9.777,12.549,4.062,9.222,1.381Z" transform="translate(9.468 3.475)"/><path class="c" d="M14.136.451c-.173-.139-.356-.273-.545-.4L13.552.037A.36.36,0,0,0,13.358,0a.323.323,0,0,0-.184.082.33.33,0,0,0-.033.024c-.007.007-.009.016-.015.024s-.014.012-.02.02a.33.33,0,0,0-.015.038.359.359,0,0,0-.036.2.343.343,0,0,0,.015.064.292.292,0,0,0,.066.117A.33.33,0,0,0,13.161.6c2.9,2.671,2.594,7.954-.687,12.025-3.394,4.21-8.735,5.555-11.906,3A.336.336,0,0,0,.5,15.593l-.019-.01a.339.339,0,0,0-.1-.026l-.028,0a.32.32,0,0,0-.207.068l-.034.02c-.007.006-.009.015-.016.021s-.013.009-.018.015a.328.328,0,0,0-.017.032.336.336,0,0,0-.041.079.327.327,0,0,0-.008.034.34.34,0,0,0-.009.1c0,.007,0,.014,0,.02a.338.338,0,0,0,.034.109l.009.016a.333.333,0,0,0,.038.064,7.021,7.021,0,0,0,.8.755,7.392,7.392,0,0,0,4.7,1.593,11.35,11.35,0,0,0,8.581-4.448C17.821,9.5,17.806,3.41,14.136.451Z" transform="translate(5.677 4.772)"/><path class="c" d="M0,8.3c.025-.081.213-.774.238-.855,2.07.037,2.172-.032,2.48-1.052.581-1.927.75-2.272,1.331-4.2.2-.676.168-.823-.8-1.008l-.59-.109c.022-.071.154-.726.176-.8A32.97,32.97,0,0,0,7.107,0L5.183,6.647c-.3,1.038-.263,1.121,1.724,1.5-.023.082-.209.776-.232.858Z" transform="translate(7.675 7.995)"/></g><g transform="translate(0 0)"><path class="d" d="M13.054,0q.266.175.519.378c3.526,2.842,3.517,8.7-.021,13.094S4.286,19.117.76,16.275A6.679,6.679,0,0,1,0,15.557" transform="translate(6.021 5.117)"/><ellipse class="d" cx="10.156" cy="7.737" rx="10.156" ry="7.737" transform="matrix(0.628, -0.779, 0.779, 0.628, 0, 15.815)"/><line class="d" x2="1.149" y2="0.971" transform="translate(18.422 17.619)"/><line class="d" x2="1.013" y2="1.089" transform="translate(17.212 18.929)"/><line class="d" x2="0.832" y2="1.162" transform="translate(15.933 19.994)"/><line class="d" x2="0.655" y2="1.17" transform="translate(14.528 20.931)"/><line class="d" x2="1.221" y2="0.845" transform="translate(19.353 16.31)"/><path class="e" d="M0,8.3c.025-.081.213-.774.238-.855,2.07.037,2.172-.032,2.48-1.052.581-1.927.75-2.272,1.331-4.2.2-.676.168-.823-.8-1.008l-.59-.109c.022-.071.154-.726.176-.8A32.97,32.97,0,0,0,7.107,0L5.183,6.647c-.3,1.038-.263,1.121,1.724,1.5-.023.082-.209.776-.232.858Z" transform="translate(7.675 7.995)"/></g></g><g transform="matrix(0.839, 0.545, -0.545, 0.839, 7.592, 15.001)"><g transform="translate(0 0)"><ellipse class="a" cx="5.546" cy="4.225" rx="5.546" ry="4.225" transform="matrix(0.628, -0.779, 0.779, 0.628, 0, 8.637)"/><path class="b" d="M5.036.754A3.572,3.572,0,0,0,2.5.017,3.435,3.435,0,0,1,4.42.754c1.817,1.464,1.732,4.585-.191,6.97A6.2,6.2,0,0,1,0,10.128a5.944,5.944,0,0,0,4.845-2.4C6.768,5.339,6.853,2.218,5.036.754Z" transform="translate(5.17 1.898)"/><path class="c" d="M7.72.246C7.625.17,7.525.1,7.422.029L7.4.02A.2.2,0,0,0,7.295,0a.176.176,0,0,0-.1.045L7.176.059s0,.009-.008.013S7.16.078,7.157.083A.18.18,0,0,0,7.149.1a.2.2,0,0,0-.02.107.187.187,0,0,0,.008.035A.159.159,0,0,0,7.174.31l.013.019C8.769,1.788,8.6,4.672,6.812,6.9,4.958,9.2,2.042,9.93.31,8.534a.184.184,0,0,0-.036-.018L.264,8.51A.185.185,0,0,0,.206,8.5H.191a.175.175,0,0,0-.113.037L.06,8.543s-.005.008-.008.011-.007,0-.01.008L.032,8.58a.183.183,0,0,0-.022.043.178.178,0,0,0,0,.019A.186.186,0,0,0,0,8.7s0,.007,0,.011a.184.184,0,0,0,.018.06l.005.009a.182.182,0,0,0,.021.035,3.834,3.834,0,0,0,.437.412,4.037,4.037,0,0,0,2.568.87A6.2,6.2,0,0,0,7.737,7.666C9.732,5.191,9.724,1.862,7.72.246Z" transform="translate(3.1 2.606)"/><path class="c" d="M0,4.531c.014-.044.116-.423.13-.467,1.13.02,1.186-.018,1.354-.575.317-1.052.41-1.241.727-2.293C2.323.827,2.3.746,1.774.645L1.451.586c.012-.039.084-.4.1-.435A18.005,18.005,0,0,0,3.881,0L2.831,3.63c-.164.567-.144.612.942.822-.013.045-.114.424-.127.469Z" transform="translate(4.191 4.366)"/></g><g transform="translate(0 0)"><path class="d" d="M7.129,0q.145.1.283.207C9.338,1.759,9.332,4.96,7.4,7.357S2.341,10.44.415,8.888A3.647,3.647,0,0,1,0,8.5" transform="translate(3.288 2.794)"/><ellipse class="d" cx="5.546" cy="4.225" rx="5.546" ry="4.225" transform="matrix(0.628, -0.779, 0.779, 0.628, 0, 8.637)"/><line class="d" x2="0.628" y2="0.53" transform="translate(10.06 9.622)"/><line class="d" x2="0.553" y2="0.595" transform="translate(9.4 10.337)"/><line class="d" x2="0.454" y2="0.635" transform="translate(8.701 10.919)"/><line class="d" x2="0.358" y2="0.639" transform="translate(7.934 11.43)"/><line class="d" x2="0.667" y2="0.461" transform="translate(10.569 8.907)"/><path class="e" d="M0,4.531c.014-.044.116-.423.13-.467,1.13.02,1.186-.018,1.354-.575.317-1.052.41-1.241.727-2.293C2.323.827,2.3.746,1.774.645L1.451.586c.012-.039.084-.4.1-.435A18.005,18.005,0,0,0,3.881,0L2.831,3.63c-.164.567-.144.612.942.822-.013.045-.114.424-.127.469Z" transform="translate(4.191 4.366)"/></g></g><g transform="matrix(0.999, 0.035, -0.035, 0.999, 8.45, 16.006)"><g transform="translate(0 0)"><ellipse class="a" cx="5.915" cy="4.506" rx="5.915" ry="4.506" transform="matrix(0.628, -0.779, 0.779, 0.628, 0, 9.211)"/><path class="b" d="M5.371.8A3.809,3.809,0,0,0,2.661.018,3.663,3.663,0,0,1,4.714.8c1.938,1.562,1.847,4.89-.2,7.433A6.61,6.61,0,0,1,0,10.8,6.339,6.339,0,0,0,5.167,8.237C7.217,5.694,7.309,2.366,5.371.8Z" transform="translate(5.514 2.024)"/><path class="c" d="M8.233.263C8.132.182,8.026.1,7.916.031L7.893.022A.21.21,0,0,0,7.78,0a.188.188,0,0,0-.107.048L7.653.063s-.005.01-.008.014-.008.007-.012.012a.193.193,0,0,0-.009.022A.209.209,0,0,0,7.6.225a.2.2,0,0,0,.009.037.17.17,0,0,0,.039.068l.014.02c1.687,1.556,1.511,4.632-.4,7C5.288,9.806,2.177,10.59.331,9.1a.2.2,0,0,0-.038-.02L.281,9.075A.2.2,0,0,0,.22,9.06H.2a.187.187,0,0,0-.12.04l-.02.012s-.005.008-.009.012-.008.005-.011.009l-.01.019A.2.2,0,0,0,.011,9.2a.19.19,0,0,0,0,.02A.2.2,0,0,0,0,9.276s0,.008,0,.012a.2.2,0,0,0,.02.064l.005.009A.194.194,0,0,0,.049,9.4a4.089,4.089,0,0,0,.466.44,4.305,4.305,0,0,0,2.739.928,6.61,6.61,0,0,0,5-2.591C10.379,5.536,10.371,1.986,8.233.263Z" transform="translate(3.306 2.779)"/><path class="c" d="M0,4.832c.015-.047.124-.451.139-.5,1.206.021,1.265-.019,1.444-.613C1.921,2.6,2.02,2.4,2.358,1.275c.119-.394.1-.48-.467-.587L1.548.625c.013-.041.09-.423.1-.464A19.2,19.2,0,0,0,4.139,0L3.019,3.871c-.175.6-.153.653,1,.876-.013.048-.122.452-.135.5Z" transform="translate(4.47 4.656)"/></g><g transform="translate(0 0)"><path class="d" d="M7.6,0q.155.1.3.22c2.054,1.655,2.048,5.07-.012,7.626S2.5,11.134.443,9.478A3.89,3.89,0,0,1,0,9.061" transform="translate(3.506 2.98)"/><ellipse class="d" cx="5.915" cy="4.506" rx="5.915" ry="4.506" transform="matrix(0.628, -0.779, 0.779, 0.628, 0, 9.211)"/><line class="d" x2="0.669" y2="0.565" transform="translate(10.729 10.261)"/><line class="d" x2="0.59" y2="0.634" transform="translate(10.025 11.024)"/><line class="d" x2="0.484" y2="0.677" transform="translate(9.279 11.645)"/><line class="d" x2="0.382" y2="0.681" transform="translate(8.461 12.19)"/><line class="d" x2="0.711" y2="0.492" transform="translate(11.272 9.499)"/><path class="e" d="M0,4.832c.015-.047.124-.451.139-.5,1.206.021,1.265-.019,1.444-.613C1.921,2.6,2.02,2.4,2.358,1.275c.119-.394.1-.48-.467-.587L1.548.625c.013-.041.09-.423.1-.464A19.2,19.2,0,0,0,4.139,0L3.019,3.871c-.175.6-.153.653,1,.876-.013.048-.122.452-.135.5Z" transform="translate(4.47 4.656)"/></g></g><g transform="matrix(0.819, -0.574, 0.574, 0.819, 0.842, 18.122)"><g transform="translate(0 0)"><ellipse class="a" cx="4.032" cy="3.071" rx="4.032" ry="3.071" transform="matrix(0.628, -0.779, 0.779, 0.628, 0, 6.278)"/><path class="b" d="M3.661.548A2.6,2.6,0,0,0,1.814.012a2.5,2.5,0,0,1,1.4.536c1.321,1.065,1.259,3.333-.139,5.066A4.505,4.505,0,0,1,0,7.362,4.321,4.321,0,0,0,3.522,5.615C4.919,3.881,4.981,1.613,3.661.548Z" transform="translate(3.758 1.379)"/><path class="c" d="M5.611.179C5.543.124,5.47.071,5.4.021L5.38.015A.143.143,0,0,0,5.3,0,.128.128,0,0,0,5.23.033L5.216.043s0,.007-.006.01S5.2.057,5.2.06L5.2.076a.143.143,0,0,0-.014.078.136.136,0,0,0,.006.025.116.116,0,0,0,.026.047l.01.013C6.374,1.3,6.254,3.4,4.952,5.013,3.6,6.684,1.484,7.218.225,6.2A.134.134,0,0,0,.2,6.19l-.008,0a.135.135,0,0,0-.042-.01H.139A.127.127,0,0,0,.057,6.2L.043,6.21s0,.006-.006.008L.03,6.224l-.007.013a.133.133,0,0,0-.016.031.129.129,0,0,0,0,.013.135.135,0,0,0,0,.041s0,.005,0,.008a.134.134,0,0,0,.013.043l0,.006a.132.132,0,0,0,.015.025,2.787,2.787,0,0,0,.317.3,2.934,2.934,0,0,0,1.867.633A4.506,4.506,0,0,0,5.624,5.572C7.074,3.773,7.069,1.354,5.611.179Z" transform="translate(2.253 1.894)"/><path class="c" d="M0,3.293c.01-.032.085-.307.095-.34.822.015.862-.013.984-.418.231-.765.3-.9.529-1.667.081-.268.067-.327-.318-.4L1.055.426c.009-.028.061-.288.07-.316A13.088,13.088,0,0,0,2.821,0L2.058,2.638c-.119.412-.1.445.684.6-.009.033-.083.308-.092.341Z" transform="translate(3.047 3.174)"/></g><g transform="translate(0 0)"><path class="d" d="M5.182,0q.106.07.206.15c1.4,1.128,1.4,3.455-.008,5.2S1.7,7.589.3,6.46A2.651,2.651,0,0,1,0,6.176" transform="translate(2.39 2.031)"/><ellipse class="d" cx="4.032" cy="3.071" rx="4.032" ry="3.071" transform="matrix(0.628, -0.779, 0.779, 0.628, 0, 6.278)"/><line class="d" x2="0.456" y2="0.385" transform="translate(7.313 6.994)"/><line class="d" x2="0.402" y2="0.432" transform="translate(6.833 7.514)"/><line class="d" x2="0.33" y2="0.461" transform="translate(6.325 7.937)"/><line class="d" x2="0.26" y2="0.464" transform="translate(5.767 8.309)"/><line class="d" x2="0.484" y2="0.335" transform="translate(7.683 6.475)"/><path class="e" d="M0,3.293c.01-.032.085-.307.095-.34.822.015.862-.013.984-.418.231-.765.3-.9.529-1.667.081-.268.067-.327-.318-.4L1.055.426c.009-.028.061-.288.07-.316A13.088,13.088,0,0,0,2.821,0L2.058,2.638c-.119.412-.1.445.684.6-.009.033-.083.308-.092.341Z" transform="translate(3.047 3.174)"/></g></g></g></svg>