<svg xmlns="http://www.w3.org/2000/svg" width="34.115" height="26.881" viewBox="0 0 34.115 26.881"><defs><style>.a{fill:#fcea2b;}.b{fill:#fff;}.c{fill:#f1b31c;}.d,.e{fill:none;stroke:#000;}.d{stroke-miterlimit:10;}.e{stroke-linecap:round;stroke-linejoin:round;}</style></defs><g transform="translate(-0.885 -4.438)"><g transform="matrix(0.899, -0.438, 0.438, 0.899, 5.689, 10.366)"><g transform="translate(0 0)"><ellipse class="a" cx="9.686" cy="7.379" rx="9.686" ry="7.379" transform="matrix(0.628, -0.779, 0.779, 0.628, 0, 15.082)"/><path class="b" d="M8.794,1.317A6.238,6.238,0,0,0,4.357.029,6,6,0,0,1,7.719,1.317c3.173,2.557,3.024,8.007-.333,12.171A10.823,10.823,0,0,1,0,17.686c2.846.213,6.123-1.3,8.461-4.2C11.818,9.323,11.967,3.874,8.794,1.317Z" transform="translate(9.029 3.314)"/><path class="c" d="M13.481.43c-.165-.133-.339-.261-.52-.38L12.924.036A.344.344,0,0,0,12.739,0a.308.308,0,0,0-.176.079L12.532.1c-.006.007-.008.016-.014.023S12.5.137,12.5.145a.315.315,0,0,0-.015.036.343.343,0,0,0-.034.187.327.327,0,0,0,.014.061.278.278,0,0,0,.063.112.314.314,0,0,0,.023.032c2.762,2.548,2.474,7.585-.655,11.468C8.659,16.057,3.565,17.34.541,14.9a.321.321,0,0,0-.062-.032l-.019-.01a.324.324,0,0,0-.1-.025l-.027,0a.306.306,0,0,0-.2.065L.1,14.918c-.006.006-.009.014-.015.02s-.013.008-.017.015a.312.312,0,0,0-.016.03.32.32,0,0,0-.039.075.312.312,0,0,0-.008.032.324.324,0,0,0-.009.1c0,.007,0,.013,0,.02a.322.322,0,0,0,.032.1l.009.015a.318.318,0,0,0,.036.061,6.7,6.7,0,0,0,.763.72,7.049,7.049,0,0,0,4.484,1.519,10.824,10.824,0,0,0,8.183-4.242C16.995,9.064,16.981,3.252,13.481.43Z" transform="translate(5.414 4.551)"/><path class="c" d="M0,7.912c.024-.077.2-.739.227-.816,1.974.035,2.071-.031,2.365-1,.554-1.838.716-2.166,1.27-4,.194-.644.16-.785-.764-.961l-.563-.1c.021-.068.147-.692.168-.76A31.441,31.441,0,0,0,6.778,0L4.943,6.339c-.286.989-.251,1.069,1.644,1.435-.022.078-.2.74-.222.818Z" transform="translate(7.319 7.624)"/></g><g transform="translate(0 0)"><path class="d" d="M12.449,0q.254.167.494.361c3.363,2.71,3.354,8.3-.02,12.487S4.087,18.231.725,15.52A6.369,6.369,0,0,1,0,14.836" transform="translate(5.741 4.88)"/><ellipse class="d" cx="9.686" cy="7.379" rx="9.686" ry="7.379" transform="matrix(0.628, -0.779, 0.779, 0.628, 0, 15.082)"/><line class="d" x2="1.096" y2="0.926" transform="translate(17.568 16.802)"/><line class="d" x2="0.966" y2="1.038" transform="translate(16.414 18.052)"/><line class="d" x2="0.793" y2="1.108" transform="translate(15.194 19.067)"/><line class="d" x2="0.625" y2="1.116" transform="translate(13.855 19.96)"/><line class="d" x2="1.164" y2="0.805" transform="translate(18.456 15.554)"/><path class="e" d="M0,7.912c.024-.077.2-.739.227-.816,1.974.035,2.071-.031,2.365-1,.554-1.838.716-2.166,1.27-4,.194-.644.16-.785-.764-.961l-.563-.1c.021-.068.147-.692.168-.76A31.441,31.441,0,0,0,6.778,0L4.943,6.339c-.286.989-.251,1.069,1.644,1.435-.022.078-.2.74-.222.818Z" transform="translate(7.319 7.624)"/></g></g><g transform="matrix(0.839, 0.545, -0.545, 0.839, 10.966, 14.305)"><g transform="translate(0 0)"><ellipse class="a" cx="5.289" cy="4.03" rx="5.289" ry="4.03" transform="matrix(0.628, -0.779, 0.779, 0.628, 0, 8.236)"/><path class="b" d="M4.8.719A3.406,3.406,0,0,0,2.38.016a3.276,3.276,0,0,1,1.836.7c1.733,1.4,1.651,4.372-.182,6.647A5.91,5.91,0,0,1,0,9.659,5.669,5.669,0,0,0,4.621,7.366C6.454,5.092,6.535,2.116,4.8.719Z" transform="translate(4.931 1.81)"/><path class="c" d="M7.362.235C7.272.162,7.176.093,7.078.028L7.058.02A.188.188,0,0,0,6.957,0a.168.168,0,0,0-.1.043L6.844.056s0,.009-.008.012-.008.006-.01.01A.172.172,0,0,0,6.818.1.187.187,0,0,0,6.8.2a.178.178,0,0,0,.008.033A.152.152,0,0,0,6.841.3l.013.018C8.362,1.7,8.2,4.456,6.5,6.576,4.729,8.769,1.947,9.469.3,8.138a.175.175,0,0,0-.034-.018l-.01-.005A.177.177,0,0,0,.2,8.1H.182a.167.167,0,0,0-.108.036l-.018.011s0,.008-.008.011-.007,0-.01.008l-.009.017a.175.175,0,0,0-.021.041.17.17,0,0,0,0,.018.177.177,0,0,0,0,.054S0,8.3,0,8.306a.176.176,0,0,0,.018.057l0,.008a.174.174,0,0,0,.02.033A3.656,3.656,0,0,0,.461,8.8a3.85,3.85,0,0,0,2.449.83A5.911,5.911,0,0,0,7.378,7.31C9.281,4.95,9.273,1.776,7.362.235Z" transform="translate(2.956 2.485)"/><path class="c" d="M0,4.321c.013-.042.111-.4.124-.446,1.078.019,1.131-.017,1.291-.548.3-1,.391-1.183.693-2.187C2.215.788,2.2.712,1.692.615L1.384.559c.011-.037.08-.378.092-.415A17.17,17.17,0,0,0,3.7,0l-1,3.462c-.156.54-.137.584.9.784-.012.043-.109.4-.121.447Z" transform="translate(3.997 4.164)"/></g><g transform="translate(0 0)"><path class="d" d="M6.8,0q.139.091.27.2C8.9,1.677,8.9,4.73,7.057,7.016S2.232,9.956.4,8.476A3.478,3.478,0,0,1,0,8.1" transform="translate(3.135 2.665)"/><ellipse class="d" cx="5.289" cy="4.03" rx="5.289" ry="4.03" transform="matrix(0.628, -0.779, 0.779, 0.628, 0, 8.236)"/><line class="d" x2="0.599" y2="0.506" transform="translate(9.594 9.176)"/><line class="d" x2="0.528" y2="0.567" transform="translate(8.964 9.858)"/><line class="d" x2="0.433" y2="0.605" transform="translate(8.298 10.413)"/><line class="d" x2="0.341" y2="0.609" transform="translate(7.566 10.9)"/><line class="d" x2="0.636" y2="0.44" transform="translate(10.079 8.494)"/><path class="e" d="M0,4.321c.013-.042.111-.4.124-.446,1.078.019,1.131-.017,1.291-.548.3-1,.391-1.183.693-2.187C2.215.788,2.2.712,1.692.615L1.384.559c.011-.037.08-.378.092-.415A17.17,17.17,0,0,0,3.7,0l-1,3.462c-.156.54-.137.584.9.784-.012.043-.109.4-.121.447Z" transform="translate(3.997 4.164)"/></g></g><g transform="matrix(0.999, 0.035, -0.035, 0.999, 11.785, 15.264)"><g transform="translate(0 0)"><ellipse class="a" cx="5.641" cy="4.297" rx="5.641" ry="4.297" transform="matrix(0.628, -0.779, 0.779, 0.628, 0, 8.784)"/><path class="b" d="M5.122.767A3.633,3.633,0,0,0,2.538.017,3.493,3.493,0,0,1,4.5.767C6.344,2.256,6.257,5.43,4.3,7.856A6.3,6.3,0,0,1,0,10.3,6.045,6.045,0,0,0,4.928,7.856C6.883,5.43,6.97,2.256,5.122.767Z" transform="translate(5.259 1.93)"/><path class="c" d="M7.851.251c-.1-.077-.2-.152-.3-.221L7.527.021A.2.2,0,0,0,7.419,0a.179.179,0,0,0-.1.046L7.3.06s0,.009-.008.013S7.282.08,7.279.084a.184.184,0,0,0-.009.021.2.2,0,0,0-.02.109A.19.19,0,0,0,7.259.25.162.162,0,0,0,7.3.316L7.31.334C8.918,1.818,8.75,4.752,6.928,7.013,5.043,9.352,2.076,10.1.315,8.679A.187.187,0,0,0,.279,8.66L.268,8.655A.188.188,0,0,0,.21,8.64H.194a.178.178,0,0,0-.115.038l-.019.011S.056,8.7.052,8.7s-.007,0-.01.008l-.009.018A.186.186,0,0,0,.01,8.77a.181.181,0,0,0,0,.019.189.189,0,0,0,0,.058s0,.008,0,.011a.187.187,0,0,0,.019.061l.005.009a.185.185,0,0,0,.021.036,3.9,3.9,0,0,0,.444.419,4.105,4.105,0,0,0,2.612.885A6.3,6.3,0,0,0,7.869,7.8C9.9,5.279,9.89,1.894,7.851.251Z" transform="translate(3.153 2.651)"/><path class="c" d="M0,4.608c.014-.045.118-.43.132-.475,1.15.02,1.206-.018,1.377-.584.323-1.07.417-1.262.739-2.332C2.362.841,2.342.759,1.8.656L1.476.6c.012-.04.086-.4.1-.443A18.312,18.312,0,0,0,3.947,0L2.879,3.692c-.167.576-.146.622.958.836-.013.046-.116.431-.129.477Z" transform="translate(4.263 4.44)"/></g><g transform="translate(0 0)"><path class="d" d="M7.25,0q.148.1.288.21C9.5,1.789,9.491,5.045,7.526,7.483S2.381,10.618.422,9.039A3.709,3.709,0,0,1,0,8.641" transform="translate(3.344 2.842)"/><ellipse class="d" cx="5.641" cy="4.297" rx="5.641" ry="4.297" transform="matrix(0.628, -0.779, 0.779, 0.628, 0, 8.784)"/><line class="d" x2="0.638" y2="0.539" transform="translate(10.232 9.786)"/><line class="d" x2="0.563" y2="0.605" transform="translate(9.56 10.513)"/><line class="d" x2="0.462" y2="0.645" transform="translate(8.849 11.105)"/><line class="d" x2="0.364" y2="0.65" transform="translate(8.069 11.625)"/><line class="d" x2="0.678" y2="0.469" transform="translate(10.749 9.059)"/><path class="e" d="M0,4.608c.014-.045.118-.43.132-.475,1.15.02,1.206-.018,1.377-.584.323-1.07.417-1.262.739-2.332C2.362.841,2.342.759,1.8.656L1.476.6c.012-.04.086-.4.1-.443A18.312,18.312,0,0,0,3.947,0L2.879,3.692c-.167.576-.146.622.958.836-.013.046-.116.431-.129.477Z" transform="translate(4.263 4.44)"/></g></g><g transform="matrix(0.819, -0.574, 0.574, 0.819, 4.529, 17.282)"><g transform="translate(0 0)"><ellipse class="a" cx="3.845" cy="2.929" rx="3.845" ry="2.929" transform="matrix(0.628, -0.779, 0.779, 0.628, 0, 5.987)"/><path class="b" d="M3.491.523A2.476,2.476,0,0,0,1.73.012,2.381,2.381,0,0,1,3.064.523c1.26,1.015,1.2,3.178-.132,4.832A4.3,4.3,0,0,1,0,7.021,4.12,4.12,0,0,0,3.359,5.354C4.691,3.7,4.751,1.538,3.491.523Z" transform="translate(3.584 1.315)"/><path class="c" d="M5.351.171C5.286.118,5.217.067,5.145.02L5.13.014A.136.136,0,0,0,5.057,0a.122.122,0,0,0-.07.031L4.975.041s0,.006-.006.009-.005,0-.008.008L4.956.072a.136.136,0,0,0-.014.074.129.129,0,0,0,.006.024.11.11,0,0,0,.025.044l.009.013c1.1,1.011.982,3.011-.26,4.552C3.437,6.374,1.415,6.883.215,5.916A.127.127,0,0,0,.19,5.9l-.007,0a.128.128,0,0,0-.04-.01H.133a.121.121,0,0,0-.078.026l-.013.008s0,.005-.006.008l-.007.006-.006.012a.127.127,0,0,0-.016.03L0,5.99A.129.129,0,0,0,0,6.03s0,.005,0,.008a.128.128,0,0,0,.013.041l0,.006a.126.126,0,0,0,.014.024,2.658,2.658,0,0,0,.3.286,2.8,2.8,0,0,0,1.78.6A4.3,4.3,0,0,0,5.363,5.314C6.746,3.6,6.741,1.291,5.351.171Z" transform="translate(2.149 1.807)"/><path class="c" d="M0,3.141c.01-.031.081-.293.09-.324.784.014.822-.012.939-.4.22-.73.284-.86.5-1.59C1.61.573,1.6.517,1.23.447L1.006.406c.008-.027.058-.275.067-.3A12.482,12.482,0,0,0,2.69,0L1.962,2.516c-.114.393-.1.424.653.57-.009.031-.079.294-.088.325Z" transform="translate(2.905 3.027)"/></g><g transform="translate(0 0)"><path class="d" d="M4.942,0q.1.066.2.143C6.473,1.219,6.469,3.439,5.13,5.1S1.623,7.237.288,6.161A2.528,2.528,0,0,1,0,5.889" transform="translate(2.279 1.937)"/><ellipse class="d" cx="3.845" cy="2.929" rx="3.845" ry="2.929" transform="matrix(0.628, -0.779, 0.779, 0.628, 0, 5.987)"/><line class="d" x2="0.435" y2="0.367" transform="translate(6.974 6.67)"/><line class="d" x2="0.384" y2="0.412" transform="translate(6.516 7.166)"/><line class="d" x2="0.315" y2="0.44" transform="translate(6.031 7.569)"/><line class="d" x2="0.248" y2="0.443" transform="translate(5.5 7.924)"/><line class="d" x2="0.462" y2="0.32" transform="translate(7.326 6.174)"/><path class="e" d="M0,3.141c.01-.031.081-.293.09-.324.784.014.822-.012.939-.4.22-.73.284-.86.5-1.59C1.61.573,1.6.517,1.23.447L1.006.406c.008-.027.058-.275.067-.3A12.482,12.482,0,0,0,2.69,0L1.962,2.516c-.114.393-.1.424.653.57-.009.031-.079.294-.088.325Z" transform="translate(2.905 3.027)"/></g></g><g transform="translate(4.084 17.034) rotate(25)"><g transform="translate(0 0)"><ellipse class="a" cx="3.845" cy="2.929" rx="3.845" ry="2.929" transform="matrix(0.628, -0.779, 0.779, 0.628, 0, 5.987)"/><path class="b" d="M3.491.523A2.476,2.476,0,0,0,1.73.012,2.381,2.381,0,0,1,3.064.523c1.26,1.015,1.2,3.178-.132,4.832A4.3,4.3,0,0,1,0,7.021,4.12,4.12,0,0,0,3.359,5.354C4.691,3.7,4.751,1.538,3.491.523Z" transform="translate(3.584 1.315)"/><path class="c" d="M5.351.171C5.286.118,5.217.067,5.145.02L5.13.014A.136.136,0,0,0,5.057,0a.122.122,0,0,0-.07.031L4.975.041s0,.006-.006.009-.005,0-.008.008L4.956.072a.136.136,0,0,0-.014.074.129.129,0,0,0,.006.024.11.11,0,0,0,.025.044l.009.013c1.1,1.011.982,3.011-.26,4.552C3.437,6.374,1.415,6.883.215,5.916A.127.127,0,0,0,.19,5.9l-.007,0a.128.128,0,0,0-.04-.01H.133a.121.121,0,0,0-.078.026l-.013.008s0,.005-.006.008l-.007.006-.006.012a.127.127,0,0,0-.016.03L0,5.99A.129.129,0,0,0,0,6.03s0,.005,0,.008a.128.128,0,0,0,.013.041l0,.006a.126.126,0,0,0,.014.024,2.658,2.658,0,0,0,.3.286,2.8,2.8,0,0,0,1.78.6A4.3,4.3,0,0,0,5.363,5.314C6.746,3.6,6.741,1.291,5.351.171Z" transform="translate(2.149 1.807)"/><path class="c" d="M0,3.141c.01-.031.081-.293.09-.324.784.014.822-.012.939-.4.22-.73.284-.86.5-1.59C1.61.573,1.6.517,1.23.447L1.006.406c.008-.027.058-.275.067-.3A12.482,12.482,0,0,0,2.69,0L1.962,2.516c-.114.393-.1.424.653.57-.009.031-.079.294-.088.325Z" transform="translate(2.905 3.027)"/></g><g transform="translate(0 0)"><path class="d" d="M4.942,0q.1.066.2.143C6.473,1.219,6.469,3.439,5.13,5.1S1.623,7.237.288,6.161A2.528,2.528,0,0,1,0,5.889" transform="translate(2.279 1.937)"/><ellipse class="d" cx="3.845" cy="2.929" rx="3.845" ry="2.929" transform="matrix(0.628, -0.779, 0.779, 0.628, 0, 5.987)"/><line class="d" x2="0.435" y2="0.367" transform="translate(6.974 6.67)"/><line class="d" x2="0.384" y2="0.412" transform="translate(6.516 7.166)"/><line class="d" x2="0.315" y2="0.44" transform="translate(6.031 7.569)"/><line class="d" x2="0.248" y2="0.443" transform="translate(5.5 7.924)"/><line class="d" x2="0.462" y2="0.32" transform="translate(7.326 6.174)"/><path class="e" d="M0,3.141c.01-.031.081-.293.09-.324.784.014.822-.012.939-.4.22-.73.284-.86.5-1.59C1.61.573,1.6.517,1.23.447L1.006.406c.008-.027.058-.275.067-.3A12.482,12.482,0,0,0,2.69,0L1.962,2.516c-.114.393-.1.424.653.57-.009.031-.079.294-.088.325Z" transform="translate(2.905 3.027)"/></g></g></g></svg>