<svg xmlns="http://www.w3.org/2000/svg" width="44.233" height="31.057" viewBox="0 0 44.233 31.057"><defs><style>.a{fill:#fcea2b;}.b{fill:#fff;}.c{fill:#f1b31c;}.d,.e{fill:none;stroke:#000;}.d{stroke-miterlimit:10;}.e{stroke-linecap:round;stroke-linejoin:round;}</style></defs><g transform="translate(0.703 -0.099)"><g transform="translate(0 0.802)"><g transform="translate(0 0)"><ellipse class="a" cx="11.798" cy="8.988" rx="11.798" ry="8.988" transform="matrix(0.628, -0.779, 0.779, 0.628, 0, 18.371)"/><path class="b" d="M36.489,9.687a7.6,7.6,0,0,0-5.4-1.568,7.306,7.306,0,0,1,4.1,1.568c3.865,3.115,3.683,9.753-.406,14.826a13.183,13.183,0,0,1-9,5.113c3.467.26,7.458-1.58,10.306-5.113C40.173,19.439,40.354,12.8,36.489,9.687Z" transform="translate(-14.78 -4.047)"/><path class="c" d="M31.36,12.316c-.2-.162-.414-.317-.633-.462a.377.377,0,0,0-.045-.018.419.419,0,0,0-.226-.042.375.375,0,0,0-.214.1.383.383,0,0,0-.038.028c-.008.008-.01.019-.017.028s-.017.014-.023.023a.384.384,0,0,0-.018.044.417.417,0,0,0-.041.228.4.4,0,0,0,.018.074.339.339,0,0,0,.077.136.382.382,0,0,0,.028.039c3.364,3.1,3.013,9.239-.8,13.968-3.942,4.891-10.147,6.453-13.83,3.484a.39.39,0,0,0-.076-.039l-.023-.012a.394.394,0,0,0-.122-.03l-.033,0a.372.372,0,0,0-.24.079.382.382,0,0,0-.039.024c-.008.007-.011.017-.018.024s-.015.01-.021.018a.38.38,0,0,0-.019.037.39.39,0,0,0-.048.092.38.38,0,0,0-.01.039.4.4,0,0,0-.01.121c0,.008,0,.016,0,.024a.392.392,0,0,0,.039.127l.011.018a.387.387,0,0,0,.044.074,8.155,8.155,0,0,0,.929.877,8.586,8.586,0,0,0,5.462,1.851A13.184,13.184,0,0,0,31.4,28.1C35.641,22.833,35.624,15.753,31.36,12.316Z" transform="translate(-8.346 -6.249)"/><path class="c" d="M20.652,30.641c.029-.094.247-.9.277-.994,2.4.043,2.523-.037,2.88-1.222.675-2.238.872-2.639,1.547-4.877.237-.785.195-.956-.931-1.171l-.686-.126c.026-.083.179-.843.2-.926A38.3,38.3,0,0,0,28.908,21l-2.235,7.721c-.349,1.205-.306,1.3,2,1.748-.027.1-.243.9-.27,1Z" transform="translate(-11.737 -11.718)"/></g><g transform="translate(0 0)"><path class="d" d="M31.086,12.777q.309.2.6.44c4.1,3.3,4.085,10.111-.025,15.21S20.9,34.983,16.805,31.681a7.758,7.758,0,0,1-.883-.833" transform="translate(-8.929 -6.833)"/><ellipse class="d" cx="11.798" cy="8.988" rx="11.798" ry="8.988" transform="matrix(0.628, -0.779, 0.779, 0.628, 0, 18.371)"/><line class="d" x2="1.335" y2="1.128" transform="translate(21.399 20.466)"/><line class="d" x2="1.177" y2="1.265" transform="translate(19.994 21.988)"/><line class="d" x2="0.966" y2="1.35" transform="translate(18.507 23.225)"/><line class="d" x2="0.761" y2="1.359" transform="translate(16.876 24.313)"/><line class="d" x2="1.418" y2="0.981" transform="translate(22.481 18.946)"/><path class="e" d="M20.652,30.641c.029-.094.247-.9.277-.994,2.4.043,2.523-.037,2.88-1.222.675-2.238.872-2.639,1.547-4.877.237-.785.195-.956-.931-1.171l-.686-.126c.026-.083.179-.843.2-.926A38.3,38.3,0,0,0,28.908,21l-2.235,7.721c-.349,1.205-.306,1.3,2,1.748-.027.1-.243.9-.27,1Z" transform="translate(-11.737 -11.718)"/></g></g><g transform="translate(14.437)"><g transform="matrix(0.899, -0.438, 0.438, 0.899, 0, 10.287)"><g transform="translate(0 0)"><ellipse class="a" cx="9.612" cy="7.323" rx="9.612" ry="7.323" transform="matrix(0.628, -0.779, 0.779, 0.628, 0, 14.967)"/><path class="b" d="M8.727,1.307A6.19,6.19,0,0,0,4.324.029,5.953,5.953,0,0,1,7.661,1.307c3.149,2.538,3,7.946-.331,12.079A10.741,10.741,0,0,1,0,17.552c2.824.212,6.077-1.287,8.4-4.166C11.728,9.253,11.876,3.845,8.727,1.307Z" transform="translate(8.96 3.288)"/><path class="c" d="M13.378.427C13.215.3,13.041.168,12.863.05L12.826.035A.341.341,0,0,0,12.642,0a.306.306,0,0,0-.174.078L12.436.1c-.006.007-.008.016-.014.023s-.014.011-.019.019a.313.313,0,0,0-.015.036.34.34,0,0,0-.034.186.324.324,0,0,0,.014.061.276.276,0,0,0,.063.111.312.312,0,0,0,.023.032C15.2,3.1,14.91,8.1,11.805,11.951,8.593,15.935,3.538,17.208.537,14.789a.318.318,0,0,0-.062-.032l-.018-.01a.321.321,0,0,0-.1-.025l-.026,0a.3.3,0,0,0-.2.065L.1,14.8c-.006.006-.009.014-.015.02s-.012.008-.017.014a.31.31,0,0,0-.016.03.318.318,0,0,0-.039.075.309.309,0,0,0-.008.032.322.322,0,0,0-.008.1c0,.007,0,.013,0,.019a.319.319,0,0,0,.032.1l.009.015a.316.316,0,0,0,.036.061,6.644,6.644,0,0,0,.757.715,7,7,0,0,0,4.45,1.508,10.742,10.742,0,0,0,8.121-4.21C16.866,9,16.852,3.227,13.378.427Z" transform="translate(5.372 4.516)"/><path class="c" d="M0,7.852c.024-.077.2-.733.225-.81,1.959.035,2.056-.03,2.347-1,.55-1.824.71-2.15,1.26-3.974.193-.639.159-.779-.758-.954l-.559-.1c.021-.067.146-.687.167-.754A31.2,31.2,0,0,0,6.726,0L4.905,6.29c-.284.982-.249,1.06,1.632,1.424-.022.078-.2.734-.22.812Z" transform="translate(7.264 7.566)"/></g><g transform="translate(0 0)"><path class="d" d="M12.354,0q.252.166.491.358c3.337,2.69,3.328,8.238-.02,12.392S4.056,18.092.719,15.4A6.32,6.32,0,0,1,0,14.723" transform="translate(5.698 4.842)"/><ellipse class="d" cx="9.612" cy="7.323" rx="9.612" ry="7.323" transform="matrix(0.628, -0.779, 0.779, 0.628, 0, 14.967)"/><line class="d" x2="1.088" y2="0.919" transform="translate(17.435 16.674)"/><line class="d" x2="0.959" y2="1.03" transform="translate(16.29 17.914)"/><line class="d" x2="0.787" y2="1.1" transform="translate(15.079 18.922)"/><line class="d" x2="0.62" y2="1.107" transform="translate(13.749 19.809)"/><line class="d" x2="1.155" y2="0.799" transform="translate(18.316 15.436)"/><path class="e" d="M0,7.852c.024-.077.2-.733.225-.81,1.959.035,2.056-.03,2.347-1,.55-1.824.71-2.15,1.26-3.974.193-.639.159-.779-.758-.954l-.559-.1c.021-.067.146-.687.167-.754A31.2,31.2,0,0,0,6.726,0L4.905,6.29c-.284.982-.249,1.06,1.632,1.424-.022.078-.2.734-.22.812Z" transform="translate(7.264 7.566)"/></g></g></g></g></svg>