<svg xmlns="http://www.w3.org/2000/svg" width="18.717" height="18.51" viewBox="0 0 18.717 18.51"><defs><style>.a{fill:#fff;}.b{fill:#d22f27;}.c{fill:none;stroke:#000;stroke-linecap:round;stroke-linejoin:round;stroke-miterlimit:10;}</style></defs><g transform="translate(0.707 0.5)"><g transform="translate(0 0.054)"><path class="a" d="M12,28.535l17.1-.054V12.15H13.311L12,13.526Z" transform="translate(-11.643 -12.15)"/><path class="b" d="M26.724,32.081H11.357A.357.357,0,0,1,11,31.724V16.357A.357.357,0,0,1,11.357,16H26.724a.357.357,0,0,1,.357.357V31.724A.357.357,0,0,1,26.724,32.081Z" transform="translate(-11 -14.624)"/></g><g transform="translate(0 0)"><path class="c" d="M11,13.787,12.786,12H28.154a.357.357,0,0,1,.357.357V27.724a.357.357,0,0,1-.357.357" transform="translate(-11 -12)"/><path class="c" d="M26.724,32.081H11.357A.357.357,0,0,1,11,31.724V16.357A.357.357,0,0,1,11.357,16H26.724a.357.357,0,0,1,.357.357V31.724A.357.357,0,0,1,26.724,32.081Z" transform="translate(-11 -14.571)"/></g></g></svg>