<svg xmlns="http://www.w3.org/2000/svg" width="19.17" height="17.783" viewBox="0 0 19.17 17.783"><defs><style>.a{fill:#fcea2b;}.b{fill:#f1b31c;}.c{fill:none;stroke:#000;stroke-linecap:round;stroke-linejoin:round;stroke-miterlimit:10;}</style></defs><g transform="translate(0.5 0.5)"><g transform="translate(1.387 0)"><path class="a" d="M30.247,26.479a.343.343,0,0,0,.342-.343V11.355a.343.343,0,0,0-.342-.343H15.5a.343.343,0,0,0-.342.343v9.108l12.107,6.015h2.982Z" transform="translate(-13.807 -11.012)"/><path class="a" d="M30.893,26.12a.335.335,0,0,0,.335-.335V11.347a.335.335,0,0,0-.335-.335H16.455a.335.335,0,0,0-.335.335V26.12Z" transform="translate(-14.445 -11.012)"/><path class="a" d="M16.12,11.347a.335.335,0,0,1,.335-.335H30.893a.335.335,0,0,1,.335.335V25.785a.335.335,0,0,1-.335.335" transform="translate(-14.445 -11.012)"/><path class="b" d="M25.9,31.108H11.467a.335.335,0,0,1-.335-.335V16.335A.335.335,0,0,1,11.467,16H25.9a.335.335,0,0,1,.335.335V30.773A.335.335,0,0,1,25.9,31.108Z" transform="translate(-11.132 -14.325)"/></g><g transform="translate(0 0)"><path class="c" d="M16.12,11.347a.335.335,0,0,1,.335-.335H30.893a.335.335,0,0,1,.335.335V25.785a.335.335,0,0,1-.335.335" transform="translate(-13.058 -11.012)"/><path class="c" d="M25.9,31.108H11.467a.335.335,0,0,1-.335-.335V16.335A.335.335,0,0,1,11.467,16H25.9a.335.335,0,0,1,.335.335V30.773A.335.335,0,0,1,25.9,31.108Z" transform="translate(-9.745 -14.325)"/><line class="c" x2="2.925" transform="translate(0 4.163)"/><line class="c" x2="2.925" transform="translate(0 6.189)"/><line class="c" x2="2.925" transform="translate(0 8.215)"/><line class="c" x1="2.925" transform="translate(0 10.242)"/><line class="c" x2="2.925" transform="translate(0 12.268)"/><line class="c" x2="2.925" transform="translate(0 14.294)"/></g></g></svg>