<svg xmlns="http://www.w3.org/2000/svg" width="26.209" height="20.798" viewBox="0 0 26.209 20.798"><defs><style>.a{fill:#fff;}.b{fill:#d22f27;}.c{fill:none;stroke:#000;stroke-linecap:round;stroke-linejoin:round;stroke-miterlimit:10;stroke-width:2px;}</style></defs><g transform="translate(1.047 1.227)"><g transform="translate(0 0)"><path class="a" d="M35.3,24.673H12.5c-2.958,1.456-.441,4.177-.441,4.177S9.706,31.028,11.942,33c-.813,1.447-1.278,2.4-.532,3.621l12.354,3.308,11.538-2.8V24.673Z" transform="translate(-10.979 -21.584)"/><path class="b" d="M14.07,21.212l11.284-2.991L36.5,21.249l.006.022L25.354,24.3Z" transform="translate(-12.59 -18.221)"/><line class="a" x2="11.143" y2="3.028" transform="translate(12.764)"/><line class="a" x1="11.284" y2="2.991" transform="translate(1.48)"/></g><g transform="translate(0.028 0)"><line class="c" x2="10.386" y2="2.92" transform="translate(2.351 3.159)"/><line class="c" x1="11.92" y1="3.158" transform="translate(0.816 6.846)"/><line class="c" x2="11.143" y2="3.028" transform="translate(12.736)"/><line class="c" x1="11.149" y2="3.028" transform="translate(12.736 3.05)"/><line class="c" x1="11.284" y2="2.991" transform="translate(1.452)"/><line class="c" x1="11.149" y2="3.028" transform="translate(12.736 6.975)"/><path class="c" d="M12.161,28.437a1.862,1.862,0,0,1-1.022-2.4,1.862,1.862,0,0,1,2.18-1.438" transform="translate(-11.037 -21.512)"/><line class="c" x1="11.92" y1="3.158" transform="translate(0.816 11.016)"/><line class="c" x1="11.149" y2="3.028" transform="translate(12.736 11.145)"/><path class="c" d="M12.161,37.145A2.039,2.039,0,0,1,13.319,33.3" transform="translate(-11.037 -26.05)"/><line class="c" x1="11.92" y1="3.158" transform="translate(0.837 15.186)"/><line class="c" x1="11.149" y2="3.028" transform="translate(12.757 15.316)"/><path class="c" d="M12.2,45.856a2.039,2.039,0,0,1,1.158-3.841" transform="translate(-11.06 -30.59)"/></g></g></svg>