<svg xmlns="http://www.w3.org/2000/svg" width="15.712" height="16.871" viewBox="0 0 15.712 16.871"><defs><style>.a{fill:#9b9b9a;}.b{fill:#d0cfce;}.c{fill:none;stroke:#000;stroke-linecap:round;stroke-linejoin:round;stroke-miterlimit:10;}</style></defs><g transform="translate(0.5 0.5)"><g transform="translate(0 0)"><path class="a" d="M29.331,24.171V10.958H15.037V25.372L28.8,24.9" transform="translate(-14.619 -10.958)"/><path class="a" d="M29.958,24.171V10.958H16V21.48" transform="translate(-15.246 -10.958)"/><path class="b" d="M25.749,38.149,13.839,40.767l.284,3.765,10.883-1.453,1.142-.152,1.356-.181Z" transform="translate(-13.839 -28.661)"/></g><g transform="translate(0 0)"><path class="c" d="M29.958,24.171V10.958H16V21.48" transform="translate(-15.246 -10.958)"/><path class="c" d="M25.749,38.149,13.839,40.767l.284,3.765,10.883-1.453,1.142-.152,1.356-.181Z" transform="translate(-13.839 -28.661)"/><line class="c" x2="5.366" transform="translate(2.367 1.759)"/><line class="c" x2="10.831" transform="translate(2.367 3.618)"/><line class="c" x2="10.831" transform="translate(2.367 7.419)"/><line class="c" x2="4.456" transform="translate(2.367 9.306)"/><line class="c" x2="10.831" transform="translate(2.367 5.533)"/><path class="c" d="M54.047,48.321A1.047,1.047,0,0,1,53,49.368" transform="translate(-39.335 -35.284)"/></g></g></svg>