<svg xmlns="http://www.w3.org/2000/svg" width="19.95" height="19.95" viewBox="0 0 19.95 19.95"><defs><style>.a{fill:#d22f27;stroke:#d22f27;}.a,.c,.d{stroke-miterlimit:10;stroke-width:2px;}.b{fill:#ea5a47;}.c{fill:#f4aa41;stroke:#f4aa41;}.d{fill:#fcea2b;stroke:#fcea2b;}.e,.f{fill:none;stroke:#000;stroke-linejoin:round;}.e{stroke-linecap:round;}</style></defs><g transform="translate(1 1)"><g transform="translate(0 0)"><path class="a" d="M18.691,10c-1.951,0-3.536,2.478-3.585,5.564-2.927.155-5.227,1.695-5.227,3.575s2.305,3.423,5.237,3.575c.152,2.932,1.693,5.237,3.575,5.237s3.42-2.3,3.575-5.227c3.085-.05,5.564-1.634,5.564-3.585s-2.473-3.532-5.553-3.585C22.223,12.473,20.64,10,18.691,10Z" transform="translate(-9.879 -10)"/><path class="b" d="M29.217,16.868c-1.295-1.295-3.99-.7-6.071,1.313-2.045-1.839-4.592-2.343-5.84-1.1s-.742,3.8,1.1,5.847c-1.844,2.046-2.352,4.6-1.1,5.847s3.795.743,5.84-1.1C25.227,29.7,27.922,30.29,29.217,29s.7-3.984-1.306-6.063C29.92,20.852,30.511,18.162,29.217,16.868Z" transform="translate(-14.299 -14.053)"/><circle class="c" cx="2.756" cy="2.756" r="2.756" transform="translate(6.099 6.122)"/><circle class="d" cx="1.531" cy="1.531" r="1.531" transform="translate(7.324 7.347)"/></g><g transform="translate(0 0)"><path class="e" d="M29.217,16.868c-1.295-1.295-3.99-.7-6.071,1.313-2.045-1.839-4.592-2.343-5.84-1.1s-.742,3.8,1.1,5.847c-1.844,2.046-2.352,4.6-1.1,5.847s3.795.743,5.84-1.1C25.227,29.7,27.922,30.29,29.217,29s.7-3.984-1.306-6.063C29.92,20.852,30.511,18.162,29.217,16.868Z" transform="translate(-14.299 -14.053)"/><path class="e" d="M58.223,34.3a2.862,2.862,0,0,0,1.189-2.191,2.95,2.95,0,0,0-1.359-2.323" transform="translate(-41.462 -22.974)"/><path class="e" d="M28.391,57.71a3.033,3.033,0,0,0,2.436,1.519,2.86,2.86,0,0,0,2.187-1.184" transform="translate(-22.016 -41.279)"/><path class="e" d="M11,30.343a2.826,2.826,0,0,0-1.118,2.132,2.705,2.705,0,0,0,.884,1.918" transform="translate(-9.879 -23.337)"/><path class="e" d="M33.581,11.3A2.918,2.918,0,0,0,31.3,10a2.859,2.859,0,0,0-2.186,1.183" transform="translate(-22.492 -10)"/><circle class="f" cx="2.756" cy="2.756" r="2.756" transform="translate(6.099 6.122)"/><circle class="f" cx="1.531" cy="1.531" r="1.531" transform="translate(7.324 7.347)"/></g></g></svg>