<svg xmlns="http://www.w3.org/2000/svg" width="20.443" height="19.164" viewBox="0 0 20.443 19.164"><defs><style>.a{fill:#92d3f5;}.b{fill:#b1cc33;}.c{fill:#a57939;}.d{fill:#fcea2b;}.e,.f,.g,.h{fill:none;stroke:#000;}.e,.g,.h{stroke-miterlimit:10;}.f,.h{stroke-linecap:round;}.f,.g,.h{stroke-linejoin:round;}</style></defs><g transform="translate(0.5 0.5)"><g transform="translate(0 9.953)"><path class="a" d="M11,47.519V41.306A2.526,2.526,0,0,1,13.55,39a3.225,3.225,0,0,0,4.583,0h5.1a3.225,3.225,0,0,0,4.583,0,2.526,2.526,0,0,1,2.55,2.307v6.214" transform="translate(-11 -38.999)"/><path class="b" d="M26.5,56.711V55.73A1.91,1.91,0,0,1,28.438,54a2.474,2.474,0,0,0,3.483,0,1.91,1.91,0,0,1,1.938,1.73v.981" transform="translate(-20.497 -48.19)"/></g><g transform="translate(1.124 0)"><path class="c" d="M35.775,23.253h2.113a3.225,3.225,0,0,0,4.583,0,2.671,2.671,0,0,1,1.4.417l.133-.063.659-.789a3.321,3.321,0,0,0,.163-3.354,6.538,6.538,0,0,1-.9-3.305A2.149,2.149,0,0,0,42,14.092a2.724,2.724,0,0,0-2.066-.792,3.522,3.522,0,0,0-3.546,2.307c-.413,1.446.069,2.031-.344,3.133-.362.93-1.135,1.448-1.127,2.566a4.011,4.011,0,0,0,.566,1.567Z" transform="translate(-26.781 -13.3)"/><path class="c" d="M13.913,16.779c.207-3,2.479-3.03,3.615-2.858a2.589,2.589,0,0,0,.516,0c2.066-.275,3.1,2.066,3.1,3.1a2.539,2.539,0,0,1-.429,1.82,6.208,6.208,0,0,1-1.327-2.268s-3.925,1.481-4.2.207a5.2,5.2,0,0,1-.516,1.308s-.127.792-.127,1.033A3.914,3.914,0,0,1,13.913,16.779Z" transform="translate(-13.903 -13.646)"/><path class="c" d="M30.685,39.368c.182,1.3,1.738-.337,1.738-.337.213.609,1.714,1.5,1.714,1.5.4-.37.2-1.1.144-1.361a1.983,1.983,0,0,0-2.249-1.593,2.5,2.5,0,0,1-.4,0,2.214,2.214,0,0,0-2.757,1.8c-.206.906.242,1.156.242,1.156S30.573,38.57,30.685,39.368Z" transform="translate(-23.043 -28.148)"/></g><g transform="translate(1.757 2.135)"><path class="d" d="M41.121,21.911c0,2.066,1.308,3.615,2.858,3.615s2.858-1.549,2.858-3.615a4.01,4.01,0,0,0-1.549-3.1c-1.033,1.033-4.132,2.341-4.132,2.858l-.034.241Z" transform="translate(-31.213 -18.812)"/><path class="d" d="M20.382,20.857s-3.925,1.481-4.2.207a5.2,5.2,0,0,1-.516,1.308s-.123.768-.127,1.021c.178,1.994,1.488,3.563,3.076,3.563,1.66,0,3.014-1.714,3.091-3.835A6.148,6.148,0,0,1,20.382,20.857Z" transform="translate(-15.538 -20.065)"/><path class="d" d="M32.888,41.4s-1.556,1.64-1.738.337c-.1-.715-1.275.776-1.521,1.1-.029.13-.048.22-.048.228a2.521,2.521,0,1,0,5.026,0,2,2,0,0,0-.058-.2C34.286,42.706,33.077,41.944,32.888,41.4Z" transform="translate(-24.141 -32.653)"/></g><g transform="translate(0 0)"><path class="e" d="M21.7,25.569v.249c0,2.208-1.389,4.024-3.1,4.024s-3.1-1.816-3.1-4.024v-.249" transform="translate(-13.757 -20.817)"/><path class="f" d="M13.913,16.779c.207-3,2.479-3.03,3.615-2.858a2.589,2.589,0,0,0,.516,0c2.066-.275,3.1,2.066,3.1,3.1a2.539,2.539,0,0,1-.429,1.82,6.208,6.208,0,0,1-1.327-2.268s-3.925,1.481-4.2.207a5.2,5.2,0,0,1-.516,1.308s-.127.792-.127,1.033A3.914,3.914,0,0,1,13.913,16.779Z" transform="translate(-12.779 -13.646)"/><path class="f" d="M35.84,21.175a6.675,6.675,0,0,1,.771-2.435c.413-1.1-.069-1.687.344-3.133A3.522,3.522,0,0,1,40.5,13.3a2.724,2.724,0,0,1,2.066.792A2.149,2.149,0,0,1,44.5,16.158a6.538,6.538,0,0,0,.9,3.305,2.98,2.98,0,0,1-.309,2.918" transform="translate(-26.22 -13.3)"/><path class="g" d="M41.121,21.911c0,2.066,1.308,3.615,2.858,3.615s2.858-1.549,2.858-3.615a4.01,4.01,0,0,0-1.549-3.1c-1.033,1.033-4.132,2.341-4.132,2.858l-.034.241Z" transform="translate(-29.456 -16.677)"/><path d="M45.718,25.734a.484.484,0,1,1-.484-.484.473.473,0,0,1,.484.484" transform="translate(-31.679 -20.622)"/><path d="M50.718,25.734a.484.484,0,1,1-.484-.484.473.473,0,0,1,.484.484" transform="translate(-34.743 -20.622)"/><path class="f" d="M46.633,31.533a1.537,1.537,0,0,0,1.446,0" transform="translate(-32.833 -24.472)"/><path d="M20.718,25.734a.484.484,0,1,1-.484-.484.473.473,0,0,1,.484.484" transform="translate(-16.361 -20.622)"/><path d="M25.718,25.734a.484.484,0,1,1-.484-.484.473.473,0,0,1,.484.484" transform="translate(-19.425 -20.622)"/><path class="f" d="M21.633,31.533a1.537,1.537,0,0,0,1.446,0" transform="translate(-17.515 -24.472)"/><path class="f" d="M26.5,56.4V55.73A1.91,1.91,0,0,1,28.438,54a2.474,2.474,0,0,0,3.483,0,1.91,1.91,0,0,1,1.938,1.73V56.4" transform="translate(-20.497 -38.237)"/><path d="M37.7,45.187a.349.349,0,1,1-.371-.324h.023A.337.337,0,0,1,37.7,45.187Z" transform="translate(-26.931 -32.638)"/><path class="f" d="M34.664,49.186a.811.811,0,0,0,1.035,0" transform="translate(-25.499 -35.288)"/><path d="M33.549,44.862h.023a.348.348,0,1,1-.371.324A.337.337,0,0,1,33.549,44.862Z" transform="translate(-24.602 -32.638)"/><path class="e" d="M34.6,45.268q0,.082,0,.165a2.521,2.521,0,1,1-5.026,0q0-.055,0-.11" transform="translate(-22.384 -32.887)"/><path class="f" d="M30.685,39.368c.182,1.3,1.738-.337,1.738-.337.213.609,1.714,1.5,1.714,1.5.4-.37.2-1.1.144-1.361a1.983,1.983,0,0,0-2.249-1.593,2.5,2.5,0,0,1-.4,0,2.214,2.214,0,0,0-2.757,1.8c-.206.906.242,1.156.242,1.156S30.574,38.57,30.685,39.368Z" transform="translate(-21.919 -28.148)"/><path class="h" d="M46.257,39.82A3.266,3.266,0,0,0,49.417,39a2.526,2.526,0,0,1,2.55,2.307v5.827" transform="translate(-32.602 -29.046)"/><path class="h" d="M11,47.132V41.306A2.526,2.526,0,0,1,13.55,39a3.213,3.213,0,0,0,3.127.824" transform="translate(-11 -29.046)"/></g></g></svg>