<svg xmlns="http://www.w3.org/2000/svg" width="18.682" height="21.95" viewBox="0 0 18.682 21.95"><defs><style>.a{fill:#6a462f;stroke:#6a462f;}.a,.b,.c,.d{stroke-linecap:round;stroke-miterlimit:10;}.a,.b,.d{stroke-linejoin:round;}.a,.b{stroke-width:2px;}.b{fill:#a57939;stroke:#a57939;}.c,.d{fill:none;stroke:#000;}</style></defs><g transform="translate(0.887 1)"><g transform="translate(0.113 0)"><path class="a" d="M45.255,22.809a8.338,8.338,0,0,1-7.725,8.317c6.219-3.631,6.968-9.959,1.86-15.908l-.06-.072c-1.316-1.522.58-3.945.58-3.945h.8a1.309,1.309,0,0,1,1.3,1.3v.008a1.294,1.294,0,0,1-.278.8,1.279,1.279,0,0,1-.519.4h0c-.471.467-.886,1.26.322,2.154l.044.032a1.466,1.466,0,0,1,.141.1,8.2,8.2,0,0,1,1.59,1.465,7.924,7.924,0,0,1,1.083,1.663.812.812,0,0,1,.044.085c.06.133.117.262.169.394.04.109.085.217.121.322s.076.221.109.326c0,0,0,.008,0,.012.028.1.06.205.089.306,0,.016.012.036.016.052.012.048.024.089.032.137a1.447,1.447,0,0,1,.048.189c.012.064.028.121.04.185.012.048.024.1.036.157,0,0,0,.016,0,.02.02.117.04.225.056.33.02.145.036.278.052.4.008.085.016.165.02.233C45.259,22.608,45.255,22.809,45.255,22.809Z" transform="translate(-28.573 -11.2)"/><path class="b" d="M24.237,31.126a1.74,1.74,0,0,1-.2.012c-.137.008-.278.012-.415.012a8.342,8.342,0,0,1-8.341-8.341v-.052c0-.113,0-.221.012-.334,0-.048,0-.1.008-.153s.012-.149.02-.233c.012-.1.028-.221.048-.346.008-.06.02-.125.028-.193a10.748,10.748,0,0,1,.322-1.324c.024-.076.052-.161.085-.246.085-.233.181-.475.294-.721a.416.416,0,0,1,.044-.085,14.057,14.057,0,0,1,1.083-1.663,8.2,8.2,0,0,1,1.59-1.465,1.465,1.465,0,0,1,.141-.1L19,15.866c1.188-.882.805-1.667.342-2.133a1.274,1.274,0,0,1-.588-.447.05.05,0,0,1-.012-.008,1.3,1.3,0,0,1-.25-.765V12.5a1.307,1.307,0,0,1,1.3-1.3h6.819s-1.9,2.423-.58,3.945l.06.072C31.2,21.167,30.456,27.495,24.237,31.126Z" transform="translate(-15.28 -11.2)"/></g><g transform="translate(0 0)"><path d="M16.486,34.009q.055-.277.131-.545C16.565,33.654,16.522,33.836,16.486,34.009Z" transform="translate(-15.888 -24.502)"/><path d="M16.921,32.53c-.042.123-.075.25-.11.376C16.844,32.783,16.88,32.658,16.921,32.53Z" transform="translate(-16.082 -23.944)"/><path d="M16.315,35.173c.019-.112.043-.232.069-.355C16.36,34.937,16.332,35.053,16.315,35.173Z" transform="translate(-15.786 -25.312)"/><path d="M16.016,44.583" transform="translate(-15.607 -31.145)"/><path d="M16.047,37.91c-.008.109-.012.213-.012.322C16.035,38.172,16.035,38.063,16.047,37.91Z" transform="translate(-15.618 -27.159)"/><line class="c" x1="5.166" transform="translate(5.847 3.475)"/><path class="d" d="M31.961,22.811a8.341,8.341,0,0,1-16.681,0v-.054c0-.113,0-.221.013-.334,0-.046,0-.1.008-.15,0-.071.013-.15.021-.234.013-.1.025-.221.046-.347.008-.063.021-.125.029-.192a10.031,10.031,0,0,1,.322-1.324c.025-.079.054-.163.084-.246.088-.234.184-.476.3-.723a.524.524,0,0,1,.042-.084,14.259,14.259,0,0,1,1.082-1.663,8.29,8.29,0,0,1,1.592-1.466c.046-.033.1-.067.142-.1L19,15.868c1.191-.881.806-1.667.343-2.135a1.248,1.248,0,0,1-.585-.447.052.052,0,0,1-.013-.008,1.289,1.289,0,0,1-.251-.765V12.5a1.308,1.308,0,0,1,1.3-1.3h7.62a1.308,1.308,0,0,1,1.3,1.3v.008a1.309,1.309,0,0,1-.276.8,1.289,1.289,0,0,1-.518.4h0c-.472.468-.886,1.262.322,2.156l.042.029c.046.029.1.063.142.1a8.291,8.291,0,0,1,1.592,1.466A8.181,8.181,0,0,1,31.1,19.122a.52.52,0,0,1,.042.084c.063.134.117.263.171.4.042.109.084.217.121.322s.075.221.109.326c0,0,0,.008,0,.013.029.1.058.2.088.3,0,.017.013.038.017.054.013.046.025.088.033.134.017.063.033.125.046.192s.029.121.042.184.025.1.033.159a.025.025,0,0,0,0,.017c.021.117.042.226.058.33q.031.219.05.4c.008.084.017.163.021.234C31.965,22.61,31.961,22.811,31.961,22.811Z" transform="translate(-15.167 -11.201)"/><path class="d" d="M35.746,35.251a1.139,1.139,0,0,0-1.148-.745h0a.958.958,0,1,0,0,1.867l-.024,0a.958.958,0,1,1,0,1.867h0a1.139,1.139,0,0,1-1.148-.745" transform="translate(-26.008 -25.125)"/><line class="d" y1="0.89" transform="translate(8.577 8.491)"/><line class="d" y1="0.89" transform="translate(8.577 13.118)"/><path class="d" d="M18.415,20A2.365,2.365,0,0,0,16,22.415" transform="translate(-15.597 -16.458)"/><path class="d" d="M15.805,16.805A.788.788,0,0,1,15,16" transform="translate(-15 -14.068)"/></g></g></svg>