<svg xmlns="http://www.w3.org/2000/svg" width="19.779" height="18.25" viewBox="0 0 19.779 18.25"><defs><style>.a{fill:#fcea2b;}.b{fill:#f1b31c;}.c{fill:#ea5a47;}.d{fill:#fff;}.e,.f{fill:none;stroke:#000;stroke-linejoin:round;stroke-miterlimit:10;}.e{stroke-linecap:round;}</style></defs><g transform="translate(0.472 0.125)"><g transform="translate(0 0)"><circle class="a" cx="9" cy="9" r="9" transform="translate(0.418)"/><path class="b" d="M16.194,17.551l2.995-.45-1.464,2.651,1.354,2.709L16.1,21.887l-2.158,2.125-.374-3.005-2.688-1.4,2.743-1.284.5-2.987Z" transform="translate(-10.886 -14.087)"/><path class="b" d="M41.891,17.551,38.9,17.1l1.464,2.651L39.007,22.46l2.974-.573,2.158,2.125.374-3.005,2.688-1.4-2.743-1.284-.5-2.987Z" transform="translate(-28.392 -14.087)"/><path class="c" d="M32.55,46.275c-.671,1.6-2.381,2.711-5.138,2.711-2.779,0-4.511-1.136-5.175-2.76A24.754,24.754,0,0,0,32.55,46.275Z" transform="translate(-17.98 -33.391)"/><path class="d" d="M32.357,41.866a4.319,4.319,0,0,1-.326,1.684A24.753,24.753,0,0,1,21.718,43.5a4.316,4.316,0,0,1-.311-1.635h.041a25.763,25.763,0,0,0,10.834.026Z" transform="translate(-17.462 -30.666)"/></g><g transform="translate(0.028 0.375)"><path class="e" d="M50.053,44.037" transform="translate(-35.394 -32.398)"/><path class="e" d="M22,44.037" transform="translate(-17.859 -32.398)"/><path class="e" d="M32.357,41.866a4.319,4.319,0,0,1-.326,1.684A24.753,24.753,0,0,1,21.718,43.5a4.316,4.316,0,0,1-.311-1.635h.041a25.763,25.763,0,0,0,10.834.026Z" transform="translate(-17.49 -31.041)"/><path class="f" d="M32.55,46.275c-.671,1.6-2.381,2.711-5.138,2.711-2.779,0-4.511-1.136-5.175-2.76A24.754,24.754,0,0,0,32.55,46.275Z" transform="translate(-18.009 -33.766)"/><path class="f" d="M49.921,46.236l-.184.045" transform="translate(-35.196 -33.772)"/><path class="f" d="M22.062,46.182l-.105-.026" transform="translate(-17.834 -33.722)"/><path class="e" d="M33.035,13.96a8.64,8.64,0,0,0-8.055.074l-.056.031" transform="translate(-19.688 -13)"/><path class="e" d="M13.073,33a8.625,8.625,0,1,0,17.106.012" transform="translate(-12.236 -25.497)"/><path class="e" d="M16.27,17.551l2.995-.45L17.8,19.751l1.354,2.709-2.974-.573-2.158,2.125-.374-3.005-2.688-1.4L13.7,18.326l.5-2.987Z" transform="translate(-10.961 -14.462)"/><path class="e" d="M41.891,17.551,38.9,17.1l1.464,2.651L39.007,22.46l2.974-.573,2.158,2.125.374-3.005,2.688-1.4-2.743-1.284-.5-2.987Z" transform="translate(-28.42 -14.462)"/></g></g></svg>