<svg xmlns="http://www.w3.org/2000/svg" width="14.203" height="14.407" viewBox="0 0 14.203 14.407"><defs><style>.a{fill:#d0cfce;}.b{fill:#9b9b9a;}.c{fill:#61b2e4;}.d{fill:none;stroke:#000;stroke-linecap:round;stroke-linejoin:round;stroke-miterlimit:10;}</style></defs><g transform="translate(0.503 0.607)"><g transform="translate(0 0)"><path class="a" d="M17.509,24.178C10.754,22.589,11,12.321,11,12.321a56.537,56.537,0,0,0,6.6-1.341V11a57.1,57.1,0,0,0,6.6,1.341S24.261,22.589,17.509,24.178Z" transform="translate(-10.996 -10.98)"/><path class="b" d="M38.786,13.587s1.7,8.028-2.786,12.251c0,0,4.223-.264,5.807-6.6s0-5.015,0-5.015l-3.021-.637" transform="translate(-29.4 -12.899)"/><path class="c" d="M26.644,25.282l2.419,3.7,3.881-6.4-1.347.658L29.072,27.4,27.5,24.995Z" transform="translate(-22.513 -19.515)"/></g><g transform="translate(0 0)"><path class="d" d="M17.6,10.979A56.878,56.878,0,0,1,11,12.322s-.242,10.267,6.511,11.856" transform="translate(-10.996 -10.979)"/><path class="d" d="M35.667,24.241c6.753-1.589,6.687-11.833,6.687-11.833a56.884,56.884,0,0,1-6.6-1.342" transform="translate(-29.154 -11.043)"/><path class="d" d="M26.644,25.282l2.419,3.7,3.881-6.4-1.347.658L29.072,27.4,27.5,24.995Z" transform="translate(-22.513 -19.514)"/></g></g></svg>