<svg xmlns="http://www.w3.org/2000/svg" width="30.217" height="11.15" viewBox="0 0 30.217 11.15"><defs><style>.a{fill:#fcea2b;}.b{fill:#ece05b;}.c{fill:#cdbc00;}.d{fill:none;stroke:#000;stroke-linecap:round;stroke-linejoin:round;stroke-miterlimit:10;}</style></defs><g transform="translate(0.13 0.5)"><g transform="translate(0 0.019)"><path class="a" d="M13.165,36.956,5.753,34.508l-2.071.642,4.826,4.365" transform="translate(-3.682 -30.599)"/><path class="b" d="M26.366,28.3l6.364-2.164s6.3-.107,4.821,1.519-11.866,5.692-14.936,6.838a31.443,31.443,0,0,1-9.492,1.8c-2.3.044.275-1.349.275-1.349s2.92-1.657,4.212-2.22l1.23-.91" transform="translate(-8.208 -26.132)"/><path class="c" d="M32.812,33.942l-11.484-1.3-.977.7,8.125,2.9" transform="translate(-12.572 -29.603)"/><path class="a" d="M21.366,40.249" transform="translate(-13.112 -33.661)"/><path class="a" d="M14.036,44.241" transform="translate(-9.203 -35.789)"/></g><g transform="translate(0.37 0)"><path class="d" d="M11.708,36.791l-5.8-2.055-1.432.5,3.813,3.418" transform="translate(-4.475 -30.702)"/><path class="d" d="M26.613,39.039" transform="translate(-16.281 -32.997)"/><path class="d" d="M21.366,40.249" transform="translate(-13.482 -33.642)"/><path class="d" d="M14.036,44.241" transform="translate(-9.573 -35.77)"/><path class="d" d="M32.812,33.6l-11.484-.958-.977.7,7.82,2.79" transform="translate(-12.942 -29.584)"/><path class="d" d="M26.64,28.533l5.2-2.094a4.813,4.813,0,0,1,1.947-.345c1.727.053,4.849.311,3.76,1.508-1.48,1.626-11.866,5.692-14.936,6.838a31.443,31.443,0,0,1-9.492,1.8c-2.3.044.275-1.349.275-1.349s2.92-1.657,4.212-2.22l1.3-.566" transform="translate(-8.578 -26.092)"/></g></g></svg>