<svg xmlns="http://www.w3.org/2000/svg" width="19.773" height="20.533" viewBox="0 0 19.773 20.533"><defs><style>.a{fill:#9b9b9a;}.b{fill:#d0cfce;}.c{fill:#fff;}.d{fill:#3f3f3f;}.e{fill:#fcea2b;}.f,.g,.h{fill:none;stroke:#000;stroke-linejoin:round;}.f,.g{stroke-linecap:round;}.f{stroke-miterlimit:10;}</style></defs><g transform="translate(0.516 0.5)"><g transform="translate(0.18 11.064)"><path class="a" d="M17.221,49.556s-.76-5.246,3.8-5.246a6.249,6.249,0,0,0,3.421,1.366H24.4c1.168,0,2.018-1.013,3.231-1.822,5.061,0,4.144,5.7,4.144,5.7" transform="translate(-17.173 -41.888)"/><path class="b" d="M36.613,47.965l.918,1.728,2.422-5.556,2.455,3.719-4.242,1.571" transform="translate(-29.223 -42.064)"/><path class="c" d="M31.864,50.832a1.992,1.992,0,0,1-2.087,0l-.7-.916L27.79,46.594l3.031,1.026L33.7,46.594,32.45,49.916Z" transform="translate(-23.754 -43.587)"/><path class="b" d="M56.131,46.212H50.244V38.684H56.05a.081.081,0,0,1,.081.081Z" transform="translate(-37.672 -38.684)"/><path class="c" d="M53.564,49.215H48.01v-7.2H52.1a1.465,1.465,0,0,1,1.465,1.465Z" transform="translate(-36.287 -40.746)"/><path class="d" d="M33.331,48.535s-.459,2.289.877,2.289.877-2.289.877-2.289" transform="translate(-27.141 -44.79)"/><path class="d" d="M33.12,54.618a.321.321,0,0,1,.556,0l.443.767.721.754H31.956l.721-.754Z" transform="translate(-26.336 -48.461)"/><path class="b" d="M27.447,48.562,26.528,49.8l-2.156-4.91-1.5,3.225,3.6,1.685" transform="translate(-20.703 -42.528)"/></g><g transform="translate(2.015)"><path class="d" d="M23.521,19.845C22,19.845,22,17.564,22,14.9s1.521-5.322,5.322-5.322,5.322,2.661,5.322,5.322,0,4.942-1.521,4.942" transform="translate(-22 -9.581)"/></g><g transform="translate(3.131 2.281)"><path class="e" d="M24.937,20.523c0,3.421,1.877,5.322,4.182,5.322,2.257,0,4.206-1.9,4.206-5.322a4.614,4.614,0,0,0-.38-1.9c-1.14-1.14-2.661-3.041-2.661-3.041-1.521,1.14-2.661,2.281-4.942,2.661C25.341,18.242,24.937,18.622,24.937,20.523Z" transform="translate(-24.937 -15.581)"/></g><path class="f" d="M53.564,49.411H48.01V42.326h4.5v.8h1.058Z" transform="translate(-36.107 -29.877)"/><path class="f" d="M51.214,38.863h5.636v7.085" transform="translate(-38.093 -27.731)"/><line class="f" x2="1.058" y2="0.803" transform="translate(16.399 12.449)"/><line class="f" x2="3.206" transform="translate(13.023 14.809)"/><path class="f" d="M59.388,50.583" transform="translate(-43.159 -34.995)"/><path class="f" d="M50.955,50.583" transform="translate(-37.932 -34.995)"/><line class="f" x2="3.206" transform="translate(13.023 16.366)"/><line class="f" x2="3.206" transform="translate(13.023 17.729)"/><path class="f" d="M33.331,48.535s-.459,2.289.877,2.289.877-2.289.877-2.289" transform="translate(-26.962 -33.726)"/><path class="f" d="M32.565,57.8" transform="translate(-26.534 -39.469)"/><path class="f" d="M38.96,57.8" transform="translate(-30.498 -39.469)"/><line class="f" x1="2.182" y2="0.828" transform="translate(8.463 17.506)"/><path class="f" d="M16.748,49.828s-.76-4.942,3.8-4.942a6.249,6.249,0,0,0,3.421,1.366h-.048a6.249,6.249,0,0,0,3.421-1.366" transform="translate(-16.7 -31.464)"/><path class="f" d="M27.447,48.562,26.528,49.8l-2.156-4.91-1.5,3.225,3.6,1.685" transform="translate(-20.523 -31.464)"/><path class="f" d="M39.687,44.886,37.531,49.8l-.918-1.234" transform="translate(-29.043 -31.464)"/><path class="f" d="M27.441,25.171" transform="translate(-23.358 -19.244)"/><path d="M39.474,25.807a.76.76,0,1,1-.76-.76.76.76,0,0,1,.76.76" transform="translate(-29.873 -19.167)"/><path d="M31.474,25.807a.76.76,0,1,1-.76-.76.76.76,0,0,1,.76.76" transform="translate(-24.915 -19.167)"/><path d="M33.473,35.343a2.909,2.909,0,0,1-1.311-.326.38.38,0,1,1,.34-.68,2.045,2.045,0,0,0,1.941,0,.38.38,0,1,1,.34.68A2.909,2.909,0,0,1,33.473,35.343Z" transform="translate(-26.154 -24.9)"/><path class="g" d="M23.521,19.845C22,19.845,22,17.564,22,14.9s1.521-5.322,5.322-5.322,5.322,2.661,5.322,5.322,0,4.942-1.521,4.942" transform="translate(-19.985 -9.581)"/><path class="h" d="M24.937,20.523c0,3.421,1.877,5.322,4.182,5.322,2.257,0,4.206-1.9,4.206-5.322a4.614,4.614,0,0,0-.38-1.9c-1.14-1.14-2.661-3.041-2.661-3.041-1.521,1.14-2.661,2.281-4.942,2.661C25.341,18.242,24.937,18.622,24.937,20.523Z" transform="translate(-21.805 -13.3)"/></g></svg>